<?xml version="1.0" encoding="UTF-8" standalone="no"?><svg xmlns="http://www.w3.org/2000/svg" xmlns:xlink="http://www.w3.org/1999/xlink" contentScriptType="application/ecmascript" contentStyleType="text/css" height="334px" preserveAspectRatio="none" style="width:377px;height:334px;" version="1.1" viewBox="0 0 377 334" width="377px" zoomAndPan="magnify"><defs><filter height="300%" id="fk0xqxuws18xu" width="300%" x="-1" y="-1"><feGaussianBlur result="blurOut" stdDeviation="2.0"/><feColorMatrix in="blurOut" result="blurOut2" type="matrix" values="0 0 0 0 0 0 0 0 0 0 0 0 0 0 0 0 0 0 .4 0"/><feOffset dx="4.0" dy="4.0" in="blurOut2" result="blurOut3"/><feBlend in="SourceGraphic" in2="blurOut3" mode="normal"/></filter></defs><g><!--MD5=[f8bd3ce9de8759419a329d3b3367da3e]
class CharacterController2D--><rect fill="#FEFECE" filter="url(#fk0xqxuws18xu)" height="99.2188" id="CharacterController2D" style="stroke: #A80036; stroke-width: 1.5;" width="172" x="116.24" y="116"/><ellipse cx="131.24" cy="132" fill="#ADD1B2" rx="11" ry="11" style="stroke: #A80036; stroke-width: 1.0;"/><path d="M134.2088,137.6406 Q133.6306,137.9375 132.99,138.0781 Q132.3494,138.2344 131.6463,138.2344 Q129.1463,138.2344 127.8181,136.5938 Q126.5056,134.9375 126.5056,131.8125 Q126.5056,128.6875 127.8181,127.0313 Q129.1463,125.375 131.6463,125.375 Q132.3494,125.375 132.99,125.5313 Q133.6463,125.6875 134.2088,125.9844 L134.2088,128.7031 Q133.5838,128.125 132.99,127.8594 Q132.3963,127.5781 131.7713,127.5781 Q130.4275,127.5781 129.74,128.6563 Q129.0525,129.7188 129.0525,131.8125 Q129.0525,133.9063 129.74,134.9844 Q130.4275,136.0469 131.7713,136.0469 Q132.3963,136.0469 132.99,135.7813 Q133.5838,135.5 134.2088,134.9219 L134.2088,137.6406 Z "/><text fill="#000000" font-family="sans-serif" font-size="12" lengthAdjust="spacingAndGlyphs" textLength="140" x="145.24" y="136.1543">CharacterController2D</text><line style="stroke: #A80036; stroke-width: 1.5;" x1="117.24" x2="287.24" y1="148" y2="148"/><text fill="#000000" font-family="sans-serif" font-size="11" lengthAdjust="spacingAndGlyphs" textLength="100" x="136.24" y="162.2104">speed : float = 2f</text><ellipse cx="127.24" cy="171.8047" fill="none" rx="3" ry="3" style="stroke: #038048; stroke-width: 1.0;"/><text fill="#000000" font-family="sans-serif" font-size="11" lengthAdjust="spacingAndGlyphs" textLength="77" x="136.24" y="175.0151">moving : bool</text><line style="stroke: #A80036; stroke-width: 1.5;" x1="117.24" x2="287.24" y1="181.6094" y2="181.6094"/><text fill="#000000" font-family="sans-serif" font-size="11" lengthAdjust="spacingAndGlyphs" textLength="79" x="122.24" y="195.8198">Awake() : void</text><text fill="#000000" font-family="sans-serif" font-size="11" lengthAdjust="spacingAndGlyphs" textLength="112" x="122.24" y="208.6245">FixedUpdate() : void</text><!--MD5=[83b3cf3d23d77c6f1e1b5291a241bc2a]
class MonoBehaviour--><rect fill="#FEFECE" filter="url(#fk0xqxuws18xu)" height="48" id="MonoBehaviour" style="stroke: #A80036; stroke-width: 1.5;" width="128" x="138.24" y="8"/><ellipse cx="153.24" cy="24" fill="#ADD1B2" rx="11" ry="11" style="stroke: #A80036; stroke-width: 1.0;"/><path d="M156.2088,29.6406 Q155.6306,29.9375 154.99,30.0781 Q154.3494,30.2344 153.6463,30.2344 Q151.1463,30.2344 149.8181,28.5938 Q148.5056,26.9375 148.5056,23.8125 Q148.5056,20.6875 149.8181,19.0313 Q151.1463,17.375 153.6463,17.375 Q154.3494,17.375 154.99,17.5313 Q155.6463,17.6875 156.2088,17.9844 L156.2088,20.7031 Q155.5838,20.125 154.99,19.8594 Q154.3963,19.5781 153.7713,19.5781 Q152.4275,19.5781 151.74,20.6563 Q151.0525,21.7188 151.0525,23.8125 Q151.0525,25.9063 151.74,26.9844 Q152.4275,28.0469 153.7713,28.0469 Q154.3963,28.0469 154.99,27.7813 Q155.5838,27.5 156.2088,26.9219 L156.2088,29.6406 Z "/><text fill="#000000" font-family="sans-serif" font-size="12" lengthAdjust="spacingAndGlyphs" textLength="96" x="167.24" y="28.1543">MonoBehaviour</text><line style="stroke: #A80036; stroke-width: 1.5;" x1="139.24" x2="265.24" y1="40" y2="40"/><line style="stroke: #A80036; stroke-width: 1.5;" x1="139.24" x2="265.24" y1="48" y2="48"/><!--MD5=[9541084ddaa1fec56a549847ca84025a]
class Rigidbody2D--><rect fill="#FEFECE" filter="url(#fk0xqxuws18xu)" height="48" id="Rigidbody2D" style="stroke: #A80036; stroke-width: 1.5;" width="109" x="17.74" y="275"/><ellipse cx="32.74" cy="291" fill="#ADD1B2" rx="11" ry="11" style="stroke: #A80036; stroke-width: 1.0;"/><path d="M35.7088,296.6406 Q35.1306,296.9375 34.49,297.0781 Q33.8494,297.2344 33.1463,297.2344 Q30.6463,297.2344 29.3181,295.5938 Q28.0056,293.9375 28.0056,290.8125 Q28.0056,287.6875 29.3181,286.0313 Q30.6463,284.375 33.1463,284.375 Q33.8494,284.375 34.49,284.5313 Q35.1463,284.6875 35.7088,284.9844 L35.7088,287.7031 Q35.0838,287.125 34.49,286.8594 Q33.8963,286.5781 33.2713,286.5781 Q31.9275,286.5781 31.24,287.6563 Q30.5525,288.7188 30.5525,290.8125 Q30.5525,292.9063 31.24,293.9844 Q31.9275,295.0469 33.2713,295.0469 Q33.8963,295.0469 34.49,294.7813 Q35.0838,294.5 35.7088,293.9219 L35.7088,296.6406 Z "/><text fill="#000000" font-family="sans-serif" font-size="12" lengthAdjust="spacingAndGlyphs" textLength="77" x="46.74" y="295.1543">Rigidbody2D</text><line style="stroke: #A80036; stroke-width: 1.5;" x1="18.74" x2="125.74" y1="307" y2="307"/><line style="stroke: #A80036; stroke-width: 1.5;" x1="18.74" x2="125.74" y1="315" y2="315"/><!--MD5=[3f551f1273bbfa514d2f681c1c48b5c1]
class Vector2--><rect fill="#FEFECE" filter="url(#fk0xqxuws18xu)" height="48" id="Vector2" style="stroke: #A80036; stroke-width: 1.5;" width="81" x="161.74" y="275"/><ellipse cx="176.74" cy="291" fill="#ADD1B2" rx="11" ry="11" style="stroke: #A80036; stroke-width: 1.0;"/><path d="M179.7088,296.6406 Q179.1306,296.9375 178.49,297.0781 Q177.8494,297.2344 177.1463,297.2344 Q174.6463,297.2344 173.3181,295.5938 Q172.0056,293.9375 172.0056,290.8125 Q172.0056,287.6875 173.3181,286.0313 Q174.6463,284.375 177.1463,284.375 Q177.8494,284.375 178.49,284.5313 Q179.1463,284.6875 179.7088,284.9844 L179.7088,287.7031 Q179.0838,287.125 178.49,286.8594 Q177.8963,286.5781 177.2713,286.5781 Q175.9275,286.5781 175.24,287.6563 Q174.5525,288.7188 174.5525,290.8125 Q174.5525,292.9063 175.24,293.9844 Q175.9275,295.0469 177.2713,295.0469 Q177.8963,295.0469 178.49,294.7813 Q179.0838,294.5 179.7088,293.9219 L179.7088,296.6406 Z "/><text fill="#000000" font-family="sans-serif" font-size="12" lengthAdjust="spacingAndGlyphs" textLength="49" x="190.74" y="295.1543">Vector2</text><line style="stroke: #A80036; stroke-width: 1.5;" x1="162.74" x2="241.74" y1="307" y2="307"/><line style="stroke: #A80036; stroke-width: 1.5;" x1="162.74" x2="241.74" y1="315" y2="315"/><!--MD5=[8b805049d0499e23d33da8a1efc9f54d]
class Animator--><rect fill="#FEFECE" filter="url(#fk0xqxuws18xu)" height="48" id="Animator" style="stroke: #A80036; stroke-width: 1.5;" width="88" x="278.24" y="275"/><ellipse cx="293.24" cy="291" fill="#ADD1B2" rx="11" ry="11" style="stroke: #A80036; stroke-width: 1.0;"/><path d="M296.2088,296.6406 Q295.6306,296.9375 294.99,297.0781 Q294.3494,297.2344 293.6463,297.2344 Q291.1463,297.2344 289.8181,295.5938 Q288.5056,293.9375 288.5056,290.8125 Q288.5056,287.6875 289.8181,286.0313 Q291.1463,284.375 293.6463,284.375 Q294.3494,284.375 294.99,284.5313 Q295.6463,284.6875 296.2088,284.9844 L296.2088,287.7031 Q295.5838,287.125 294.99,286.8594 Q294.3963,286.5781 293.7713,286.5781 Q292.4275,286.5781 291.74,287.6563 Q291.0525,288.7188 291.0525,290.8125 Q291.0525,292.9063 291.74,293.9844 Q292.4275,295.0469 293.7713,295.0469 Q294.3963,295.0469 294.99,294.7813 Q295.5838,294.5 296.2088,293.9219 L296.2088,296.6406 Z "/><text fill="#000000" font-family="sans-serif" font-size="12" lengthAdjust="spacingAndGlyphs" textLength="56" x="307.24" y="295.1543">Animator</text><line style="stroke: #A80036; stroke-width: 1.5;" x1="279.24" x2="365.24" y1="307" y2="307"/><line style="stroke: #A80036; stroke-width: 1.5;" x1="279.24" x2="365.24" y1="315" y2="315"/><!--MD5=[43dde548947853967bddc77d78179c35]
reverse link MonoBehaviour to CharacterController2D--><path d="M202.24,76.51 C202.24,89.14 202.24,103.01 202.24,115.93 " fill="none" id="MonoBehaviour&lt;-CharacterController2D" style="stroke: #A80036; stroke-width: 1.0;"/><polygon fill="none" points="195.24,76.21,202.24,56.21,209.24,76.21,195.24,76.21" style="stroke: #A80036; stroke-width: 1.0;"/><!--MD5=[2502133a9a70a8bde48db5c0d5bc01ae]
link CharacterController2D to Rigidbody2D--><path d="M154.2,215.09 C135.37,234.14 114.5,255.25 98.54,271.4 " fill="none" id="CharacterController2D-&gt;Rigidbody2D" style="stroke: #A80036; stroke-width: 1.0;"/><polygon fill="#A80036" points="95,274.98,104.1708,271.3888,98.514,271.4231,98.4798,265.7664,95,274.98" style="stroke: #A80036; stroke-width: 1.0;"/><text fill="#000000" font-family="sans-serif" font-size="13" lengthAdjust="spacingAndGlyphs" textLength="74" x="17.351" y="263.9869">rigidbody2d</text><!--MD5=[ce0f56b2771d884e099dbaba46d6f910]
link CharacterController2D to Vector2--><path d="M189.88,215.09 C189.02,233.5 189.58,253.83 191.55,269.75 " fill="none" id="CharacterController2D-&gt;Vector2" style="stroke: #A80036; stroke-width: 1.0;"/><polygon fill="#A80036" points="192.27,274.98,194.9991,265.5168,191.5849,270.0272,187.0745,266.613,192.27,274.98" style="stroke: #A80036; stroke-width: 1.0;"/><text fill="#000000" font-family="sans-serif" font-size="13" lengthAdjust="spacingAndGlyphs" textLength="87" x="124.8279" y="263.9252">motionVector</text><!--MD5=[ce0f56b2771d884e099dbaba46d6f910]
link CharacterController2D to Vector2--><path d="M215.32,215.09 C216.24,233.5 215.65,253.83 213.56,269.75 " fill="none" id="CharacterController2D-&gt;Vector2-1" style="stroke: #A80036; stroke-width: 1.0;"/><polygon fill="#A80036" points="212.79,274.98,218.0361,266.6446,213.5051,270.0314,210.1183,265.5004,212.79,274.98" style="stroke: #A80036; stroke-width: 1.0;"/><text fill="#000000" font-family="sans-serif" font-size="13" lengthAdjust="spacingAndGlyphs" textLength="108" x="229.2701" y="263.9252">lastMotionVector</text><!--MD5=[792a52886c3366f7df6f4f2ee4ab3be1]
link CharacterController2D to Animator--><path d="M246.58,215.09 C263.82,233.98 282.9,254.89 297.59,270.99 " fill="none" id="CharacterController2D-&gt;Animator" style="stroke: #A80036; stroke-width: 1.0;"/><polygon fill="#A80036" points="301.23,274.98,298.1069,265.6394,297.8553,271.2907,292.204,271.039,301.23,274.98" style="stroke: #A80036; stroke-width: 1.0;"/><text fill="#000000" font-family="sans-serif" font-size="13" lengthAdjust="spacingAndGlyphs" textLength="58" x="303.2774" y="263.9869">animator</text><!--MD5=[cfb2ee7f283f2617164302d133f41208]
@startuml
class CharacterController2D {
    speed : float = 2f
    + moving : bool
    Awake() : void
    FixedUpdate() : void
}
MonoBehaviour <|- - CharacterController2D
CharacterController2D - -> "rigidbody2d" Rigidbody2D
CharacterController2D - -> "motionVector" Vector2
CharacterController2D - -> "lastMotionVector" Vector2
CharacterController2D - -> "animator" Animator
@enduml

PlantUML version 1.2020.02(Sun Mar 01 10:22:07 GMT 2020)
(GPL source distribution)
Java Runtime: OpenJDK Runtime Environment
JVM: OpenJDK 64-Bit Server VM
Java Version: 11.0.9+11-Ubuntu-0ubuntu1
Operating System: Linux
Default Encoding: ANSI_X3.4-1968
Language: en
Country: US
--></g></svg>