<?xml version="1.0" encoding="UTF-8" standalone="no"?><svg xmlns="http://www.w3.org/2000/svg" xmlns:xlink="http://www.w3.org/1999/xlink" contentScriptType="application/ecmascript" contentStyleType="text/css" height="398px" preserveAspectRatio="none" style="width:277px;height:398px;" version="1.1" viewBox="0 0 277 398" width="277px" zoomAndPan="magnify"><defs><filter height="300%" id="f1iamyc58j1tcb" width="300%" x="-1" y="-1"><feGaussianBlur result="blurOut" stdDeviation="2.0"/><feColorMatrix in="blurOut" result="blurOut2" type="matrix" values="0 0 0 0 0 0 0 0 0 0 0 0 0 0 0 0 0 0 .4 0"/><feOffset dx="4.0" dy="4.0" in="blurOut2" result="blurOut3"/><feBlend in="SourceGraphic" in2="blurOut3" mode="normal"/></filter></defs><g><!--MD5=[728b6bd734d773e981f4f3cc64b0a59b]
class Enemy3--><rect fill="#FEFECE" filter="url(#f1iamyc58j1tcb)" height="163.2422" id="Enemy3" style="stroke: #A80036; stroke-width: 1.5;" width="260" x="6" y="116"/><ellipse cx="107.25" cy="132" fill="#ADD1B2" rx="11" ry="11" style="stroke: #A80036; stroke-width: 1.0;"/><path d="M110.2188,137.6406 Q109.6406,137.9375 109,138.0781 Q108.3594,138.2344 107.6563,138.2344 Q105.1563,138.2344 103.8281,136.5938 Q102.5156,134.9375 102.5156,131.8125 Q102.5156,128.6875 103.8281,127.0313 Q105.1563,125.375 107.6563,125.375 Q108.3594,125.375 109,125.5313 Q109.6563,125.6875 110.2188,125.9844 L110.2188,128.7031 Q109.5938,128.125 109,127.8594 Q108.4063,127.5781 107.7813,127.5781 Q106.4375,127.5781 105.75,128.6563 Q105.0625,129.7188 105.0625,131.8125 Q105.0625,133.9063 105.75,134.9844 Q106.4375,136.0469 107.7813,136.0469 Q108.4063,136.0469 109,135.7813 Q109.5938,135.5 110.2188,134.9219 L110.2188,137.6406 Z "/><text fill="#000000" font-family="sans-serif" font-size="12" lengthAdjust="spacingAndGlyphs" textLength="49" x="127.75" y="136.1543">Enemy3</text><line style="stroke: #A80036; stroke-width: 1.5;" x1="7" x2="265" y1="148" y2="148"/><ellipse cx="17" cy="159" fill="none" rx="3" ry="3" style="stroke: #038048; stroke-width: 1.0;"/><text fill="#000000" font-family="sans-serif" font-size="11" lengthAdjust="spacingAndGlyphs" textLength="132" x="26" y="162.2104">moveSpeed : float = 5f</text><line style="stroke: #A80036; stroke-width: 1.5;" x1="7" x2="265" y1="168.8047" y2="168.8047"/><ellipse cx="17" cy="179.8047" fill="#84BE84" rx="3" ry="3" style="stroke: #038048; stroke-width: 1.0;"/><text fill="#000000" font-family="sans-serif" font-size="11" lengthAdjust="spacingAndGlyphs" textLength="161" x="26" y="183.0151">setHealth(health:float) : void</text><ellipse cx="17" cy="192.6094" fill="#84BE84" rx="3" ry="3" style="stroke: #038048; stroke-width: 1.0;"/><text fill="#000000" font-family="sans-serif" font-size="11" lengthAdjust="spacingAndGlyphs" textLength="99" x="26" y="195.8198">getHealth() : float</text><text fill="#000000" font-family="sans-serif" font-size="11" lengthAdjust="spacingAndGlyphs" textLength="218" x="26" y="208.6245">getMovement(player:Transform) : void</text><text fill="#000000" font-family="sans-serif" font-size="11" lengthAdjust="spacingAndGlyphs" textLength="206" x="26" y="221.4292">MoveEnemy(direction:Vector2) : void</text><text fill="#000000" font-family="sans-serif" font-size="11" lengthAdjust="spacingAndGlyphs" textLength="234" x="26" y="234.2339">AnimateEnemy(movement:Vector2) : void</text><ellipse cx="17" cy="243.8281" fill="#84BE84" rx="3" ry="3" style="stroke: #038048; stroke-width: 1.0;"/><text fill="#000000" font-family="sans-serif" font-size="11" lengthAdjust="spacingAndGlyphs" textLength="194" x="26" y="247.0386">TakeDamage(damage:float) : float</text><ellipse cx="17" cy="256.6328" fill="#84BE84" rx="3" ry="3" style="stroke: #038048; stroke-width: 1.0;"/><text fill="#000000" font-family="sans-serif" font-size="11" lengthAdjust="spacingAndGlyphs" textLength="61" x="26" y="259.8433">Die() : void</text><ellipse cx="17" cy="269.4375" fill="#84BE84" rx="3" ry="3" style="stroke: #038048; stroke-width: 1.0;"/><text fill="#000000" font-family="sans-serif" font-size="11" lengthAdjust="spacingAndGlyphs" textLength="176" x="26" y="272.6479">Attack(player:Transform) : void</text><!--MD5=[83b3cf3d23d77c6f1e1b5291a241bc2a]
class MonoBehaviour--><rect fill="#FEFECE" filter="url(#f1iamyc58j1tcb)" height="48" id="MonoBehaviour" style="stroke: #A80036; stroke-width: 1.5;" width="128" x="72" y="8"/><ellipse cx="87" cy="24" fill="#ADD1B2" rx="11" ry="11" style="stroke: #A80036; stroke-width: 1.0;"/><path d="M89.9688,29.6406 Q89.3906,29.9375 88.75,30.0781 Q88.1094,30.2344 87.4063,30.2344 Q84.9063,30.2344 83.5781,28.5938 Q82.2656,26.9375 82.2656,23.8125 Q82.2656,20.6875 83.5781,19.0313 Q84.9063,17.375 87.4063,17.375 Q88.1094,17.375 88.75,17.5313 Q89.4063,17.6875 89.9688,17.9844 L89.9688,20.7031 Q89.3438,20.125 88.75,19.8594 Q88.1563,19.5781 87.5313,19.5781 Q86.1875,19.5781 85.5,20.6563 Q84.8125,21.7188 84.8125,23.8125 Q84.8125,25.9063 85.5,26.9844 Q86.1875,28.0469 87.5313,28.0469 Q88.1563,28.0469 88.75,27.7813 Q89.3438,27.5 89.9688,26.9219 L89.9688,29.6406 Z "/><text fill="#000000" font-family="sans-serif" font-size="12" lengthAdjust="spacingAndGlyphs" textLength="96" x="101" y="28.1543">MonoBehaviour</text><line style="stroke: #A80036; stroke-width: 1.5;" x1="73" x2="199" y1="40" y2="40"/><line style="stroke: #A80036; stroke-width: 1.5;" x1="73" x2="199" y1="48" y2="48"/><!--MD5=[004b1d6c4ca8aad4ba8b586a335ed4f3]
class Transform--><rect fill="#FEFECE" filter="url(#f1iamyc58j1tcb)" height="48" id="Transform" style="stroke: #A80036; stroke-width: 1.5;" width="95" x="88.5" y="339"/><ellipse cx="103.5" cy="355" fill="#ADD1B2" rx="11" ry="11" style="stroke: #A80036; stroke-width: 1.0;"/><path d="M106.4688,360.6406 Q105.8906,360.9375 105.25,361.0781 Q104.6094,361.2344 103.9063,361.2344 Q101.4063,361.2344 100.0781,359.5938 Q98.7656,357.9375 98.7656,354.8125 Q98.7656,351.6875 100.0781,350.0313 Q101.4063,348.375 103.9063,348.375 Q104.6094,348.375 105.25,348.5313 Q105.9063,348.6875 106.4688,348.9844 L106.4688,351.7031 Q105.8438,351.125 105.25,350.8594 Q104.6563,350.5781 104.0313,350.5781 Q102.6875,350.5781 102,351.6563 Q101.3125,352.7188 101.3125,354.8125 Q101.3125,356.9063 102,357.9844 Q102.6875,359.0469 104.0313,359.0469 Q104.6563,359.0469 105.25,358.7813 Q105.8438,358.5 106.4688,357.9219 L106.4688,360.6406 Z "/><text fill="#000000" font-family="sans-serif" font-size="12" lengthAdjust="spacingAndGlyphs" textLength="63" x="117.5" y="359.1543">Transform</text><line style="stroke: #A80036; stroke-width: 1.5;" x1="89.5" x2="182.5" y1="371" y2="371"/><line style="stroke: #A80036; stroke-width: 1.5;" x1="89.5" x2="182.5" y1="379" y2="379"/><!--MD5=[6482eff5f9b828b72759542d2d2e8f8e]
reverse link MonoBehaviour to Enemy3--><path d="M136,76.19 C136,88.45 136,102.21 136,115.93 " fill="none" id="MonoBehaviour&lt;-Enemy3" style="stroke: #A80036; stroke-width: 1.0;"/><polygon fill="none" points="129,76.08,136,56.08,143,76.08,129,76.08" style="stroke: #A80036; stroke-width: 1.0;"/><!--MD5=[3617f761717a9ab3d33b83c2ff2765f4]
link Enemy3 to Transform--><path d="M136,279.29 C136,298.78 136,318.34 136,333.55 " fill="none" id="Enemy3-&gt;Transform" style="stroke: #A80036; stroke-width: 1.0;"/><polygon fill="#A80036" points="136,338.94,140,329.94,136,333.94,132,329.94,136,338.94" style="stroke: #A80036; stroke-width: 1.0;"/><text fill="#000000" font-family="sans-serif" font-size="13" lengthAdjust="spacingAndGlyphs" textLength="39" x="92.0031" y="327.9367">player</text><!--MD5=[ac3fef0de0bc229d5a373492d694ffac]
@startuml
class Enemy3 {
    + moveSpeed : float = 5f
    + setHealth(health:float) : void
    + getHealth() : float
    getMovement(player:Transform) : void
    MoveEnemy(direction:Vector2) : void
    AnimateEnemy(movement:Vector2) : void
    + TakeDamage(damage:float) : float
    + Die() : void
    + Attack(player:Transform) : void
}
MonoBehaviour <|- - Enemy3
Enemy3 - -> "player" Transform
@enduml

PlantUML version 1.2020.02(Sun Mar 01 10:22:07 GMT 2020)
(GPL source distribution)
Java Runtime: OpenJDK Runtime Environment
JVM: OpenJDK 64-Bit Server VM
Java Version: 11.0.9+11-Ubuntu-0ubuntu1
Operating System: Linux
Default Encoding: ANSI_X3.4-1968
Language: en
Country: US
--></g></svg>