<?xml version="1.0" encoding="UTF-8" standalone="no"?><svg xmlns="http://www.w3.org/2000/svg" xmlns:xlink="http://www.w3.org/1999/xlink" contentScriptType="application/ecmascript" contentStyleType="text/css" height="385px" preserveAspectRatio="none" style="width:279px;height:385px;" version="1.1" viewBox="0 0 279 385" width="279px" zoomAndPan="magnify"><defs><filter height="300%" id="f1v2jch9fi4n51" width="300%" x="-1" y="-1"><feGaussianBlur result="blurOut" stdDeviation="2.0"/><feColorMatrix in="blurOut" result="blurOut2" type="matrix" values="0 0 0 0 0 0 0 0 0 0 0 0 0 0 0 0 0 0 .4 0"/><feOffset dx="4.0" dy="4.0" in="blurOut2" result="blurOut3"/><feBlend in="SourceGraphic" in2="blurOut3" mode="normal"/></filter></defs><g><!--MD5=[813a1cf0bc429374d23e8c301ee82cda]
class EXPBAR--><rect fill="#FEFECE" filter="url(#f1v2jch9fi4n51)" height="150.4375" id="EXPBAR" style="stroke: #A80036; stroke-width: 1.5;" width="256" x="12.71" y="116"/><ellipse cx="112.96" cy="132" fill="#ADD1B2" rx="11" ry="11" style="stroke: #A80036; stroke-width: 1.0;"/><path d="M115.9288,137.6406 Q115.3506,137.9375 114.71,138.0781 Q114.0694,138.2344 113.3663,138.2344 Q110.8663,138.2344 109.5381,136.5938 Q108.2256,134.9375 108.2256,131.8125 Q108.2256,128.6875 109.5381,127.0313 Q110.8663,125.375 113.3663,125.375 Q114.0694,125.375 114.71,125.5313 Q115.3663,125.6875 115.9288,125.9844 L115.9288,128.7031 Q115.3038,128.125 114.71,127.8594 Q114.1163,127.5781 113.4913,127.5781 Q112.1475,127.5781 111.46,128.6563 Q110.7725,129.7188 110.7725,131.8125 Q110.7725,133.9063 111.46,134.9844 Q112.1475,136.0469 113.4913,136.0469 Q114.1163,136.0469 114.71,135.7813 Q115.3038,135.5 115.9288,134.9219 L115.9288,137.6406 Z "/><text fill="#000000" font-family="sans-serif" font-size="12" lengthAdjust="spacingAndGlyphs" textLength="47" x="133.46" y="136.1543">EXPBAR</text><line style="stroke: #A80036; stroke-width: 1.5;" x1="13.71" x2="267.71" y1="148" y2="148"/><ellipse cx="23.71" cy="159" fill="none" rx="3" ry="3" style="stroke: #038048; stroke-width: 1.0;"/><text fill="#000000" font-family="sans-serif" font-size="11" lengthAdjust="spacingAndGlyphs" textLength="52" x="32.71" y="162.2104">level : int</text><ellipse cx="23.71" cy="171.8047" fill="none" rx="3" ry="3" style="stroke: #038048; stroke-width: 1.0;"/><text fill="#000000" font-family="sans-serif" font-size="11" lengthAdjust="spacingAndGlyphs" textLength="135" x="32.71" y="175.0151">experience : float «get»</text><line style="stroke: #A80036; stroke-width: 1.5;" x1="13.71" x2="267.71" y1="181.6094" y2="181.6094"/><text fill="#000000" font-family="sans-serif" font-size="11" lengthAdjust="spacingAndGlyphs" textLength="71" x="32.71" y="195.8198">Start() : void</text><text fill="#000000" font-family="sans-serif" font-size="11" lengthAdjust="spacingAndGlyphs" textLength="83" x="32.71" y="208.6245">Update() : void</text><ellipse cx="23.71" cy="218.2188" fill="#84BE84" rx="3" ry="3" style="stroke: #038048; stroke-width: 1.0;"/><text fill="#000000" font-family="sans-serif" font-size="11" lengthAdjust="spacingAndGlyphs" textLength="230" x="32.71" y="221.4292">EXPNeedToLevelUp(currentLevel:int) : int</text><ellipse cx="23.71" cy="231.0234" fill="#84BE84" rx="3" ry="3" style="stroke: #038048; stroke-width: 1.0;"/><text fill="#000000" font-family="sans-serif" font-size="11" lengthAdjust="spacingAndGlyphs" textLength="146" x="32.71" y="234.2339">AddEXP(amount:int) : void</text><ellipse cx="23.71" cy="243.8281" fill="#84BE84" rx="3" ry="3" style="stroke: #038048; stroke-width: 1.0;"/><text fill="#000000" font-family="sans-serif" font-size="11" lengthAdjust="spacingAndGlyphs" textLength="113" x="32.71" y="247.0386">DisplayLevel() : void</text><ellipse cx="23.71" cy="256.6328" fill="#84BE84" rx="3" ry="3" style="stroke: #038048; stroke-width: 1.0;"/><text fill="#000000" font-family="sans-serif" font-size="11" lengthAdjust="spacingAndGlyphs" textLength="87" x="32.71" y="259.8433">LevelUp() : void</text><!--MD5=[83b3cf3d23d77c6f1e1b5291a241bc2a]
class MonoBehaviour--><rect fill="#FEFECE" filter="url(#f1v2jch9fi4n51)" height="48" id="MonoBehaviour" style="stroke: #A80036; stroke-width: 1.5;" width="128" x="76.71" y="8"/><ellipse cx="91.71" cy="24" fill="#ADD1B2" rx="11" ry="11" style="stroke: #A80036; stroke-width: 1.0;"/><path d="M94.6788,29.6406 Q94.1006,29.9375 93.46,30.0781 Q92.8194,30.2344 92.1163,30.2344 Q89.6163,30.2344 88.2881,28.5938 Q86.9756,26.9375 86.9756,23.8125 Q86.9756,20.6875 88.2881,19.0313 Q89.6163,17.375 92.1163,17.375 Q92.8194,17.375 93.46,17.5313 Q94.1163,17.6875 94.6788,17.9844 L94.6788,20.7031 Q94.0538,20.125 93.46,19.8594 Q92.8663,19.5781 92.2413,19.5781 Q90.8975,19.5781 90.21,20.6563 Q89.5225,21.7188 89.5225,23.8125 Q89.5225,25.9063 90.21,26.9844 Q90.8975,28.0469 92.2413,28.0469 Q92.8663,28.0469 93.46,27.7813 Q94.0538,27.5 94.6788,26.9219 L94.6788,29.6406 Z "/><text fill="#000000" font-family="sans-serif" font-size="12" lengthAdjust="spacingAndGlyphs" textLength="96" x="105.71" y="28.1543">MonoBehaviour</text><line style="stroke: #A80036; stroke-width: 1.5;" x1="77.71" x2="203.71" y1="40" y2="40"/><line style="stroke: #A80036; stroke-width: 1.5;" x1="77.71" x2="203.71" y1="48" y2="48"/><!--MD5=[fa07864ef55e7d1943fa981e1ee9b4e7]
class TMP_Text--><rect fill="#FEFECE" filter="url(#f1v2jch9fi4n51)" height="48" id="TMP_Text" style="stroke: #A80036; stroke-width: 1.5;" width="89" x="40.21" y="326"/><ellipse cx="55.21" cy="342" fill="#ADD1B2" rx="11" ry="11" style="stroke: #A80036; stroke-width: 1.0;"/><path d="M58.1788,347.6406 Q57.6006,347.9375 56.96,348.0781 Q56.3194,348.2344 55.6163,348.2344 Q53.1163,348.2344 51.7881,346.5938 Q50.4756,344.9375 50.4756,341.8125 Q50.4756,338.6875 51.7881,337.0313 Q53.1163,335.375 55.6163,335.375 Q56.3194,335.375 56.96,335.5313 Q57.6163,335.6875 58.1788,335.9844 L58.1788,338.7031 Q57.5538,338.125 56.96,337.8594 Q56.3663,337.5781 55.7413,337.5781 Q54.3975,337.5781 53.71,338.6563 Q53.0225,339.7188 53.0225,341.8125 Q53.0225,343.9063 53.71,344.9844 Q54.3975,346.0469 55.7413,346.0469 Q56.3663,346.0469 56.96,345.7813 Q57.5538,345.5 58.1788,344.9219 L58.1788,347.6406 Z "/><text fill="#000000" font-family="sans-serif" font-size="12" lengthAdjust="spacingAndGlyphs" textLength="57" x="69.21" y="346.1543">TMP_Text</text><line style="stroke: #A80036; stroke-width: 1.5;" x1="41.21" x2="128.21" y1="358" y2="358"/><line style="stroke: #A80036; stroke-width: 1.5;" x1="41.21" x2="128.21" y1="366" y2="366"/><!--MD5=[5b63724585581d1714c92cb3ec182af9]
class Slider--><rect fill="#FEFECE" filter="url(#f1v2jch9fi4n51)" height="48" id="Slider" style="stroke: #A80036; stroke-width: 1.5;" width="67" x="164.21" y="326"/><ellipse cx="179.21" cy="342" fill="#ADD1B2" rx="11" ry="11" style="stroke: #A80036; stroke-width: 1.0;"/><path d="M182.1788,347.6406 Q181.6006,347.9375 180.96,348.0781 Q180.3194,348.2344 179.6163,348.2344 Q177.1163,348.2344 175.7881,346.5938 Q174.4756,344.9375 174.4756,341.8125 Q174.4756,338.6875 175.7881,337.0313 Q177.1163,335.375 179.6163,335.375 Q180.3194,335.375 180.96,335.5313 Q181.6163,335.6875 182.1788,335.9844 L182.1788,338.7031 Q181.5538,338.125 180.96,337.8594 Q180.3663,337.5781 179.7413,337.5781 Q178.3975,337.5781 177.71,338.6563 Q177.0225,339.7188 177.0225,341.8125 Q177.0225,343.9063 177.71,344.9844 Q178.3975,346.0469 179.7413,346.0469 Q180.3663,346.0469 180.96,345.7813 Q181.5538,345.5 182.1788,344.9219 L182.1788,347.6406 Z "/><text fill="#000000" font-family="sans-serif" font-size="12" lengthAdjust="spacingAndGlyphs" textLength="35" x="193.21" y="346.1543">Slider</text><line style="stroke: #A80036; stroke-width: 1.5;" x1="165.21" x2="230.21" y1="358" y2="358"/><line style="stroke: #A80036; stroke-width: 1.5;" x1="165.21" x2="230.21" y1="366" y2="366"/><!--MD5=[53f311173747269835403d3e410fa8a4]
reverse link MonoBehaviour to EXPBAR--><path d="M140.71,76.38 C140.71,88.67 140.71,102.4 140.71,115.96 " fill="none" id="MonoBehaviour&lt;-EXPBAR" style="stroke: #A80036; stroke-width: 1.0;"/><polygon fill="none" points="133.71,76.17,140.71,56.17,147.71,76.17,133.71,76.17" style="stroke: #A80036; stroke-width: 1.0;"/><!--MD5=[1c932fff8ecef5dced53101d211a1a1a]
link EXPBAR to TMP_Text--><path d="M114.19,266.36 C107.28,285.73 100.25,305.44 94.79,320.74 " fill="none" id="EXPBAR-&gt;TMP_Text" style="stroke: #A80036; stroke-width: 1.0;"/><polygon fill="#A80036" points="93,325.76,99.7967,318.6323,94.6835,321.0519,92.2638,315.9387,93,325.76" style="stroke: #A80036; stroke-width: 1.0;"/><text fill="#000000" font-family="sans-serif" font-size="13" lengthAdjust="spacingAndGlyphs" textLength="72" x="14.2457" y="315.1065">playerLevel</text><!--MD5=[46fa9917ab02fdb40cf15bd74496f8ad]
link EXPBAR to Slider--><path d="M167.71,266.36 C174.74,285.73 181.89,305.44 187.45,320.74 " fill="none" id="EXPBAR-&gt;Slider" style="stroke: #A80036; stroke-width: 1.0;"/><polygon fill="#A80036" points="189.27,325.76,189.9439,315.9342,187.5567,321.0627,182.4282,318.6755,189.27,325.76" style="stroke: #A80036; stroke-width: 1.0;"/><text fill="#000000" font-family="sans-serif" font-size="13" lengthAdjust="spacingAndGlyphs" textLength="34" x="149.069" y="315.1065">slider</text><!--MD5=[57415abf301a313eea48662ee063e127]
@startuml
class EXPBAR {
    + level : int
    + experience : float <<get>>
    Start() : void
    Update() : void
    + EXPNeedToLevelUp(currentLevel:int) : int
    + AddEXP(amount:int) : void
    + DisplayLevel() : void
    + LevelUp() : void
}
MonoBehaviour <|- - EXPBAR
EXPBAR - -> "playerLevel" TMP_Text
EXPBAR - -> "slider" Slider
@enduml

PlantUML version 1.2020.02(Sun Mar 01 10:22:07 GMT 2020)
(GPL source distribution)
Java Runtime: OpenJDK Runtime Environment
JVM: OpenJDK 64-Bit Server VM
Java Version: 11.0.9+11-Ubuntu-0ubuntu1
Operating System: Linux
Default Encoding: ANSI_X3.4-1968
Language: en
Country: US
--></g></svg>