<?xml version="1.0" encoding="UTF-8" standalone="no"?><svg xmlns="http://www.w3.org/2000/svg" xmlns:xlink="http://www.w3.org/1999/xlink" contentScriptType="application/ecmascript" contentStyleType="text/css" height="296px" preserveAspectRatio="none" style="width:145px;height:296px;" version="1.1" viewBox="0 0 145 296" width="145px" zoomAndPan="magnify"><defs><filter height="300%" id="f19uv8hsobp10d" width="300%" x="-1" y="-1"><feGaussianBlur result="blurOut" stdDeviation="2.0"/><feColorMatrix in="blurOut" result="blurOut2" type="matrix" values="0 0 0 0 0 0 0 0 0 0 0 0 0 0 0 0 0 0 .4 0"/><feOffset dx="4.0" dy="4.0" in="blurOut2" result="blurOut3"/><feBlend in="SourceGraphic" in2="blurOut3" mode="normal"/></filter></defs><g><!--MD5=[83e68ee100a200cb9664da8f25285f2a]
class FollowPlayer--><rect fill="#FEFECE" filter="url(#f19uv8hsobp10d)" height="60.8047" id="FollowPlayer" style="stroke: #A80036; stroke-width: 1.5;" width="119" x="10.5" y="116"/><ellipse cx="30.45" cy="132" fill="#ADD1B2" rx="11" ry="11" style="stroke: #A80036; stroke-width: 1.0;"/><path d="M33.4188,137.6406 Q32.8406,137.9375 32.2,138.0781 Q31.5594,138.2344 30.8563,138.2344 Q28.3563,138.2344 27.0281,136.5938 Q25.7156,134.9375 25.7156,131.8125 Q25.7156,128.6875 27.0281,127.0313 Q28.3563,125.375 30.8563,125.375 Q31.5594,125.375 32.2,125.5313 Q32.8563,125.6875 33.4188,125.9844 L33.4188,128.7031 Q32.7938,128.125 32.2,127.8594 Q31.6063,127.5781 30.9813,127.5781 Q29.6375,127.5781 28.95,128.6563 Q28.2625,129.7188 28.2625,131.8125 Q28.2625,133.9063 28.95,134.9844 Q29.6375,136.0469 30.9813,136.0469 Q31.6063,136.0469 32.2,135.7813 Q32.7938,135.5 33.4188,134.9219 L33.4188,137.6406 Z "/><text fill="#000000" font-family="sans-serif" font-size="12" lengthAdjust="spacingAndGlyphs" textLength="76" x="45.55" y="136.1543">FollowPlayer</text><line style="stroke: #A80036; stroke-width: 1.5;" x1="11.5" x2="128.5" y1="148" y2="148"/><line style="stroke: #A80036; stroke-width: 1.5;" x1="11.5" x2="128.5" y1="156" y2="156"/><text fill="#000000" font-family="sans-serif" font-size="11" lengthAdjust="spacingAndGlyphs" textLength="107" x="16.5" y="170.2104">LateUpdate() : void</text><!--MD5=[83b3cf3d23d77c6f1e1b5291a241bc2a]
class MonoBehaviour--><rect fill="#FEFECE" filter="url(#f19uv8hsobp10d)" height="48" id="MonoBehaviour" style="stroke: #A80036; stroke-width: 1.5;" width="128" x="6" y="8"/><ellipse cx="21" cy="24" fill="#ADD1B2" rx="11" ry="11" style="stroke: #A80036; stroke-width: 1.0;"/><path d="M23.9688,29.6406 Q23.3906,29.9375 22.75,30.0781 Q22.1094,30.2344 21.4063,30.2344 Q18.9063,30.2344 17.5781,28.5938 Q16.2656,26.9375 16.2656,23.8125 Q16.2656,20.6875 17.5781,19.0313 Q18.9063,17.375 21.4063,17.375 Q22.1094,17.375 22.75,17.5313 Q23.4063,17.6875 23.9688,17.9844 L23.9688,20.7031 Q23.3438,20.125 22.75,19.8594 Q22.1563,19.5781 21.5313,19.5781 Q20.1875,19.5781 19.5,20.6563 Q18.8125,21.7188 18.8125,23.8125 Q18.8125,25.9063 19.5,26.9844 Q20.1875,28.0469 21.5313,28.0469 Q22.1563,28.0469 22.75,27.7813 Q23.3438,27.5 23.9688,26.9219 L23.9688,29.6406 Z "/><text fill="#000000" font-family="sans-serif" font-size="12" lengthAdjust="spacingAndGlyphs" textLength="96" x="35" y="28.1543">MonoBehaviour</text><line style="stroke: #A80036; stroke-width: 1.5;" x1="7" x2="133" y1="40" y2="40"/><line style="stroke: #A80036; stroke-width: 1.5;" x1="7" x2="133" y1="48" y2="48"/><!--MD5=[064f7a74fee85463ec1a30143664ee17]
class GameObject--><rect fill="#FEFECE" filter="url(#f19uv8hsobp10d)" height="48" id="GameObject" style="stroke: #A80036; stroke-width: 1.5;" width="108" x="16" y="237"/><ellipse cx="31" cy="253" fill="#ADD1B2" rx="11" ry="11" style="stroke: #A80036; stroke-width: 1.0;"/><path d="M33.9688,258.6406 Q33.3906,258.9375 32.75,259.0781 Q32.1094,259.2344 31.4063,259.2344 Q28.9063,259.2344 27.5781,257.5938 Q26.2656,255.9375 26.2656,252.8125 Q26.2656,249.6875 27.5781,248.0313 Q28.9063,246.375 31.4063,246.375 Q32.1094,246.375 32.75,246.5313 Q33.4063,246.6875 33.9688,246.9844 L33.9688,249.7031 Q33.3438,249.125 32.75,248.8594 Q32.1563,248.5781 31.5313,248.5781 Q30.1875,248.5781 29.5,249.6563 Q28.8125,250.7188 28.8125,252.8125 Q28.8125,254.9063 29.5,255.9844 Q30.1875,257.0469 31.5313,257.0469 Q32.1563,257.0469 32.75,256.7813 Q33.3438,256.5 33.9688,255.9219 L33.9688,258.6406 Z "/><text fill="#000000" font-family="sans-serif" font-size="12" lengthAdjust="spacingAndGlyphs" textLength="76" x="45" y="257.1543">GameObject</text><line style="stroke: #A80036; stroke-width: 1.5;" x1="17" x2="123" y1="269" y2="269"/><line style="stroke: #A80036; stroke-width: 1.5;" x1="17" x2="123" y1="277" y2="277"/><!--MD5=[06ab32c017aa784661a94d425a2c9713]
reverse link MonoBehaviour to FollowPlayer--><path d="M70,76.11 C70,89.31 70,103.54 70,115.65 " fill="none" id="MonoBehaviour&lt;-FollowPlayer" style="stroke: #A80036; stroke-width: 1.0;"/><polygon fill="none" points="63,76.04,70,56.04,77,76.04,63,76.04" style="stroke: #A80036; stroke-width: 1.0;"/><!--MD5=[75f9d0a82926df2d5f27dbecf8ce12a8]
link FollowPlayer to GameObject--><path d="M70,177.06 C70,193.93 70,214.98 70,231.65 " fill="none" id="FollowPlayer-&gt;GameObject" style="stroke: #A80036; stroke-width: 1.0;"/><polygon fill="#A80036" points="70,236.67,74,227.67,70,231.67,66,227.67,70,236.67" style="stroke: #A80036; stroke-width: 1.0;"/><text fill="#000000" font-family="sans-serif" font-size="13" lengthAdjust="spacingAndGlyphs" textLength="39" x="26.2469" y="225.9945">player</text><!--MD5=[28d7b8cd48dc0e8c224b76ad68c52810]
@startuml
class FollowPlayer {
    LateUpdate() : void
}
MonoBehaviour <|- - FollowPlayer
FollowPlayer - -> "player" GameObject
@enduml

PlantUML version 1.2020.02(Sun Mar 01 10:22:07 GMT 2020)
(GPL source distribution)
Java Runtime: OpenJDK Runtime Environment
JVM: OpenJDK 64-Bit Server VM
Java Version: 11.0.9+11-Ubuntu-0ubuntu1
Operating System: Linux
Default Encoding: ANSI_X3.4-1968
Language: en
Country: US
--></g></svg>