<?xml version="1.0" encoding="UTF-8" standalone="no"?><svg xmlns="http://www.w3.org/2000/svg" xmlns:xlink="http://www.w3.org/1999/xlink" contentScriptType="application/ecmascript" contentStyleType="text/css" height="373px" preserveAspectRatio="none" style="width:235px;height:373px;" version="1.1" viewBox="0 0 235 373" width="235px" zoomAndPan="magnify"><defs><filter height="300%" id="fka2rrvup427s" width="300%" x="-1" y="-1"><feGaussianBlur result="blurOut" stdDeviation="2.0"/><feColorMatrix in="blurOut" result="blurOut2" type="matrix" values="0 0 0 0 0 0 0 0 0 0 0 0 0 0 0 0 0 0 .4 0"/><feOffset dx="4.0" dy="4.0" in="blurOut2" result="blurOut3"/><feBlend in="SourceGraphic" in2="blurOut3" mode="normal"/></filter></defs><g><!--MD5=[a6c2e5c7736517528fc2aec3abeeb070]
class HealthBar--><rect fill="#FEFECE" filter="url(#fka2rrvup427s)" height="137.6328" id="HealthBar" style="stroke: #A80036; stroke-width: 1.5;" width="218" x="6" y="116"/><ellipse cx="79.75" cy="132" fill="#ADD1B2" rx="11" ry="11" style="stroke: #A80036; stroke-width: 1.0;"/><path d="M82.7188,137.6406 Q82.1406,137.9375 81.5,138.0781 Q80.8594,138.2344 80.1563,138.2344 Q77.6563,138.2344 76.3281,136.5938 Q75.0156,134.9375 75.0156,131.8125 Q75.0156,128.6875 76.3281,127.0313 Q77.6563,125.375 80.1563,125.375 Q80.8594,125.375 81.5,125.5313 Q82.1563,125.6875 82.7188,125.9844 L82.7188,128.7031 Q82.0938,128.125 81.5,127.8594 Q80.9063,127.5781 80.2813,127.5781 Q78.9375,127.5781 78.25,128.6563 Q77.5625,129.7188 77.5625,131.8125 Q77.5625,133.9063 78.25,134.9844 Q78.9375,136.0469 80.2813,136.0469 Q80.9063,136.0469 81.5,135.7813 Q82.0938,135.5 82.7188,134.9219 L82.7188,137.6406 Z "/><text fill="#000000" font-family="sans-serif" font-size="12" lengthAdjust="spacingAndGlyphs" textLength="62" x="100.25" y="136.1543">HealthBar</text><line style="stroke: #A80036; stroke-width: 1.5;" x1="7" x2="223" y1="148" y2="148"/><ellipse cx="17" cy="159" fill="none" rx="3" ry="3" style="stroke: #038048; stroke-width: 1.0;"/><text fill="#000000" font-family="sans-serif" font-size="11" lengthAdjust="spacingAndGlyphs" textLength="97" x="26" y="162.2104">maxHealth : float</text><ellipse cx="17" cy="171.8047" fill="none" rx="3" ry="3" style="stroke: #038048; stroke-width: 1.0;"/><text fill="#000000" font-family="sans-serif" font-size="11" lengthAdjust="spacingAndGlyphs" textLength="72" x="26" y="175.0151">health : float</text><line style="stroke: #A80036; stroke-width: 1.5;" x1="7" x2="223" y1="181.6094" y2="181.6094"/><text fill="#000000" font-family="sans-serif" font-size="11" lengthAdjust="spacingAndGlyphs" textLength="71" x="26" y="195.8198">Start() : void</text><text fill="#000000" font-family="sans-serif" font-size="11" lengthAdjust="spacingAndGlyphs" textLength="83" x="26" y="208.6245">Update() : void</text><ellipse cx="17" cy="218.2188" fill="#84BE84" rx="3" ry="3" style="stroke: #038048; stroke-width: 1.0;"/><text fill="#000000" font-family="sans-serif" font-size="11" lengthAdjust="spacingAndGlyphs" textLength="192" x="26" y="221.4292">TakeDamage(damage:float) : void</text><ellipse cx="17" cy="231.0234" fill="#84BE84" rx="3" ry="3" style="stroke: #038048; stroke-width: 1.0;"/><text fill="#000000" font-family="sans-serif" font-size="11" lengthAdjust="spacingAndGlyphs" textLength="138" x="26" y="234.2339">Heal(healing:float) : void</text><ellipse cx="17" cy="243.8281" fill="#84BE84" rx="3" ry="3" style="stroke: #038048; stroke-width: 1.0;"/><text fill="#000000" font-family="sans-serif" font-size="11" lengthAdjust="spacingAndGlyphs" textLength="61" x="26" y="247.0386">Die() : void</text><!--MD5=[83b3cf3d23d77c6f1e1b5291a241bc2a]
class MonoBehaviour--><rect fill="#FEFECE" filter="url(#fka2rrvup427s)" height="48" id="MonoBehaviour" style="stroke: #A80036; stroke-width: 1.5;" width="128" x="51" y="8"/><ellipse cx="66" cy="24" fill="#ADD1B2" rx="11" ry="11" style="stroke: #A80036; stroke-width: 1.0;"/><path d="M68.9688,29.6406 Q68.3906,29.9375 67.75,30.0781 Q67.1094,30.2344 66.4063,30.2344 Q63.9063,30.2344 62.5781,28.5938 Q61.2656,26.9375 61.2656,23.8125 Q61.2656,20.6875 62.5781,19.0313 Q63.9063,17.375 66.4063,17.375 Q67.1094,17.375 67.75,17.5313 Q68.4063,17.6875 68.9688,17.9844 L68.9688,20.7031 Q68.3438,20.125 67.75,19.8594 Q67.1563,19.5781 66.5313,19.5781 Q65.1875,19.5781 64.5,20.6563 Q63.8125,21.7188 63.8125,23.8125 Q63.8125,25.9063 64.5,26.9844 Q65.1875,28.0469 66.5313,28.0469 Q67.1563,28.0469 67.75,27.7813 Q68.3438,27.5 68.9688,26.9219 L68.9688,29.6406 Z "/><text fill="#000000" font-family="sans-serif" font-size="12" lengthAdjust="spacingAndGlyphs" textLength="96" x="80" y="28.1543">MonoBehaviour</text><line style="stroke: #A80036; stroke-width: 1.5;" x1="52" x2="178" y1="40" y2="40"/><line style="stroke: #A80036; stroke-width: 1.5;" x1="52" x2="178" y1="48" y2="48"/><!--MD5=[5b63724585581d1714c92cb3ec182af9]
class Slider--><rect fill="#FEFECE" filter="url(#fka2rrvup427s)" height="48" id="Slider" style="stroke: #A80036; stroke-width: 1.5;" width="67" x="81.5" y="314"/><ellipse cx="96.5" cy="330" fill="#ADD1B2" rx="11" ry="11" style="stroke: #A80036; stroke-width: 1.0;"/><path d="M99.4688,335.6406 Q98.8906,335.9375 98.25,336.0781 Q97.6094,336.2344 96.9063,336.2344 Q94.4063,336.2344 93.0781,334.5938 Q91.7656,332.9375 91.7656,329.8125 Q91.7656,326.6875 93.0781,325.0313 Q94.4063,323.375 96.9063,323.375 Q97.6094,323.375 98.25,323.5313 Q98.9063,323.6875 99.4688,323.9844 L99.4688,326.7031 Q98.8438,326.125 98.25,325.8594 Q97.6563,325.5781 97.0313,325.5781 Q95.6875,325.5781 95,326.6563 Q94.3125,327.7188 94.3125,329.8125 Q94.3125,331.9063 95,332.9844 Q95.6875,334.0469 97.0313,334.0469 Q97.6563,334.0469 98.25,333.7813 Q98.8438,333.5 99.4688,332.9219 L99.4688,335.6406 Z "/><text fill="#000000" font-family="sans-serif" font-size="12" lengthAdjust="spacingAndGlyphs" textLength="35" x="110.5" y="334.1543">Slider</text><line style="stroke: #A80036; stroke-width: 1.5;" x1="82.5" x2="147.5" y1="346" y2="346"/><line style="stroke: #A80036; stroke-width: 1.5;" x1="82.5" x2="147.5" y1="354" y2="354"/><!--MD5=[117bde7674799e42424ae8549c83fe14]
reverse link MonoBehaviour to HealthBar--><path d="M115,76.56 C115,88.87 115,102.57 115,115.96 " fill="none" id="MonoBehaviour&lt;-HealthBar" style="stroke: #A80036; stroke-width: 1.0;"/><polygon fill="none" points="108,76.26,115,56.26,122,76.26,108,76.26" style="stroke: #A80036; stroke-width: 1.0;"/><!--MD5=[13073c518d66536265bea18f99b5cbc8]
link HealthBar to Slider--><path d="M115,254.43 C115,273.64 115,293.47 115,308.87 " fill="none" id="HealthBar-&gt;Slider" style="stroke: #A80036; stroke-width: 1.0;"/><polygon fill="#A80036" points="115,313.92,119,304.92,115,308.92,111,304.92,115,313.92" style="stroke: #A80036; stroke-width: 1.0;"/><text fill="#000000" font-family="sans-serif" font-size="13" lengthAdjust="spacingAndGlyphs" textLength="61" x="46.1844" y="302.9115">healthbar</text><!--MD5=[f176901ebf826fd11565916f4c514724]
@startuml
class HealthBar {
    + maxHealth : float
    + health : float
    Start() : void
    Update() : void
    + TakeDamage(damage:float) : void
    + Heal(healing:float) : void
    + Die() : void
}
MonoBehaviour <|- - HealthBar
HealthBar - -> "healthbar" Slider
@enduml

PlantUML version 1.2020.02(Sun Mar 01 10:22:07 GMT 2020)
(GPL source distribution)
Java Runtime: OpenJDK Runtime Environment
JVM: OpenJDK 64-Bit Server VM
Java Version: 11.0.9+11-Ubuntu-0ubuntu1
Operating System: Linux
Default Encoding: ANSI_X3.4-1968
Language: en
Country: US
--></g></svg>