<?xml version="1.0" encoding="UTF-8" standalone="no"?><svg xmlns="http://www.w3.org/2000/svg" xmlns:xlink="http://www.w3.org/1999/xlink" contentScriptType="application/ecmascript" contentStyleType="text/css" height="373px" preserveAspectRatio="none" style="width:228px;height:373px;" version="1.1" viewBox="0 0 228 373" width="228px" zoomAndPan="magnify"><defs><filter height="300%" id="f180e345k9s4hz" width="300%" x="-1" y="-1"><feGaussianBlur result="blurOut" stdDeviation="2.0"/><feColorMatrix in="blurOut" result="blurOut2" type="matrix" values="0 0 0 0 0 0 0 0 0 0 0 0 0 0 0 0 0 0 .4 0"/><feOffset dx="4.0" dy="4.0" in="blurOut2" result="blurOut3"/><feBlend in="SourceGraphic" in2="blurOut3" mode="normal"/></filter></defs><g><!--MD5=[a6c2e5c7736517528fc2aec3abeeb070]
class HealthBar--><rect fill="#FEFECE" filter="url(#f180e345k9s4hz)" height="137.6328" id="HealthBar" style="stroke: #A80036; stroke-width: 1.5;" width="211" x="6" y="116"/><ellipse cx="76.25" cy="132" fill="#ADD1B2" rx="11" ry="11" style="stroke: #A80036; stroke-width: 1.0;"/><path d="M79.2188,137.6406 Q78.6406,137.9375 78,138.0781 Q77.3594,138.2344 76.6563,138.2344 Q74.1563,138.2344 72.8281,136.5938 Q71.5156,134.9375 71.5156,131.8125 Q71.5156,128.6875 72.8281,127.0313 Q74.1563,125.375 76.6563,125.375 Q77.3594,125.375 78,125.5313 Q78.6563,125.6875 79.2188,125.9844 L79.2188,128.7031 Q78.5938,128.125 78,127.8594 Q77.4063,127.5781 76.7813,127.5781 Q75.4375,127.5781 74.75,128.6563 Q74.0625,129.7188 74.0625,131.8125 Q74.0625,133.9063 74.75,134.9844 Q75.4375,136.0469 76.7813,136.0469 Q77.4063,136.0469 78,135.7813 Q78.5938,135.5 79.2188,134.9219 L79.2188,137.6406 Z "/><text fill="#000000" font-family="sans-serif" font-size="12" lengthAdjust="spacingAndGlyphs" textLength="62" x="96.75" y="136.1543">HealthBar</text><line style="stroke: #A80036; stroke-width: 1.5;" x1="7" x2="216" y1="148" y2="148"/><ellipse cx="17" cy="159" fill="none" rx="3" ry="3" style="stroke: #038048; stroke-width: 1.0;"/><text fill="#000000" font-family="sans-serif" font-size="11" lengthAdjust="spacingAndGlyphs" textLength="97" x="26" y="162.2104">maxHealth : float</text><ellipse cx="17" cy="171.8047" fill="none" rx="3" ry="3" style="stroke: #038048; stroke-width: 1.0;"/><text fill="#000000" font-family="sans-serif" font-size="11" lengthAdjust="spacingAndGlyphs" textLength="72" x="26" y="175.0151">health : float</text><line style="stroke: #A80036; stroke-width: 1.5;" x1="7" x2="216" y1="181.6094" y2="181.6094"/><text fill="#000000" font-family="sans-serif" font-size="11" lengthAdjust="spacingAndGlyphs" textLength="71" x="26" y="195.8198">Start() : void</text><text fill="#000000" font-family="sans-serif" font-size="11" lengthAdjust="spacingAndGlyphs" textLength="83" x="26" y="208.6245">Update() : void</text><ellipse cx="17" cy="218.2188" fill="#84BE84" rx="3" ry="3" style="stroke: #038048; stroke-width: 1.0;"/><text fill="#000000" font-family="sans-serif" font-size="11" lengthAdjust="spacingAndGlyphs" textLength="185" x="26" y="221.4292">TakeDamge(damage:float) : void</text><ellipse cx="17" cy="231.0234" fill="#84BE84" rx="3" ry="3" style="stroke: #038048; stroke-width: 1.0;"/><text fill="#000000" font-family="sans-serif" font-size="11" lengthAdjust="spacingAndGlyphs" textLength="138" x="26" y="234.2339">Heal(healing:float) : void</text><ellipse cx="17" cy="243.8281" fill="#84BE84" rx="3" ry="3" style="stroke: #038048; stroke-width: 1.0;"/><text fill="#000000" font-family="sans-serif" font-size="11" lengthAdjust="spacingAndGlyphs" textLength="61" x="26" y="247.0386">Die() : void</text><!--MD5=[83b3cf3d23d77c6f1e1b5291a241bc2a]
class MonoBehaviour--><rect fill="#FEFECE" filter="url(#f180e345k9s4hz)" height="48" id="MonoBehaviour" style="stroke: #A80036; stroke-width: 1.5;" width="128" x="47.5" y="8"/><ellipse cx="62.5" cy="24" fill="#ADD1B2" rx="11" ry="11" style="stroke: #A80036; stroke-width: 1.0;"/><path d="M65.4688,29.6406 Q64.8906,29.9375 64.25,30.0781 Q63.6094,30.2344 62.9063,30.2344 Q60.4063,30.2344 59.0781,28.5938 Q57.7656,26.9375 57.7656,23.8125 Q57.7656,20.6875 59.0781,19.0313 Q60.4063,17.375 62.9063,17.375 Q63.6094,17.375 64.25,17.5313 Q64.9063,17.6875 65.4688,17.9844 L65.4688,20.7031 Q64.8438,20.125 64.25,19.8594 Q63.6563,19.5781 63.0313,19.5781 Q61.6875,19.5781 61,20.6563 Q60.3125,21.7188 60.3125,23.8125 Q60.3125,25.9063 61,26.9844 Q61.6875,28.0469 63.0313,28.0469 Q63.6563,28.0469 64.25,27.7813 Q64.8438,27.5 65.4688,26.9219 L65.4688,29.6406 Z "/><text fill="#000000" font-family="sans-serif" font-size="12" lengthAdjust="spacingAndGlyphs" textLength="96" x="76.5" y="28.1543">MonoBehaviour</text><line style="stroke: #A80036; stroke-width: 1.5;" x1="48.5" x2="174.5" y1="40" y2="40"/><line style="stroke: #A80036; stroke-width: 1.5;" x1="48.5" x2="174.5" y1="48" y2="48"/><!--MD5=[5b63724585581d1714c92cb3ec182af9]
class Slider--><rect fill="#FEFECE" filter="url(#f180e345k9s4hz)" height="48" id="Slider" style="stroke: #A80036; stroke-width: 1.5;" width="67" x="78" y="314"/><ellipse cx="93" cy="330" fill="#ADD1B2" rx="11" ry="11" style="stroke: #A80036; stroke-width: 1.0;"/><path d="M95.9688,335.6406 Q95.3906,335.9375 94.75,336.0781 Q94.1094,336.2344 93.4063,336.2344 Q90.9063,336.2344 89.5781,334.5938 Q88.2656,332.9375 88.2656,329.8125 Q88.2656,326.6875 89.5781,325.0313 Q90.9063,323.375 93.4063,323.375 Q94.1094,323.375 94.75,323.5313 Q95.4063,323.6875 95.9688,323.9844 L95.9688,326.7031 Q95.3438,326.125 94.75,325.8594 Q94.1563,325.5781 93.5313,325.5781 Q92.1875,325.5781 91.5,326.6563 Q90.8125,327.7188 90.8125,329.8125 Q90.8125,331.9063 91.5,332.9844 Q92.1875,334.0469 93.5313,334.0469 Q94.1563,334.0469 94.75,333.7813 Q95.3438,333.5 95.9688,332.9219 L95.9688,335.6406 Z "/><text fill="#000000" font-family="sans-serif" font-size="12" lengthAdjust="spacingAndGlyphs" textLength="35" x="107" y="334.1543">Slider</text><line style="stroke: #A80036; stroke-width: 1.5;" x1="79" x2="144" y1="346" y2="346"/><line style="stroke: #A80036; stroke-width: 1.5;" x1="79" x2="144" y1="354" y2="354"/><!--MD5=[117bde7674799e42424ae8549c83fe14]
reverse link MonoBehaviour to HealthBar--><path d="M111.5,76.56 C111.5,88.87 111.5,102.57 111.5,115.96 " fill="none" id="MonoBehaviour&lt;-HealthBar" style="stroke: #A80036; stroke-width: 1.0;"/><polygon fill="none" points="104.5,76.26,111.5,56.26,118.5,76.26,104.5,76.26" style="stroke: #A80036; stroke-width: 1.0;"/><!--MD5=[13073c518d66536265bea18f99b5cbc8]
link HealthBar to Slider--><path d="M111.5,254.43 C111.5,273.64 111.5,293.47 111.5,308.87 " fill="none" id="HealthBar-&gt;Slider" style="stroke: #A80036; stroke-width: 1.0;"/><polygon fill="#A80036" points="111.5,313.92,115.5,304.92,111.5,308.92,107.5,304.92,111.5,313.92" style="stroke: #A80036; stroke-width: 1.0;"/><text fill="#000000" font-family="sans-serif" font-size="13" lengthAdjust="spacingAndGlyphs" textLength="61" x="42.6844" y="302.9115">healthbar</text><!--MD5=[604edb3e65f1c8848df211e3f8c8ba06]
@startuml
class HealthBar {
    + maxHealth : float
    + health : float
    Start() : void
    Update() : void
    + TakeDamge(damage:float) : void
    + Heal(healing:float) : void
    + Die() : void
}
MonoBehaviour <|- - HealthBar
HealthBar - -> "healthbar" Slider
@enduml

PlantUML version 1.2020.02(Sun Mar 01 10:22:07 GMT 2020)
(GPL source distribution)
Java Runtime: OpenJDK Runtime Environment
JVM: OpenJDK 64-Bit Server VM
Java Version: 11.0.9+11-Ubuntu-0ubuntu1
Operating System: Linux
Default Encoding: ANSI_X3.4-1968
Language: en
Country: US
--></g></svg>