<?xml version="1.0" encoding="UTF-8" standalone="no"?><svg xmlns="http://www.w3.org/2000/svg" xmlns:xlink="http://www.w3.org/1999/xlink" contentScriptType="application/ecmascript" contentStyleType="text/css" height="200px" preserveAspectRatio="none" style="width:255px;height:200px;" version="1.1" viewBox="0 0 255 200" width="255px" zoomAndPan="magnify"><defs><filter height="300%" id="florsjzo58nyo" width="300%" x="-1" y="-1"><feGaussianBlur result="blurOut" stdDeviation="2.0"/><feColorMatrix in="blurOut" result="blurOut2" type="matrix" values="0 0 0 0 0 0 0 0 0 0 0 0 0 0 0 0 0 0 .4 0"/><feOffset dx="4.0" dy="4.0" in="blurOut2" result="blurOut3"/><feBlend in="SourceGraphic" in2="blurOut3" mode="normal"/></filter></defs><g><!--MD5=[80806e08dac105db4bf03e60335471e4]
class MainMenu--><rect fill="#FEFECE" filter="url(#florsjzo58nyo)" height="73.6094" id="MainMenu" style="stroke: #A80036; stroke-width: 1.5;" width="238" x="6" y="116"/><ellipse cx="89.25" cy="132" fill="#ADD1B2" rx="11" ry="11" style="stroke: #A80036; stroke-width: 1.0;"/><path d="M92.2188,137.6406 Q91.6406,137.9375 91,138.0781 Q90.3594,138.2344 89.6563,138.2344 Q87.1563,138.2344 85.8281,136.5938 Q84.5156,134.9375 84.5156,131.8125 Q84.5156,128.6875 85.8281,127.0313 Q87.1563,125.375 89.6563,125.375 Q90.3594,125.375 91,125.5313 Q91.6563,125.6875 92.2188,125.9844 L92.2188,128.7031 Q91.5938,128.125 91,127.8594 Q90.4063,127.5781 89.7813,127.5781 Q88.4375,127.5781 87.75,128.6563 Q87.0625,129.7188 87.0625,131.8125 Q87.0625,133.9063 87.75,134.9844 Q88.4375,136.0469 89.7813,136.0469 Q90.4063,136.0469 91,135.7813 Q91.5938,135.5 92.2188,134.9219 L92.2188,137.6406 Z "/><text fill="#000000" font-family="sans-serif" font-size="12" lengthAdjust="spacingAndGlyphs" textLength="63" x="109.75" y="136.1543">MainMenu</text><line style="stroke: #A80036; stroke-width: 1.5;" x1="7" x2="243" y1="148" y2="148"/><line style="stroke: #A80036; stroke-width: 1.5;" x1="7" x2="243" y1="156" y2="156"/><ellipse cx="17" cy="167" fill="#84BE84" rx="3" ry="3" style="stroke: #038048; stroke-width: 1.0;"/><text fill="#000000" font-family="sans-serif" font-size="11" lengthAdjust="spacingAndGlyphs" textLength="212" x="26" y="170.2104">GoToScene(sceneName:string) : void</text><ellipse cx="17" cy="179.8047" fill="#84BE84" rx="3" ry="3" style="stroke: #038048; stroke-width: 1.0;"/><text fill="#000000" font-family="sans-serif" font-size="11" lengthAdjust="spacingAndGlyphs" textLength="87" x="26" y="183.0151">QuitApp() : void</text><!--MD5=[83b3cf3d23d77c6f1e1b5291a241bc2a]
class MonoBehaviour--><rect fill="#FEFECE" filter="url(#florsjzo58nyo)" height="48" id="MonoBehaviour" style="stroke: #A80036; stroke-width: 1.5;" width="128" x="61" y="8"/><ellipse cx="76" cy="24" fill="#ADD1B2" rx="11" ry="11" style="stroke: #A80036; stroke-width: 1.0;"/><path d="M78.9688,29.6406 Q78.3906,29.9375 77.75,30.0781 Q77.1094,30.2344 76.4063,30.2344 Q73.9063,30.2344 72.5781,28.5938 Q71.2656,26.9375 71.2656,23.8125 Q71.2656,20.6875 72.5781,19.0313 Q73.9063,17.375 76.4063,17.375 Q77.1094,17.375 77.75,17.5313 Q78.4063,17.6875 78.9688,17.9844 L78.9688,20.7031 Q78.3438,20.125 77.75,19.8594 Q77.1563,19.5781 76.5313,19.5781 Q75.1875,19.5781 74.5,20.6563 Q73.8125,21.7188 73.8125,23.8125 Q73.8125,25.9063 74.5,26.9844 Q75.1875,28.0469 76.5313,28.0469 Q77.1563,28.0469 77.75,27.7813 Q78.3438,27.5 78.9688,26.9219 L78.9688,29.6406 Z "/><text fill="#000000" font-family="sans-serif" font-size="12" lengthAdjust="spacingAndGlyphs" textLength="96" x="90" y="28.1543">MonoBehaviour</text><line style="stroke: #A80036; stroke-width: 1.5;" x1="62" x2="188" y1="40" y2="40"/><line style="stroke: #A80036; stroke-width: 1.5;" x1="62" x2="188" y1="48" y2="48"/><!--MD5=[433f513694bd447943a8e7c21da51852]
reverse link MonoBehaviour to MainMenu--><path d="M125,76.43 C125,89.33 125,103.32 125,115.71 " fill="none" id="MonoBehaviour&lt;-MainMenu" style="stroke: #A80036; stroke-width: 1.0;"/><polygon fill="none" points="118,76.23,125,56.23,132,76.23,118,76.23" style="stroke: #A80036; stroke-width: 1.0;"/><!--MD5=[b762af4e9a2b64d752709a62f7516e10]
@startuml
class MainMenu {
    + GoToScene(sceneName:string) : void
    + QuitApp() : void
}
MonoBehaviour <|- - MainMenu
@enduml

PlantUML version 1.2020.02(Sun Mar 01 10:22:07 GMT 2020)
(GPL source distribution)
Java Runtime: OpenJDK Runtime Environment
JVM: OpenJDK 64-Bit Server VM
Java Version: 11.0.9+11-Ubuntu-0ubuntu1
Operating System: Linux
Default Encoding: ANSI_X3.4-1968
Language: en
Country: US
--></g></svg>