<?xml version="1.0" encoding="UTF-8" standalone="no"?><svg xmlns="http://www.w3.org/2000/svg" xmlns:xlink="http://www.w3.org/1999/xlink" contentScriptType="application/ecmascript" contentStyleType="text/css" height="373px" preserveAspectRatio="none" style="width:323px;height:373px;" version="1.1" viewBox="0 0 323 373" width="323px" zoomAndPan="magnify"><defs><filter height="300%" id="f1dpvdionj12hf" width="300%" x="-1" y="-1"><feGaussianBlur result="blurOut" stdDeviation="2.0"/><feColorMatrix in="blurOut" result="blurOut2" type="matrix" values="0 0 0 0 0 0 0 0 0 0 0 0 0 0 0 0 0 0 .4 0"/><feOffset dx="4.0" dy="4.0" in="blurOut2" result="blurOut3"/><feBlend in="SourceGraphic" in2="blurOut3" mode="normal"/></filter></defs><g><!--MD5=[91b737a0aa6758b352ed748d11ff2125]
class PlayerController--><rect fill="#FEFECE" filter="url(#f1dpvdionj12hf)" height="137.6328" id="PlayerController" style="stroke: #A80036; stroke-width: 1.5;" width="306" x="6" y="116"/><ellipse cx="105.25" cy="132" fill="#ADD1B2" rx="11" ry="11" style="stroke: #A80036; stroke-width: 1.0;"/><path d="M108.2188,137.6406 Q107.6406,137.9375 107,138.0781 Q106.3594,138.2344 105.6563,138.2344 Q103.1563,138.2344 101.8281,136.5938 Q100.5156,134.9375 100.5156,131.8125 Q100.5156,128.6875 101.8281,127.0313 Q103.1563,125.375 105.6563,125.375 Q106.3594,125.375 107,125.5313 Q107.6563,125.6875 108.2188,125.9844 L108.2188,128.7031 Q107.5938,128.125 107,127.8594 Q106.4063,127.5781 105.7813,127.5781 Q104.4375,127.5781 103.75,128.6563 Q103.0625,129.7188 103.0625,131.8125 Q103.0625,133.9063 103.75,134.9844 Q104.4375,136.0469 105.7813,136.0469 Q106.4063,136.0469 107,135.7813 Q107.5938,135.5 108.2188,134.9219 L108.2188,137.6406 Z "/><text fill="#000000" font-family="sans-serif" font-size="12" lengthAdjust="spacingAndGlyphs" textLength="99" x="125.75" y="136.1543">PlayerController</text><line style="stroke: #A80036; stroke-width: 1.5;" x1="7" x2="311" y1="148" y2="148"/><ellipse cx="17" cy="159" fill="none" rx="3" ry="3" style="stroke: #038048; stroke-width: 1.0;"/><text fill="#000000" font-family="sans-serif" font-size="11" lengthAdjust="spacingAndGlyphs" textLength="139" x="26" y="162.2104">moveSpeed : float = 10f</text><text fill="#000000" font-family="sans-serif" font-size="11" lengthAdjust="spacingAndGlyphs" textLength="122" x="26" y="175.0151">moving : bool = false</text><line style="stroke: #A80036; stroke-width: 1.5;" x1="7" x2="311" y1="181.6094" y2="181.6094"/><text fill="#000000" font-family="sans-serif" font-size="11" lengthAdjust="spacingAndGlyphs" textLength="71" x="26" y="195.8198">Start() : void</text><ellipse cx="17" cy="205.4141" fill="#84BE84" rx="3" ry="3" style="stroke: #038048; stroke-width: 1.0;"/><text fill="#000000" font-family="sans-serif" font-size="11" lengthAdjust="spacingAndGlyphs" textLength="101" x="26" y="208.6245">GetSpeed() : float</text><ellipse cx="17" cy="218.2188" fill="#84BE84" rx="3" ry="3" style="stroke: #038048; stroke-width: 1.0;"/><text fill="#000000" font-family="sans-serif" font-size="11" lengthAdjust="spacingAndGlyphs" textLength="186" x="26" y="221.4292">SetSpeed(newSpeed:float) : void</text><text fill="#000000" font-family="sans-serif" font-size="11" lengthAdjust="spacingAndGlyphs" textLength="280" x="26" y="234.2339">Move(horiz:float, vert:float, deltaTime:float) : void</text><text fill="#000000" font-family="sans-serif" font-size="11" lengthAdjust="spacingAndGlyphs" textLength="83" x="26" y="247.0386">Update() : void</text><!--MD5=[83b3cf3d23d77c6f1e1b5291a241bc2a]
class MonoBehaviour--><rect fill="#FEFECE" filter="url(#f1dpvdionj12hf)" height="48" id="MonoBehaviour" style="stroke: #A80036; stroke-width: 1.5;" width="128" x="95" y="8"/><ellipse cx="110" cy="24" fill="#ADD1B2" rx="11" ry="11" style="stroke: #A80036; stroke-width: 1.0;"/><path d="M112.9688,29.6406 Q112.3906,29.9375 111.75,30.0781 Q111.1094,30.2344 110.4063,30.2344 Q107.9063,30.2344 106.5781,28.5938 Q105.2656,26.9375 105.2656,23.8125 Q105.2656,20.6875 106.5781,19.0313 Q107.9063,17.375 110.4063,17.375 Q111.1094,17.375 111.75,17.5313 Q112.4063,17.6875 112.9688,17.9844 L112.9688,20.7031 Q112.3438,20.125 111.75,19.8594 Q111.1563,19.5781 110.5313,19.5781 Q109.1875,19.5781 108.5,20.6563 Q107.8125,21.7188 107.8125,23.8125 Q107.8125,25.9063 108.5,26.9844 Q109.1875,28.0469 110.5313,28.0469 Q111.1563,28.0469 111.75,27.7813 Q112.3438,27.5 112.9688,26.9219 L112.9688,29.6406 Z "/><text fill="#000000" font-family="sans-serif" font-size="12" lengthAdjust="spacingAndGlyphs" textLength="96" x="124" y="28.1543">MonoBehaviour</text><line style="stroke: #A80036; stroke-width: 1.5;" x1="96" x2="222" y1="40" y2="40"/><line style="stroke: #A80036; stroke-width: 1.5;" x1="96" x2="222" y1="48" y2="48"/><!--MD5=[8b805049d0499e23d33da8a1efc9f54d]
class Animator--><rect fill="#FEFECE" filter="url(#f1dpvdionj12hf)" height="48" id="Animator" style="stroke: #A80036; stroke-width: 1.5;" width="88" x="115" y="314"/><ellipse cx="130" cy="330" fill="#ADD1B2" rx="11" ry="11" style="stroke: #A80036; stroke-width: 1.0;"/><path d="M132.9688,335.6406 Q132.3906,335.9375 131.75,336.0781 Q131.1094,336.2344 130.4063,336.2344 Q127.9063,336.2344 126.5781,334.5938 Q125.2656,332.9375 125.2656,329.8125 Q125.2656,326.6875 126.5781,325.0313 Q127.9063,323.375 130.4063,323.375 Q131.1094,323.375 131.75,323.5313 Q132.4063,323.6875 132.9688,323.9844 L132.9688,326.7031 Q132.3438,326.125 131.75,325.8594 Q131.1563,325.5781 130.5313,325.5781 Q129.1875,325.5781 128.5,326.6563 Q127.8125,327.7188 127.8125,329.8125 Q127.8125,331.9063 128.5,332.9844 Q129.1875,334.0469 130.5313,334.0469 Q131.1563,334.0469 131.75,333.7813 Q132.3438,333.5 132.9688,332.9219 L132.9688,335.6406 Z "/><text fill="#000000" font-family="sans-serif" font-size="12" lengthAdjust="spacingAndGlyphs" textLength="56" x="144" y="334.1543">Animator</text><line style="stroke: #A80036; stroke-width: 1.5;" x1="116" x2="202" y1="346" y2="346"/><line style="stroke: #A80036; stroke-width: 1.5;" x1="116" x2="202" y1="354" y2="354"/><!--MD5=[2165a0a840a65325cb57faa5b6f31023]
reverse link MonoBehaviour to PlayerController--><path d="M159,76.56 C159,88.87 159,102.57 159,115.96 " fill="none" id="MonoBehaviour&lt;-PlayerController" style="stroke: #A80036; stroke-width: 1.0;"/><polygon fill="none" points="152,76.26,159,56.26,166,76.26,152,76.26" style="stroke: #A80036; stroke-width: 1.0;"/><!--MD5=[b8104844a7135d57bfb7b1be281d9ff2]
link PlayerController to Animator--><path d="M159,254.43 C159,273.64 159,293.47 159,308.87 " fill="none" id="PlayerController-&gt;Animator" style="stroke: #A80036; stroke-width: 1.0;"/><polygon fill="#A80036" points="159,313.92,163,304.92,159,308.92,155,304.92,159,313.92" style="stroke: #A80036; stroke-width: 1.0;"/><text fill="#000000" font-family="sans-serif" font-size="13" lengthAdjust="spacingAndGlyphs" textLength="58" x="93.5688" y="302.9115">animator</text><!--MD5=[1071ca174142d8243c5c2532d43dbece]
@startuml
class PlayerController {
    + moveSpeed : float = 10f
    moving : bool = false
    Start() : void
    + GetSpeed() : float
    + SetSpeed(newSpeed:float) : void
    Move(horiz:float, vert:float, deltaTime:float) : void
    Update() : void
}
MonoBehaviour <|- - PlayerController
PlayerController - -> "animator" Animator
@enduml

PlantUML version 1.2020.02(Sun Mar 01 10:22:07 GMT 2020)
(GPL source distribution)
Java Runtime: OpenJDK Runtime Environment
JVM: OpenJDK 64-Bit Server VM
Java Version: 11.0.9+11-Ubuntu-0ubuntu1
Operating System: Linux
Default Encoding: ANSI_X3.4-1968
Language: en
Country: US
--></g></svg>