<?xml version="1.0" encoding="UTF-8" standalone="no"?><svg xmlns="http://www.w3.org/2000/svg" xmlns:xlink="http://www.w3.org/1999/xlink" contentScriptType="application/ecmascript" contentStyleType="text/css" height="321px" preserveAspectRatio="none" style="width:189px;height:321px;" version="1.1" viewBox="0 0 189 321" width="189px" zoomAndPan="magnify"><defs><filter height="300%" id="f51zksa73epv8" width="300%" x="-1" y="-1"><feGaussianBlur result="blurOut" stdDeviation="2.0"/><feColorMatrix in="blurOut" result="blurOut2" type="matrix" values="0 0 0 0 0 0 0 0 0 0 0 0 0 0 0 0 0 0 .4 0"/><feOffset dx="4.0" dy="4.0" in="blurOut2" result="blurOut3"/><feBlend in="SourceGraphic" in2="blurOut3" mode="normal"/></filter></defs><g><!--MD5=[2cb47ba637a0d19583e6199456f6ad0b]
class Player--><rect fill="#FEFECE" filter="url(#f51zksa73epv8)" height="86.4141" id="Player" style="stroke: #A80036; stroke-width: 1.5;" width="172" x="6" y="116"/><ellipse cx="68.75" cy="132" fill="#ADD1B2" rx="11" ry="11" style="stroke: #A80036; stroke-width: 1.0;"/><path d="M71.7188,137.6406 Q71.1406,137.9375 70.5,138.0781 Q69.8594,138.2344 69.1563,138.2344 Q66.6563,138.2344 65.3281,136.5938 Q64.0156,134.9375 64.0156,131.8125 Q64.0156,128.6875 65.3281,127.0313 Q66.6563,125.375 69.1563,125.375 Q69.8594,125.375 70.5,125.5313 Q71.1563,125.6875 71.7188,125.9844 L71.7188,128.7031 Q71.0938,128.125 70.5,127.8594 Q69.9063,127.5781 69.2813,127.5781 Q67.9375,127.5781 67.25,128.6563 Q66.5625,129.7188 66.5625,131.8125 Q66.5625,133.9063 67.25,134.9844 Q67.9375,136.0469 69.2813,136.0469 Q69.9063,136.0469 70.5,135.7813 Q71.0938,135.5 71.7188,134.9219 L71.7188,137.6406 Z "/><text fill="#000000" font-family="sans-serif" font-size="12" lengthAdjust="spacingAndGlyphs" textLength="38" x="89.25" y="136.1543">Player</text><line style="stroke: #A80036; stroke-width: 1.5;" x1="7" x2="177" y1="148" y2="148"/><line style="stroke: #A80036; stroke-width: 1.5;" x1="7" x2="177" y1="156" y2="156"/><text fill="#000000" font-family="sans-serif" font-size="11" lengthAdjust="spacingAndGlyphs" textLength="71" x="12" y="170.2104">Start() : void</text><text fill="#000000" font-family="sans-serif" font-size="11" lengthAdjust="spacingAndGlyphs" textLength="83" x="12" y="183.0151">Update() : void</text><text fill="#000000" font-family="sans-serif" font-size="11" lengthAdjust="spacingAndGlyphs" textLength="160" x="12" y="195.8198">PlayerMoveKeyboard() : void</text><!--MD5=[83b3cf3d23d77c6f1e1b5291a241bc2a]
class MonoBehaviour--><rect fill="#FEFECE" filter="url(#f51zksa73epv8)" height="48" id="MonoBehaviour" style="stroke: #A80036; stroke-width: 1.5;" width="128" x="28" y="8"/><ellipse cx="43" cy="24" fill="#ADD1B2" rx="11" ry="11" style="stroke: #A80036; stroke-width: 1.0;"/><path d="M45.9688,29.6406 Q45.3906,29.9375 44.75,30.0781 Q44.1094,30.2344 43.4063,30.2344 Q40.9063,30.2344 39.5781,28.5938 Q38.2656,26.9375 38.2656,23.8125 Q38.2656,20.6875 39.5781,19.0313 Q40.9063,17.375 43.4063,17.375 Q44.1094,17.375 44.75,17.5313 Q45.4063,17.6875 45.9688,17.9844 L45.9688,20.7031 Q45.3438,20.125 44.75,19.8594 Q44.1563,19.5781 43.5313,19.5781 Q42.1875,19.5781 41.5,20.6563 Q40.8125,21.7188 40.8125,23.8125 Q40.8125,25.9063 41.5,26.9844 Q42.1875,28.0469 43.5313,28.0469 Q44.1563,28.0469 44.75,27.7813 Q45.3438,27.5 45.9688,26.9219 L45.9688,29.6406 Z "/><text fill="#000000" font-family="sans-serif" font-size="12" lengthAdjust="spacingAndGlyphs" textLength="96" x="57" y="28.1543">MonoBehaviour</text><line style="stroke: #A80036; stroke-width: 1.5;" x1="29" x2="155" y1="40" y2="40"/><line style="stroke: #A80036; stroke-width: 1.5;" x1="29" x2="155" y1="48" y2="48"/><!--MD5=[9541084ddaa1fec56a549847ca84025a]
class Rigidbody2D--><rect fill="#FEFECE" filter="url(#f51zksa73epv8)" height="48" id="Rigidbody2D" style="stroke: #A80036; stroke-width: 1.5;" width="109" x="37.5" y="262"/><ellipse cx="52.5" cy="278" fill="#ADD1B2" rx="11" ry="11" style="stroke: #A80036; stroke-width: 1.0;"/><path d="M55.4688,283.6406 Q54.8906,283.9375 54.25,284.0781 Q53.6094,284.2344 52.9063,284.2344 Q50.4063,284.2344 49.0781,282.5938 Q47.7656,280.9375 47.7656,277.8125 Q47.7656,274.6875 49.0781,273.0313 Q50.4063,271.375 52.9063,271.375 Q53.6094,271.375 54.25,271.5313 Q54.9063,271.6875 55.4688,271.9844 L55.4688,274.7031 Q54.8438,274.125 54.25,273.8594 Q53.6563,273.5781 53.0313,273.5781 Q51.6875,273.5781 51,274.6563 Q50.3125,275.7188 50.3125,277.8125 Q50.3125,279.9063 51,280.9844 Q51.6875,282.0469 53.0313,282.0469 Q53.6563,282.0469 54.25,281.7813 Q54.8438,281.5 55.4688,280.9219 L55.4688,283.6406 Z "/><text fill="#000000" font-family="sans-serif" font-size="12" lengthAdjust="spacingAndGlyphs" textLength="77" x="66.5" y="282.1543">Rigidbody2D</text><line style="stroke: #A80036; stroke-width: 1.5;" x1="38.5" x2="145.5" y1="294" y2="294"/><line style="stroke: #A80036; stroke-width: 1.5;" x1="38.5" x2="145.5" y1="302" y2="302"/><!--MD5=[9e7bca581b594119b79d4e5100fca2bf]
reverse link MonoBehaviour to Player--><path d="M92,76.27 C92,89.12 92,103.17 92,115.94 " fill="none" id="MonoBehaviour&lt;-Player" style="stroke: #A80036; stroke-width: 1.0;"/><polygon fill="none" points="85,76.22,92,56.22,99,76.22,85,76.22" style="stroke: #A80036; stroke-width: 1.0;"/><!--MD5=[0f7ee38e4246454f22e036283dd500af]
link Player to Rigidbody2D--><path d="M92,202.32 C92,220.14 92,240.41 92,256.42 " fill="none" id="Player-&gt;Rigidbody2D" style="stroke: #A80036; stroke-width: 1.0;"/><polygon fill="#A80036" points="92,261.67,96,252.67,92,256.67,88,252.67,92,261.67" style="stroke: #A80036; stroke-width: 1.0;"/><text fill="#000000" font-family="sans-serif" font-size="13" lengthAdjust="spacingAndGlyphs" textLength="52" x="33.6625" y="250.9945">myBody</text><!--MD5=[e56ec7d8bd20c4b8037eacc48fe29499]
@startuml
class Player {
    Start() : void
    Update() : void
    PlayerMoveKeyboard() : void
}
MonoBehaviour <|- - Player
Player - -> "myBody" Rigidbody2D
@enduml

PlantUML version 1.2020.02(Sun Mar 01 10:22:07 GMT 2020)
(GPL source distribution)
Java Runtime: OpenJDK Runtime Environment
JVM: OpenJDK 64-Bit Server VM
Java Version: 11.0.9+11-Ubuntu-0ubuntu1
Operating System: Linux
Default Encoding: ANSI_X3.4-1968
Language: en
Country: US
--></g></svg>