<?xml version="1.0" encoding="UTF-8" standalone="no"?><svg xmlns="http://www.w3.org/2000/svg" xmlns:xlink="http://www.w3.org/1999/xlink" contentScriptType="application/ecmascript" contentStyleType="text/css" height="303px" preserveAspectRatio="none" style="width:235px;height:303px;" version="1.1" viewBox="0 0 235 303" width="235px" zoomAndPan="magnify"><defs><filter height="300%" id="f1nt7y2vfgd79s" width="300%" x="-1" y="-1"><feGaussianBlur result="blurOut" stdDeviation="2.0"/><feColorMatrix in="blurOut" result="blurOut2" type="matrix" values="0 0 0 0 0 0 0 0 0 0 0 0 0 0 0 0 0 0 .4 0"/><feOffset dx="4.0" dy="4.0" in="blurOut2" result="blurOut3"/><feBlend in="SourceGraphic" in2="blurOut3" mode="normal"/></filter></defs><g><!--MD5=[ca969c565e434345b8c26f3cfa1c7c21]
class PlayerCharacter--><rect fill="#FEFECE" filter="url(#f1nt7y2vfgd79s)" height="176.0469" id="PlayerCharacter" style="stroke: #A80036; stroke-width: 1.5;" width="218" x="6" y="116"/><ellipse cx="60.75" cy="132" fill="#ADD1B2" rx="11" ry="11" style="stroke: #A80036; stroke-width: 1.0;"/><path d="M63.7188,137.6406 Q63.1406,137.9375 62.5,138.0781 Q61.8594,138.2344 61.1563,138.2344 Q58.6563,138.2344 57.3281,136.5938 Q56.0156,134.9375 56.0156,131.8125 Q56.0156,128.6875 57.3281,127.0313 Q58.6563,125.375 61.1563,125.375 Q61.8594,125.375 62.5,125.5313 Q63.1563,125.6875 63.7188,125.9844 L63.7188,128.7031 Q63.0938,128.125 62.5,127.8594 Q61.9063,127.5781 61.2813,127.5781 Q59.9375,127.5781 59.25,128.6563 Q58.5625,129.7188 58.5625,131.8125 Q58.5625,133.9063 59.25,134.9844 Q59.9375,136.0469 61.2813,136.0469 Q61.9063,136.0469 62.5,135.7813 Q63.0938,135.5 63.7188,134.9219 L63.7188,137.6406 Z "/><text fill="#000000" font-family="sans-serif" font-size="12" lengthAdjust="spacingAndGlyphs" textLength="100" x="81.25" y="136.1543">PlayerCharacter</text><line style="stroke: #A80036; stroke-width: 1.5;" x1="7" x2="223" y1="148" y2="148"/><ellipse cx="17" cy="159" fill="none" rx="3" ry="3" style="stroke: #038048; stroke-width: 1.0;"/><text fill="#000000" font-family="sans-serif" font-size="11" lengthAdjust="spacingAndGlyphs" textLength="136" x="26" y="162.2104">baseDamage : float = 1</text><ellipse cx="17" cy="171.8047" fill="none" rx="3" ry="3" style="stroke: #038048; stroke-width: 1.0;"/><text fill="#000000" font-family="sans-serif" font-size="11" lengthAdjust="spacingAndGlyphs" textLength="136" x="26" y="175.0151">baseSpeed : float = 10f</text><ellipse cx="17" cy="184.6094" fill="none" rx="3" ry="3" style="stroke: #038048; stroke-width: 1.0;"/><text fill="#000000" font-family="sans-serif" font-size="11" lengthAdjust="spacingAndGlyphs" textLength="125" x="26" y="187.8198">maxWeapons : int = 3</text><ellipse cx="17" cy="197.4141" fill="none" rx="3" ry="3" style="stroke: #038048; stroke-width: 1.0;"/><text fill="#000000" font-family="sans-serif" font-size="11" lengthAdjust="spacingAndGlyphs" textLength="106" x="26" y="200.6245">maxItems : int = 3</text><ellipse cx="17" cy="210.2188" fill="none" rx="3" ry="3" style="stroke: #038048; stroke-width: 1.0;"/><text fill="#000000" font-family="sans-serif" font-size="11" lengthAdjust="spacingAndGlyphs" textLength="139" x="26" y="213.4292">baseHealth : float = 100</text><line style="stroke: #A80036; stroke-width: 1.5;" x1="7" x2="223" y1="220.0234" y2="220.0234"/><text fill="#000000" font-family="sans-serif" font-size="11" lengthAdjust="spacingAndGlyphs" textLength="71" x="26" y="234.2339">Start() : void</text><text fill="#000000" font-family="sans-serif" font-size="11" lengthAdjust="spacingAndGlyphs" textLength="83" x="26" y="247.0386">Update() : void</text><ellipse cx="17" cy="256.6328" fill="#84BE84" rx="3" ry="3" style="stroke: #038048; stroke-width: 1.0;"/><text fill="#000000" font-family="sans-serif" font-size="11" lengthAdjust="spacingAndGlyphs" textLength="147" x="26" y="259.8433">GetPlayerDamage() : float</text><ellipse cx="17" cy="269.4375" fill="#84BE84" rx="3" ry="3" style="stroke: #038048; stroke-width: 1.0;"/><text fill="#000000" font-family="sans-serif" font-size="11" lengthAdjust="spacingAndGlyphs" textLength="192" x="26" y="272.6479">TakeDamage(damage:float) : void</text><ellipse cx="17" cy="282.2422" fill="#84BE84" rx="3" ry="3" style="stroke: #038048; stroke-width: 1.0;"/><text fill="#000000" font-family="sans-serif" font-size="11" lengthAdjust="spacingAndGlyphs" textLength="61" x="26" y="285.4526">Die() : void</text><!--MD5=[83b3cf3d23d77c6f1e1b5291a241bc2a]
class MonoBehaviour--><rect fill="#FEFECE" filter="url(#f1nt7y2vfgd79s)" height="48" id="MonoBehaviour" style="stroke: #A80036; stroke-width: 1.5;" width="128" x="51" y="8"/><ellipse cx="66" cy="24" fill="#ADD1B2" rx="11" ry="11" style="stroke: #A80036; stroke-width: 1.0;"/><path d="M68.9688,29.6406 Q68.3906,29.9375 67.75,30.0781 Q67.1094,30.2344 66.4063,30.2344 Q63.9063,30.2344 62.5781,28.5938 Q61.2656,26.9375 61.2656,23.8125 Q61.2656,20.6875 62.5781,19.0313 Q63.9063,17.375 66.4063,17.375 Q67.1094,17.375 67.75,17.5313 Q68.4063,17.6875 68.9688,17.9844 L68.9688,20.7031 Q68.3438,20.125 67.75,19.8594 Q67.1563,19.5781 66.5313,19.5781 Q65.1875,19.5781 64.5,20.6563 Q63.8125,21.7188 63.8125,23.8125 Q63.8125,25.9063 64.5,26.9844 Q65.1875,28.0469 66.5313,28.0469 Q67.1563,28.0469 67.75,27.7813 Q68.3438,27.5 68.9688,26.9219 L68.9688,29.6406 Z "/><text fill="#000000" font-family="sans-serif" font-size="12" lengthAdjust="spacingAndGlyphs" textLength="96" x="80" y="28.1543">MonoBehaviour</text><line style="stroke: #A80036; stroke-width: 1.5;" x1="52" x2="178" y1="40" y2="40"/><line style="stroke: #A80036; stroke-width: 1.5;" x1="52" x2="178" y1="48" y2="48"/><!--MD5=[aaa9829ebad757c11da1e647e72901a4]
reverse link MonoBehaviour to PlayerCharacter--><path d="M115,76.71 C115,88.77 115,102.3 115,115.9 " fill="none" id="MonoBehaviour&lt;-PlayerCharacter" style="stroke: #A80036; stroke-width: 1.0;"/><polygon fill="none" points="108,76.28,115,56.28,122,76.28,108,76.28" style="stroke: #A80036; stroke-width: 1.0;"/><!--MD5=[daa2e5d81f938a15f75deef4941737a0]
@startuml
class PlayerCharacter {
    + baseDamage : float = 1
    + baseSpeed : float = 10f
    + maxWeapons : int = 3
    + maxItems : int = 3
    + baseHealth : float = 100
    Start() : void
    Update() : void
    + GetPlayerDamage() : float
    + TakeDamage(damage:float) : void
    + Die() : void
}
MonoBehaviour <|- - PlayerCharacter
@enduml

PlantUML version 1.2020.02(Sun Mar 01 10:22:07 GMT 2020)
(GPL source distribution)
Java Runtime: OpenJDK Runtime Environment
JVM: OpenJDK 64-Bit Server VM
Java Version: 11.0.9+11-Ubuntu-0ubuntu1
Operating System: Linux
Default Encoding: ANSI_X3.4-1968
Language: en
Country: US
--></g></svg>