<?xml version="1.0" encoding="UTF-8" standalone="no"?><svg xmlns="http://www.w3.org/2000/svg" xmlns:xlink="http://www.w3.org/1999/xlink" contentScriptType="application/ecmascript" contentStyleType="text/css" height="264px" preserveAspectRatio="none" style="width:190px;height:264px;" version="1.1" viewBox="0 0 190 264" width="190px" zoomAndPan="magnify"><defs><filter height="300%" id="f17a93wwqgo6x8" width="300%" x="-1" y="-1"><feGaussianBlur result="blurOut" stdDeviation="2.0"/><feColorMatrix in="blurOut" result="blurOut2" type="matrix" values="0 0 0 0 0 0 0 0 0 0 0 0 0 0 0 0 0 0 .4 0"/><feOffset dx="4.0" dy="4.0" in="blurOut2" result="blurOut3"/><feBlend in="SourceGraphic" in2="blurOut3" mode="normal"/></filter></defs><g><!--MD5=[ca969c565e434345b8c26f3cfa1c7c21]
class PlayerCharacter--><rect fill="#FEFECE" filter="url(#f17a93wwqgo6x8)" height="137.6328" id="PlayerCharacter" style="stroke: #A80036; stroke-width: 1.5;" width="173" x="6" y="116"/><ellipse cx="39.45" cy="132" fill="#ADD1B2" rx="11" ry="11" style="stroke: #A80036; stroke-width: 1.0;"/><path d="M42.4188,137.6406 Q41.8406,137.9375 41.2,138.0781 Q40.5594,138.2344 39.8563,138.2344 Q37.3563,138.2344 36.0281,136.5938 Q34.7156,134.9375 34.7156,131.8125 Q34.7156,128.6875 36.0281,127.0313 Q37.3563,125.375 39.8563,125.375 Q40.5594,125.375 41.2,125.5313 Q41.8563,125.6875 42.4188,125.9844 L42.4188,128.7031 Q41.7938,128.125 41.2,127.8594 Q40.6063,127.5781 39.9813,127.5781 Q38.6375,127.5781 37.95,128.6563 Q37.2625,129.7188 37.2625,131.8125 Q37.2625,133.9063 37.95,134.9844 Q38.6375,136.0469 39.9813,136.0469 Q40.6063,136.0469 41.2,135.7813 Q41.7938,135.5 42.4188,134.9219 L42.4188,137.6406 Z "/><text fill="#000000" font-family="sans-serif" font-size="12" lengthAdjust="spacingAndGlyphs" textLength="100" x="57.55" y="136.1543">PlayerCharacter</text><line style="stroke: #A80036; stroke-width: 1.5;" x1="7" x2="178" y1="148" y2="148"/><ellipse cx="17" cy="159" fill="none" rx="3" ry="3" style="stroke: #038048; stroke-width: 1.0;"/><text fill="#000000" font-family="sans-serif" font-size="11" lengthAdjust="spacingAndGlyphs" textLength="136" x="26" y="162.2104">baseDamage : float = 1</text><ellipse cx="17" cy="171.8047" fill="none" rx="3" ry="3" style="stroke: #038048; stroke-width: 1.0;"/><text fill="#000000" font-family="sans-serif" font-size="11" lengthAdjust="spacingAndGlyphs" textLength="136" x="26" y="175.0151">baseSpeed : float = 10f</text><ellipse cx="17" cy="184.6094" fill="none" rx="3" ry="3" style="stroke: #038048; stroke-width: 1.0;"/><text fill="#000000" font-family="sans-serif" font-size="11" lengthAdjust="spacingAndGlyphs" textLength="125" x="26" y="187.8198">maxWeapons : int = 3</text><ellipse cx="17" cy="197.4141" fill="none" rx="3" ry="3" style="stroke: #038048; stroke-width: 1.0;"/><text fill="#000000" font-family="sans-serif" font-size="11" lengthAdjust="spacingAndGlyphs" textLength="106" x="26" y="200.6245">maxItems : int = 3</text><ellipse cx="17" cy="210.2188" fill="none" rx="3" ry="3" style="stroke: #038048; stroke-width: 1.0;"/><text fill="#000000" font-family="sans-serif" font-size="11" lengthAdjust="spacingAndGlyphs" textLength="132" x="26" y="213.4292">baseHealth : float = 10</text><line style="stroke: #A80036; stroke-width: 1.5;" x1="7" x2="178" y1="220.0234" y2="220.0234"/><text fill="#000000" font-family="sans-serif" font-size="11" lengthAdjust="spacingAndGlyphs" textLength="71" x="26" y="234.2339">Start() : void</text><ellipse cx="17" cy="243.8281" fill="#84BE84" rx="3" ry="3" style="stroke: #038048; stroke-width: 1.0;"/><text fill="#000000" font-family="sans-serif" font-size="11" lengthAdjust="spacingAndGlyphs" textLength="147" x="26" y="247.0386">GetPlayerDamage() : float</text><!--MD5=[83b3cf3d23d77c6f1e1b5291a241bc2a]
class MonoBehaviour--><rect fill="#FEFECE" filter="url(#f17a93wwqgo6x8)" height="48" id="MonoBehaviour" style="stroke: #A80036; stroke-width: 1.5;" width="128" x="28.5" y="8"/><ellipse cx="43.5" cy="24" fill="#ADD1B2" rx="11" ry="11" style="stroke: #A80036; stroke-width: 1.0;"/><path d="M46.4688,29.6406 Q45.8906,29.9375 45.25,30.0781 Q44.6094,30.2344 43.9063,30.2344 Q41.4063,30.2344 40.0781,28.5938 Q38.7656,26.9375 38.7656,23.8125 Q38.7656,20.6875 40.0781,19.0313 Q41.4063,17.375 43.9063,17.375 Q44.6094,17.375 45.25,17.5313 Q45.9063,17.6875 46.4688,17.9844 L46.4688,20.7031 Q45.8438,20.125 45.25,19.8594 Q44.6563,19.5781 44.0313,19.5781 Q42.6875,19.5781 42,20.6563 Q41.3125,21.7188 41.3125,23.8125 Q41.3125,25.9063 42,26.9844 Q42.6875,28.0469 44.0313,28.0469 Q44.6563,28.0469 45.25,27.7813 Q45.8438,27.5 46.4688,26.9219 L46.4688,29.6406 Z "/><text fill="#000000" font-family="sans-serif" font-size="12" lengthAdjust="spacingAndGlyphs" textLength="96" x="57.5" y="28.1543">MonoBehaviour</text><line style="stroke: #A80036; stroke-width: 1.5;" x1="29.5" x2="155.5" y1="40" y2="40"/><line style="stroke: #A80036; stroke-width: 1.5;" x1="29.5" x2="155.5" y1="48" y2="48"/><!--MD5=[aaa9829ebad757c11da1e647e72901a4]
reverse link MonoBehaviour to PlayerCharacter--><path d="M92.5,76.56 C92.5,88.87 92.5,102.57 92.5,115.96 " fill="none" id="MonoBehaviour&lt;-PlayerCharacter" style="stroke: #A80036; stroke-width: 1.0;"/><polygon fill="none" points="85.5,76.26,92.5,56.26,99.5,76.26,85.5,76.26" style="stroke: #A80036; stroke-width: 1.0;"/><!--MD5=[e15d64ddd0c284706edd96cd67293b1c]
@startuml
class PlayerCharacter {
    + baseDamage : float = 1
    + baseSpeed : float = 10f
    + maxWeapons : int = 3
    + maxItems : int = 3
    + baseHealth : float = 10
    Start() : void
    + GetPlayerDamage() : float
}
MonoBehaviour <|- - PlayerCharacter
@enduml

PlantUML version 1.2020.02(Sun Mar 01 10:22:07 GMT 2020)
(GPL source distribution)
Java Runtime: OpenJDK Runtime Environment
JVM: OpenJDK 64-Bit Server VM
Java Version: 11.0.9+11-Ubuntu-0ubuntu1
Operating System: Linux
Default Encoding: ANSI_X3.4-1968
Language: en
Country: US
--></g></svg>