<?xml version="1.0" encoding="UTF-8" standalone="no"?><svg xmlns="http://www.w3.org/2000/svg" xmlns:xlink="http://www.w3.org/1999/xlink" contentScriptType="application/ecmascript" contentStyleType="text/css" height="309px" preserveAspectRatio="none" style="width:262px;height:309px;" version="1.1" viewBox="0 0 262 309" width="262px" zoomAndPan="magnify"><defs><filter height="300%" id="f1v8bwq6wrmkof" width="300%" x="-1" y="-1"><feGaussianBlur result="blurOut" stdDeviation="2.0"/><feColorMatrix in="blurOut" result="blurOut2" type="matrix" values="0 0 0 0 0 0 0 0 0 0 0 0 0 0 0 0 0 0 .4 0"/><feOffset dx="4.0" dy="4.0" in="blurOut2" result="blurOut3"/><feBlend in="SourceGraphic" in2="blurOut3" mode="normal"/></filter></defs><g><!--MD5=[f86c51d9bb6ae420f6dd5b47ff0f8659]
class SettingMenu--><rect fill="#FEFECE" filter="url(#f1v8bwq6wrmkof)" height="73.6094" id="SettingMenu" style="stroke: #A80036; stroke-width: 1.5;" width="245" x="6" y="116"/><ellipse cx="84.75" cy="132" fill="#ADD1B2" rx="11" ry="11" style="stroke: #A80036; stroke-width: 1.0;"/><path d="M87.7188,137.6406 Q87.1406,137.9375 86.5,138.0781 Q85.8594,138.2344 85.1563,138.2344 Q82.6563,138.2344 81.3281,136.5938 Q80.0156,134.9375 80.0156,131.8125 Q80.0156,128.6875 81.3281,127.0313 Q82.6563,125.375 85.1563,125.375 Q85.8594,125.375 86.5,125.5313 Q87.1563,125.6875 87.7188,125.9844 L87.7188,128.7031 Q87.0938,128.125 86.5,127.8594 Q85.9063,127.5781 85.2813,127.5781 Q83.9375,127.5781 83.25,128.6563 Q82.5625,129.7188 82.5625,131.8125 Q82.5625,133.9063 83.25,134.9844 Q83.9375,136.0469 85.2813,136.0469 Q85.9063,136.0469 86.5,135.7813 Q87.0938,135.5 87.7188,134.9219 L87.7188,137.6406 Z "/><text fill="#000000" font-family="sans-serif" font-size="12" lengthAdjust="spacingAndGlyphs" textLength="79" x="105.25" y="136.1543">SettingMenu</text><line style="stroke: #A80036; stroke-width: 1.5;" x1="7" x2="250" y1="148" y2="148"/><line style="stroke: #A80036; stroke-width: 1.5;" x1="7" x2="250" y1="156" y2="156"/><ellipse cx="17" cy="167" fill="#84BE84" rx="3" ry="3" style="stroke: #038048; stroke-width: 1.0;"/><text fill="#000000" font-family="sans-serif" font-size="11" lengthAdjust="spacingAndGlyphs" textLength="219" x="26" y="170.2104">GoToScene(sceneName1:string) : void</text><ellipse cx="17" cy="179.8047" fill="#84BE84" rx="3" ry="3" style="stroke: #038048; stroke-width: 1.0;"/><text fill="#000000" font-family="sans-serif" font-size="11" lengthAdjust="spacingAndGlyphs" textLength="174" x="26" y="183.0151">SetVolume(volume:float) : void</text><!--MD5=[83b3cf3d23d77c6f1e1b5291a241bc2a]
class MonoBehaviour--><rect fill="#FEFECE" filter="url(#f1v8bwq6wrmkof)" height="48" id="MonoBehaviour" style="stroke: #A80036; stroke-width: 1.5;" width="128" x="64.5" y="8"/><ellipse cx="79.5" cy="24" fill="#ADD1B2" rx="11" ry="11" style="stroke: #A80036; stroke-width: 1.0;"/><path d="M82.4688,29.6406 Q81.8906,29.9375 81.25,30.0781 Q80.6094,30.2344 79.9063,30.2344 Q77.4063,30.2344 76.0781,28.5938 Q74.7656,26.9375 74.7656,23.8125 Q74.7656,20.6875 76.0781,19.0313 Q77.4063,17.375 79.9063,17.375 Q80.6094,17.375 81.25,17.5313 Q81.9063,17.6875 82.4688,17.9844 L82.4688,20.7031 Q81.8438,20.125 81.25,19.8594 Q80.6563,19.5781 80.0313,19.5781 Q78.6875,19.5781 78,20.6563 Q77.3125,21.7188 77.3125,23.8125 Q77.3125,25.9063 78,26.9844 Q78.6875,28.0469 80.0313,28.0469 Q80.6563,28.0469 81.25,27.7813 Q81.8438,27.5 82.4688,26.9219 L82.4688,29.6406 Z "/><text fill="#000000" font-family="sans-serif" font-size="12" lengthAdjust="spacingAndGlyphs" textLength="96" x="93.5" y="28.1543">MonoBehaviour</text><line style="stroke: #A80036; stroke-width: 1.5;" x1="65.5" x2="191.5" y1="40" y2="40"/><line style="stroke: #A80036; stroke-width: 1.5;" x1="65.5" x2="191.5" y1="48" y2="48"/><!--MD5=[a6b220b404c008a7ef1632f6783d5890]
class AudioMixer--><rect fill="#FEFECE" filter="url(#f1v8bwq6wrmkof)" height="48" id="AudioMixer" style="stroke: #A80036; stroke-width: 1.5;" width="99" x="79" y="250"/><ellipse cx="94" cy="266" fill="#ADD1B2" rx="11" ry="11" style="stroke: #A80036; stroke-width: 1.0;"/><path d="M96.9688,271.6406 Q96.3906,271.9375 95.75,272.0781 Q95.1094,272.2344 94.4063,272.2344 Q91.9063,272.2344 90.5781,270.5938 Q89.2656,268.9375 89.2656,265.8125 Q89.2656,262.6875 90.5781,261.0313 Q91.9063,259.375 94.4063,259.375 Q95.1094,259.375 95.75,259.5313 Q96.4063,259.6875 96.9688,259.9844 L96.9688,262.7031 Q96.3438,262.125 95.75,261.8594 Q95.1563,261.5781 94.5313,261.5781 Q93.1875,261.5781 92.5,262.6563 Q91.8125,263.7188 91.8125,265.8125 Q91.8125,267.9063 92.5,268.9844 Q93.1875,270.0469 94.5313,270.0469 Q95.1563,270.0469 95.75,269.7813 Q96.3438,269.5 96.9688,268.9219 L96.9688,271.6406 Z "/><text fill="#000000" font-family="sans-serif" font-size="12" lengthAdjust="spacingAndGlyphs" textLength="67" x="108" y="270.1543">AudioMixer</text><line style="stroke: #A80036; stroke-width: 1.5;" x1="80" x2="177" y1="282" y2="282"/><line style="stroke: #A80036; stroke-width: 1.5;" x1="80" x2="177" y1="290" y2="290"/><!--MD5=[7d9ed2fc991e867b140d9e58309e9e72]
reverse link MonoBehaviour to SettingMenu--><path d="M128.5,76.43 C128.5,89.33 128.5,103.32 128.5,115.71 " fill="none" id="MonoBehaviour&lt;-SettingMenu" style="stroke: #A80036; stroke-width: 1.0;"/><polygon fill="none" points="121.5,76.23,128.5,56.23,135.5,76.23,121.5,76.23" style="stroke: #A80036; stroke-width: 1.0;"/><!--MD5=[36d61459b1971bb563b7311ed576f039]
link SettingMenu to AudioMixer--><path d="M128.5,190.03 C128.5,207.48 128.5,228.15 128.5,244.49 " fill="none" id="SettingMenu-&gt;AudioMixer" style="stroke: #A80036; stroke-width: 1.0;"/><polygon fill="#A80036" points="128.5,249.85,132.5,240.85,128.5,244.85,124.5,240.85,128.5,249.85" style="stroke: #A80036; stroke-width: 1.0;"/><text fill="#000000" font-family="sans-serif" font-size="13" lengthAdjust="spacingAndGlyphs" textLength="69" x="50.6594" y="238.8236">audioMixer</text><!--MD5=[387d9d4c9986029d826d45ad510cbb7e]
@startuml
class SettingMenu {
    + GoToScene(sceneName1:string) : void
    + SetVolume(volume:float) : void
}
MonoBehaviour <|- - SettingMenu
SettingMenu - -> "audioMixer" AudioMixer
@enduml

PlantUML version 1.2020.02(Sun Mar 01 10:22:07 GMT 2020)
(GPL source distribution)
Java Runtime: OpenJDK Runtime Environment
JVM: OpenJDK 64-Bit Server VM
Java Version: 11.0.9+11-Ubuntu-0ubuntu1
Operating System: Linux
Default Encoding: ANSI_X3.4-1968
Language: en
Country: US
--></g></svg>