<?xml version="1.0" encoding="UTF-8" standalone="no"?><svg xmlns="http://www.w3.org/2000/svg" xmlns:xlink="http://www.w3.org/1999/xlink" contentScriptType="application/ecmascript" contentStyleType="text/css" height="347px" preserveAspectRatio="none" style="width:162px;height:347px;" version="1.1" viewBox="0 0 162 347" width="162px" zoomAndPan="magnify"><defs><filter height="300%" id="f1vxcdof5himhr" width="300%" x="-1" y="-1"><feGaussianBlur result="blurOut" stdDeviation="2.0"/><feColorMatrix in="blurOut" result="blurOut2" type="matrix" values="0 0 0 0 0 0 0 0 0 0 0 0 0 0 0 0 0 0 .4 0"/><feOffset dx="4.0" dy="4.0" in="blurOut2" result="blurOut3"/><feBlend in="SourceGraphic" in2="blurOut3" mode="normal"/></filter></defs><g><!--MD5=[1b844c90688aafb95cd8c95626c3b83a]
class Timer--><rect fill="#FEFECE" filter="url(#f1vxcdof5himhr)" height="112.0234" id="Timer" style="stroke: #A80036; stroke-width: 1.5;" width="138" x="13" y="116"/><ellipse cx="60.75" cy="132" fill="#ADD1B2" rx="11" ry="11" style="stroke: #A80036; stroke-width: 1.0;"/><path d="M63.7188,137.6406 Q63.1406,137.9375 62.5,138.0781 Q61.8594,138.2344 61.1563,138.2344 Q58.6563,138.2344 57.3281,136.5938 Q56.0156,134.9375 56.0156,131.8125 Q56.0156,128.6875 57.3281,127.0313 Q58.6563,125.375 61.1563,125.375 Q61.8594,125.375 62.5,125.5313 Q63.1563,125.6875 63.7188,125.9844 L63.7188,128.7031 Q63.0938,128.125 62.5,127.8594 Q61.9063,127.5781 61.2813,127.5781 Q59.9375,127.5781 59.25,128.6563 Q58.5625,129.7188 58.5625,131.8125 Q58.5625,133.9063 59.25,134.9844 Q59.9375,136.0469 61.2813,136.0469 Q61.9063,136.0469 62.5,135.7813 Q63.0938,135.5 63.7188,134.9219 L63.7188,137.6406 Z "/><text fill="#000000" font-family="sans-serif" font-size="12" lengthAdjust="spacingAndGlyphs" textLength="34" x="81.25" y="136.1543">Timer</text><line style="stroke: #A80036; stroke-width: 1.5;" x1="14" x2="150" y1="148" y2="148"/><line style="stroke: #A80036; stroke-width: 1.5;" x1="14" x2="150" y1="156" y2="156"/><text fill="#000000" font-family="sans-serif" font-size="11" lengthAdjust="spacingAndGlyphs" textLength="83" x="33" y="170.2104">Update() : void</text><text fill="#000000" font-family="sans-serif" font-size="11" lengthAdjust="spacingAndGlyphs" textLength="112" x="33" y="183.0151">DisplayTime() : void</text><ellipse cx="24" cy="192.6094" fill="#84BE84" rx="3" ry="3" style="stroke: #038048; stroke-width: 1.0;"/><text fill="#000000" font-family="sans-serif" font-size="11" lengthAdjust="spacingAndGlyphs" textLength="104" x="33" y="195.8198">StartTimer() : void</text><ellipse cx="24" cy="205.4141" fill="#84BE84" rx="3" ry="3" style="stroke: #038048; stroke-width: 1.0;"/><text fill="#000000" font-family="sans-serif" font-size="11" lengthAdjust="spacingAndGlyphs" textLength="102" x="33" y="208.6245">StopTimer() : void</text><ellipse cx="24" cy="218.2188" fill="#84BE84" rx="3" ry="3" style="stroke: #038048; stroke-width: 1.0;"/><text fill="#000000" font-family="sans-serif" font-size="11" lengthAdjust="spacingAndGlyphs" textLength="108" x="33" y="221.4292">ResetTimer() : void</text><!--MD5=[83b3cf3d23d77c6f1e1b5291a241bc2a]
class MonoBehaviour--><rect fill="#FEFECE" filter="url(#f1vxcdof5himhr)" height="48" id="MonoBehaviour" style="stroke: #A80036; stroke-width: 1.5;" width="128" x="18" y="8"/><ellipse cx="33" cy="24" fill="#ADD1B2" rx="11" ry="11" style="stroke: #A80036; stroke-width: 1.0;"/><path d="M35.9688,29.6406 Q35.3906,29.9375 34.75,30.0781 Q34.1094,30.2344 33.4063,30.2344 Q30.9063,30.2344 29.5781,28.5938 Q28.2656,26.9375 28.2656,23.8125 Q28.2656,20.6875 29.5781,19.0313 Q30.9063,17.375 33.4063,17.375 Q34.1094,17.375 34.75,17.5313 Q35.4063,17.6875 35.9688,17.9844 L35.9688,20.7031 Q35.3438,20.125 34.75,19.8594 Q34.1563,19.5781 33.5313,19.5781 Q32.1875,19.5781 31.5,20.6563 Q30.8125,21.7188 30.8125,23.8125 Q30.8125,25.9063 31.5,26.9844 Q32.1875,28.0469 33.5313,28.0469 Q34.1563,28.0469 34.75,27.7813 Q35.3438,27.5 35.9688,26.9219 L35.9688,29.6406 Z "/><text fill="#000000" font-family="sans-serif" font-size="12" lengthAdjust="spacingAndGlyphs" textLength="96" x="47" y="28.1543">MonoBehaviour</text><line style="stroke: #A80036; stroke-width: 1.5;" x1="19" x2="145" y1="40" y2="40"/><line style="stroke: #A80036; stroke-width: 1.5;" x1="19" x2="145" y1="48" y2="48"/><!--MD5=[fa07864ef55e7d1943fa981e1ee9b4e7]
class TMP_Text--><rect fill="#FEFECE" filter="url(#f1vxcdof5himhr)" height="48" id="TMP_Text" style="stroke: #A80036; stroke-width: 1.5;" width="89" x="37.5" y="288"/><ellipse cx="52.5" cy="304" fill="#ADD1B2" rx="11" ry="11" style="stroke: #A80036; stroke-width: 1.0;"/><path d="M55.4688,309.6406 Q54.8906,309.9375 54.25,310.0781 Q53.6094,310.2344 52.9063,310.2344 Q50.4063,310.2344 49.0781,308.5938 Q47.7656,306.9375 47.7656,303.8125 Q47.7656,300.6875 49.0781,299.0313 Q50.4063,297.375 52.9063,297.375 Q53.6094,297.375 54.25,297.5313 Q54.9063,297.6875 55.4688,297.9844 L55.4688,300.7031 Q54.8438,300.125 54.25,299.8594 Q53.6563,299.5781 53.0313,299.5781 Q51.6875,299.5781 51,300.6563 Q50.3125,301.7188 50.3125,303.8125 Q50.3125,305.9063 51,306.9844 Q51.6875,308.0469 53.0313,308.0469 Q53.6563,308.0469 54.25,307.7813 Q54.8438,307.5 55.4688,306.9219 L55.4688,309.6406 Z "/><text fill="#000000" font-family="sans-serif" font-size="12" lengthAdjust="spacingAndGlyphs" textLength="57" x="66.5" y="308.1543">TMP_Text</text><line style="stroke: #A80036; stroke-width: 1.5;" x1="38.5" x2="125.5" y1="320" y2="320"/><line style="stroke: #A80036; stroke-width: 1.5;" x1="38.5" x2="125.5" y1="328" y2="328"/><!--MD5=[65c0e49bfc4d858f02fb50619d36140e]
reverse link MonoBehaviour to Timer--><path d="M82,76.25 C82,88.82 82,102.73 82,115.93 " fill="none" id="MonoBehaviour&lt;-Timer" style="stroke: #A80036; stroke-width: 1.0;"/><polygon fill="none" points="75,76.1,82,56.1,89,76.1,75,76.1" style="stroke: #A80036; stroke-width: 1.0;"/><!--MD5=[769070ddea15d1d6c4a73f1b7292701c]
link Timer to TMP_Text--><path d="M82,228.33 C82,246.93 82,266.9 82,282.56 " fill="none" id="Timer-&gt;TMP_Text" style="stroke: #A80036; stroke-width: 1.0;"/><polygon fill="#A80036" points="82,287.69,86,278.69,82,282.69,78,278.69,82,287.69" style="stroke: #A80036; stroke-width: 1.0;"/><text fill="#000000" font-family="sans-serif" font-size="13" lengthAdjust="spacingAndGlyphs" textLength="61" x="13.5656" y="277.0194">textTimer</text><!--MD5=[8fc7b79329852b9497cd0c6afbcfd535]
@startuml
class Timer {
    Update() : void
    DisplayTime() : void
    + StartTimer() : void
    + StopTimer() : void
    + ResetTimer() : void
}
MonoBehaviour <|- - Timer
Timer - -> "textTimer" TMP_Text
@enduml

PlantUML version 1.2020.02(Sun Mar 01 10:22:07 GMT 2020)
(GPL source distribution)
Java Runtime: OpenJDK Runtime Environment
JVM: OpenJDK 64-Bit Server VM
Java Version: 11.0.9+11-Ubuntu-0ubuntu1
Operating System: Linux
Default Encoding: ANSI_X3.4-1968
Language: en
Country: US
--></g></svg>