<?xml version="1.0" encoding="UTF-8" standalone="no"?><svg xmlns="http://www.w3.org/2000/svg" xmlns:xlink="http://www.w3.org/1999/xlink" contentScriptType="application/ecmascript" contentStyleType="text/css" height="200px" preserveAspectRatio="none" style="width:172px;height:200px;" version="1.1" viewBox="0 0 172 200" width="172px" zoomAndPan="magnify"><defs><filter height="300%" id="f1f6y6p7g1al99" width="300%" x="-1" y="-1"><feGaussianBlur result="blurOut" stdDeviation="2.0"/><feColorMatrix in="blurOut" result="blurOut2" type="matrix" values="0 0 0 0 0 0 0 0 0 0 0 0 0 0 0 0 0 0 .4 0"/><feOffset dx="4.0" dy="4.0" in="blurOut2" result="blurOut3"/><feBlend in="SourceGraphic" in2="blurOut3" mode="normal"/></filter></defs><g><!--MD5=[d497f21525967ca388b3136b411e7614]
class Lightning_Ball--><rect fill="#FEFECE" filter="url(#f1f6y6p7g1al99)" height="73.6094" id="Lightning_Ball" style="stroke: #A80036; stroke-width: 1.5;" width="155" x="6" y="116"/><ellipse cx="38.1" cy="132" fill="#ADD1B2" rx="11" ry="11" style="stroke: #A80036; stroke-width: 1.0;"/><path d="M41.0688,137.6406 Q40.4906,137.9375 39.85,138.0781 Q39.2094,138.2344 38.5063,138.2344 Q36.0063,138.2344 34.6781,136.5938 Q33.3656,134.9375 33.3656,131.8125 Q33.3656,128.6875 34.6781,127.0313 Q36.0063,125.375 38.5063,125.375 Q39.2094,125.375 39.85,125.5313 Q40.5063,125.6875 41.0688,125.9844 L41.0688,128.7031 Q40.4438,128.125 39.85,127.8594 Q39.2563,127.5781 38.6313,127.5781 Q37.2875,127.5781 36.6,128.6563 Q35.9125,129.7188 35.9125,131.8125 Q35.9125,133.9063 36.6,134.9844 Q37.2875,136.0469 38.6313,136.0469 Q39.2563,136.0469 39.85,135.7813 Q40.4438,135.5 41.0688,134.9219 L41.0688,137.6406 Z "/><text fill="#000000" font-family="sans-serif" font-size="12" lengthAdjust="spacingAndGlyphs" textLength="85" x="55.9" y="136.1543">Lightning_Ball</text><line style="stroke: #A80036; stroke-width: 1.5;" x1="7" x2="160" y1="148" y2="148"/><line style="stroke: #A80036; stroke-width: 1.5;" x1="7" x2="160" y1="156" y2="156"/><ellipse cx="17" cy="167" fill="#84BE84" rx="3" ry="3" style="stroke: #038048; stroke-width: 1.0;"/><text fill="#000000" font-family="sans-serif" font-size="11" lengthAdjust="spacingAndGlyphs" textLength="129" x="26" y="170.2104">«override» Fire() : void</text><text fill="#000000" font-family="sans-serif" font-size="11" lengthAdjust="spacingAndGlyphs" textLength="124" x="26" y="183.0151">«new» Update() : void</text><!--MD5=[a3f6aaa3f93db2c29fed664e0312b4de]
class Weapon--><rect fill="#FEFECE" filter="url(#f1f6y6p7g1al99)" height="48" id="Weapon" style="stroke: #A80036; stroke-width: 1.5;" width="83" x="42" y="8"/><ellipse cx="57" cy="24" fill="#ADD1B2" rx="11" ry="11" style="stroke: #A80036; stroke-width: 1.0;"/><path d="M59.9688,29.6406 Q59.3906,29.9375 58.75,30.0781 Q58.1094,30.2344 57.4063,30.2344 Q54.9063,30.2344 53.5781,28.5938 Q52.2656,26.9375 52.2656,23.8125 Q52.2656,20.6875 53.5781,19.0313 Q54.9063,17.375 57.4063,17.375 Q58.1094,17.375 58.75,17.5313 Q59.4063,17.6875 59.9688,17.9844 L59.9688,20.7031 Q59.3438,20.125 58.75,19.8594 Q58.1563,19.5781 57.5313,19.5781 Q56.1875,19.5781 55.5,20.6563 Q54.8125,21.7188 54.8125,23.8125 Q54.8125,25.9063 55.5,26.9844 Q56.1875,28.0469 57.5313,28.0469 Q58.1563,28.0469 58.75,27.7813 Q59.3438,27.5 59.9688,26.9219 L59.9688,29.6406 Z "/><text fill="#000000" font-family="sans-serif" font-size="12" lengthAdjust="spacingAndGlyphs" textLength="51" x="71" y="28.1543">Weapon</text><line style="stroke: #A80036; stroke-width: 1.5;" x1="43" x2="124" y1="40" y2="40"/><line style="stroke: #A80036; stroke-width: 1.5;" x1="43" x2="124" y1="48" y2="48"/><!--MD5=[7d2f05665ae649bfd959ed93c007988a]
reverse link Weapon to Lightning_Ball--><path d="M83.5,76.43 C83.5,89.33 83.5,103.32 83.5,115.71 " fill="none" id="Weapon&lt;-Lightning_Ball" style="stroke: #A80036; stroke-width: 1.0;"/><polygon fill="none" points="76.5,76.23,83.5,56.23,90.5,76.23,76.5,76.23" style="stroke: #A80036; stroke-width: 1.0;"/><!--MD5=[d24f2cebc436f9bb83f6d33505231c79]
@startuml
class Lightning_Ball {
    + <<override>> Fire() : void
    <<new>> Update() : void
}
Weapon <|- - Lightning_Ball
@enduml

PlantUML version 1.2020.02(Sun Mar 01 10:22:07 GMT 2020)
(GPL source distribution)
Java Runtime: OpenJDK Runtime Environment
JVM: OpenJDK 64-Bit Server VM
Java Version: 11.0.9+11-Ubuntu-0ubuntu1
Operating System: Linux
Default Encoding: ANSI_X3.4-1968
Language: en
Country: US
--></g></svg>