<?xml version="1.0" encoding="UTF-8" standalone="no"?><svg xmlns="http://www.w3.org/2000/svg" xmlns:xlink="http://www.w3.org/1999/xlink" contentScriptType="application/ecmascript" contentStyleType="text/css" height="334px" preserveAspectRatio="none" style="width:238px;height:334px;" version="1.1" viewBox="0 0 238 334" width="238px" zoomAndPan="magnify"><defs><filter height="300%" id="f1jbruf5j4e738" width="300%" x="-1" y="-1"><feGaussianBlur result="blurOut" stdDeviation="2.0"/><feColorMatrix in="blurOut" result="blurOut2" type="matrix" values="0 0 0 0 0 0 0 0 0 0 0 0 0 0 0 0 0 0 .4 0"/><feOffset dx="4.0" dy="4.0" in="blurOut2" result="blurOut3"/><feBlend in="SourceGraphic" in2="blurOut3" mode="normal"/></filter></defs><g><!--MD5=[651b6c7430d7ddbe94ba48ff461ae10b]
class Player1_BasicAttack_Projectile--><rect fill="#FEFECE" filter="url(#f1jbruf5j4e738)" height="99.2188" id="Player1_BasicAttack_Projectile" style="stroke: #A80036; stroke-width: 1.5;" width="221" x="6" y="116"/><ellipse cx="21" cy="132" fill="#ADD1B2" rx="11" ry="11" style="stroke: #A80036; stroke-width: 1.0;"/><path d="M23.9688,137.6406 Q23.3906,137.9375 22.75,138.0781 Q22.1094,138.2344 21.4063,138.2344 Q18.9063,138.2344 17.5781,136.5938 Q16.2656,134.9375 16.2656,131.8125 Q16.2656,128.6875 17.5781,127.0313 Q18.9063,125.375 21.4063,125.375 Q22.1094,125.375 22.75,125.5313 Q23.4063,125.6875 23.9688,125.9844 L23.9688,128.7031 Q23.3438,128.125 22.75,127.8594 Q22.1563,127.5781 21.5313,127.5781 Q20.1875,127.5781 19.5,128.6563 Q18.8125,129.7188 18.8125,131.8125 Q18.8125,133.9063 19.5,134.9844 Q20.1875,136.0469 21.5313,136.0469 Q22.1563,136.0469 22.75,135.7813 Q23.3438,135.5 23.9688,134.9219 L23.9688,137.6406 Z "/><text fill="#000000" font-family="sans-serif" font-size="12" lengthAdjust="spacingAndGlyphs" textLength="189" x="35" y="136.1543">Player1_BasicAttack_Projectile</text><line style="stroke: #A80036; stroke-width: 1.5;" x1="7" x2="226" y1="148" y2="148"/><text fill="#000000" font-family="sans-serif" font-size="11" lengthAdjust="spacingAndGlyphs" textLength="94" x="12" y="162.2104">offset : float = 0</text><line style="stroke: #A80036; stroke-width: 1.5;" x1="7" x2="226" y1="168.8047" y2="168.8047"/><text fill="#000000" font-family="sans-serif" font-size="11" lengthAdjust="spacingAndGlyphs" textLength="71" x="12" y="183.0151">Start() : void</text><text fill="#000000" font-family="sans-serif" font-size="11" lengthAdjust="spacingAndGlyphs" textLength="198" x="12" y="195.8198">«new» Move(deltaTime:float) : void</text><text fill="#000000" font-family="sans-serif" font-size="11" lengthAdjust="spacingAndGlyphs" textLength="124" x="12" y="208.6245">«new» Update() : void</text><!--MD5=[9e086ae7cb173547c374b8a4e58c7dec]
class Projectile--><rect fill="#FEFECE" filter="url(#f1jbruf5j4e738)" height="48" id="Projectile" style="stroke: #A80036; stroke-width: 1.5;" width="90" x="71.5" y="8"/><ellipse cx="86.5" cy="24" fill="#ADD1B2" rx="11" ry="11" style="stroke: #A80036; stroke-width: 1.0;"/><path d="M89.4688,29.6406 Q88.8906,29.9375 88.25,30.0781 Q87.6094,30.2344 86.9063,30.2344 Q84.4063,30.2344 83.0781,28.5938 Q81.7656,26.9375 81.7656,23.8125 Q81.7656,20.6875 83.0781,19.0313 Q84.4063,17.375 86.9063,17.375 Q87.6094,17.375 88.25,17.5313 Q88.9063,17.6875 89.4688,17.9844 L89.4688,20.7031 Q88.8438,20.125 88.25,19.8594 Q87.6563,19.5781 87.0313,19.5781 Q85.6875,19.5781 85,20.6563 Q84.3125,21.7188 84.3125,23.8125 Q84.3125,25.9063 85,26.9844 Q85.6875,28.0469 87.0313,28.0469 Q87.6563,28.0469 88.25,27.7813 Q88.8438,27.5 89.4688,26.9219 L89.4688,29.6406 Z "/><text fill="#000000" font-family="sans-serif" font-size="12" lengthAdjust="spacingAndGlyphs" textLength="58" x="100.5" y="28.1543">Projectile</text><line style="stroke: #A80036; stroke-width: 1.5;" x1="72.5" x2="160.5" y1="40" y2="40"/><line style="stroke: #A80036; stroke-width: 1.5;" x1="72.5" x2="160.5" y1="48" y2="48"/><!--MD5=[064f7a74fee85463ec1a30143664ee17]
class GameObject--><rect fill="#FEFECE" filter="url(#f1jbruf5j4e738)" height="48" id="GameObject" style="stroke: #A80036; stroke-width: 1.5;" width="108" x="62.5" y="275"/><ellipse cx="77.5" cy="291" fill="#ADD1B2" rx="11" ry="11" style="stroke: #A80036; stroke-width: 1.0;"/><path d="M80.4688,296.6406 Q79.8906,296.9375 79.25,297.0781 Q78.6094,297.2344 77.9063,297.2344 Q75.4063,297.2344 74.0781,295.5938 Q72.7656,293.9375 72.7656,290.8125 Q72.7656,287.6875 74.0781,286.0313 Q75.4063,284.375 77.9063,284.375 Q78.6094,284.375 79.25,284.5313 Q79.9063,284.6875 80.4688,284.9844 L80.4688,287.7031 Q79.8438,287.125 79.25,286.8594 Q78.6563,286.5781 78.0313,286.5781 Q76.6875,286.5781 76,287.6563 Q75.3125,288.7188 75.3125,290.8125 Q75.3125,292.9063 76,293.9844 Q76.6875,295.0469 78.0313,295.0469 Q78.6563,295.0469 79.25,294.7813 Q79.8438,294.5 80.4688,293.9219 L80.4688,296.6406 Z "/><text fill="#000000" font-family="sans-serif" font-size="12" lengthAdjust="spacingAndGlyphs" textLength="76" x="91.5" y="295.1543">GameObject</text><line style="stroke: #A80036; stroke-width: 1.5;" x1="63.5" x2="169.5" y1="307" y2="307"/><line style="stroke: #A80036; stroke-width: 1.5;" x1="63.5" x2="169.5" y1="315" y2="315"/><!--MD5=[5f00edfcb6df939b5dbd4f04385dcb71]
reverse link Projectile to Player1_BasicAttack_Projectile--><path d="M116.5,76.51 C116.5,89.14 116.5,103.01 116.5,115.93 " fill="none" id="Projectile&lt;-Player1_BasicAttack_Projectile" style="stroke: #A80036; stroke-width: 1.0;"/><polygon fill="none" points="109.5,76.21,116.5,56.21,123.5,76.21,109.5,76.21" style="stroke: #A80036; stroke-width: 1.0;"/><!--MD5=[fe0911a05d67f89887f4588e43b31bc7]
link Player1_BasicAttack_Projectile to GameObject--><path d="M116.5,215.09 C116.5,233.5 116.5,253.83 116.5,269.75 " fill="none" id="Player1_BasicAttack_Projectile-&gt;GameObject" style="stroke: #A80036; stroke-width: 1.0;"/><polygon fill="#A80036" points="116.5,274.98,120.5,265.98,116.5,269.98,112.5,265.98,116.5,274.98" style="stroke: #A80036; stroke-width: 1.0;"/><text fill="#000000" font-family="sans-serif" font-size="13" lengthAdjust="spacingAndGlyphs" textLength="39" x="72.5031" y="263.9869">player</text><!--MD5=[e9b9d53d5062ef49c40ece39eaf48fc4]
@startuml
class Player1_BasicAttack_Projectile {
    offset : float = 0
    Start() : void
    <<new>> Move(deltaTime:float) : void
    <<new>> Update() : void
}
Projectile <|- - Player1_BasicAttack_Projectile
Player1_BasicAttack_Projectile - -> "player" GameObject
@enduml

PlantUML version 1.2020.02(Sun Mar 01 10:22:07 GMT 2020)
(GPL source distribution)
Java Runtime: OpenJDK Runtime Environment
JVM: OpenJDK 64-Bit Server VM
Java Version: 11.0.9+11-Ubuntu-0ubuntu1
Operating System: Linux
Default Encoding: ANSI_X3.4-1968
Language: en
Country: US
--></g></svg>