<?xml version="1.0" encoding="UTF-8" standalone="no"?><svg xmlns="http://www.w3.org/2000/svg" xmlns:xlink="http://www.w3.org/1999/xlink" contentScriptType="application/ecmascript" contentStyleType="text/css" height="437px" preserveAspectRatio="none" style="width:289px;height:437px;" version="1.1" viewBox="0 0 289 437" width="289px" zoomAndPan="magnify"><defs><filter height="300%" id="f166ts5mk1elgy" width="300%" x="-1" y="-1"><feGaussianBlur result="blurOut" stdDeviation="2.0"/><feColorMatrix in="blurOut" result="blurOut2" type="matrix" values="0 0 0 0 0 0 0 0 0 0 0 0 0 0 0 0 0 0 .4 0"/><feOffset dx="4.0" dy="4.0" in="blurOut2" result="blurOut3"/><feBlend in="SourceGraphic" in2="blurOut3" mode="normal"/></filter></defs><g><!--MD5=[15cf9f8a0ec3fa4e02c6c43fe128110d]
class Player3_BasicAttack_Projectile--><rect fill="#FEFECE" filter="url(#f166ts5mk1elgy)" height="201.6563" id="Player3_BasicAttack_Projectile" style="stroke: #A80036; stroke-width: 1.5;" width="221" x="37" y="116"/><ellipse cx="52" cy="132" fill="#ADD1B2" rx="11" ry="11" style="stroke: #A80036; stroke-width: 1.0;"/><path d="M54.9688,137.6406 Q54.3906,137.9375 53.75,138.0781 Q53.1094,138.2344 52.4063,138.2344 Q49.9063,138.2344 48.5781,136.5938 Q47.2656,134.9375 47.2656,131.8125 Q47.2656,128.6875 48.5781,127.0313 Q49.9063,125.375 52.4063,125.375 Q53.1094,125.375 53.75,125.5313 Q54.4063,125.6875 54.9688,125.9844 L54.9688,128.7031 Q54.3438,128.125 53.75,127.8594 Q53.1563,127.5781 52.5313,127.5781 Q51.1875,127.5781 50.5,128.6563 Q49.8125,129.7188 49.8125,131.8125 Q49.8125,133.9063 50.5,134.9844 Q51.1875,136.0469 52.5313,136.0469 Q53.1563,136.0469 53.75,135.7813 Q54.3438,135.5 54.9688,134.9219 L54.9688,137.6406 Z "/><text fill="#000000" font-family="sans-serif" font-size="12" lengthAdjust="spacingAndGlyphs" textLength="189" x="66" y="136.1543">Player3_BasicAttack_Projectile</text><line style="stroke: #A80036; stroke-width: 1.5;" x1="38" x2="257" y1="148" y2="148"/><text fill="#000000" font-family="sans-serif" font-size="11" lengthAdjust="spacingAndGlyphs" textLength="160" x="43" y="162.2104">colliderOriginalRadius : float</text><text fill="#000000" font-family="sans-serif" font-size="11" lengthAdjust="spacingAndGlyphs" textLength="113" x="43" y="175.0151">doFind : bool = true</text><text fill="#000000" font-family="sans-serif" font-size="11" lengthAdjust="spacingAndGlyphs" textLength="113" x="43" y="187.8198">found : bool = false</text><text fill="#000000" font-family="sans-serif" font-size="11" lengthAdjust="spacingAndGlyphs" textLength="173" x="43" y="200.6245">movingToTarget : bool = false</text><text fill="#000000" font-family="sans-serif" font-size="11" lengthAdjust="spacingAndGlyphs" textLength="168" x="43" y="213.4292">maxSearchTime : float = 0.5f</text><text fill="#000000" font-family="sans-serif" font-size="11" lengthAdjust="spacingAndGlyphs" textLength="152" x="43" y="226.2339">currSearchTime : float = 0</text><text fill="#000000" font-family="sans-serif" font-size="11" lengthAdjust="spacingAndGlyphs" textLength="167" x="43" y="239.0386">timeTillNextSearch : float = 0</text><line style="stroke: #A80036; stroke-width: 1.5;" x1="38" x2="257" y1="245.6328" y2="245.6328"/><text fill="#000000" font-family="sans-serif" font-size="11" lengthAdjust="spacingAndGlyphs" textLength="71" x="57" y="259.8433">Start() : void</text><ellipse cx="48" cy="269.4375" fill="#84BE84" rx="3" ry="3" style="stroke: #038048; stroke-width: 1.0;"/><text fill="#000000" font-family="sans-serif" font-size="11" lengthAdjust="spacingAndGlyphs" textLength="169" x="57" y="272.6479">Found(other:Collider2D) : void</text><text fill="#000000" font-family="sans-serif" font-size="11" lengthAdjust="spacingAndGlyphs" textLength="149" x="57" y="285.4526">FindNearestEnemy() : void</text><text fill="#000000" font-family="sans-serif" font-size="11" lengthAdjust="spacingAndGlyphs" textLength="113" x="57" y="298.2573">«new» Move() : void</text><text fill="#000000" font-family="sans-serif" font-size="11" lengthAdjust="spacingAndGlyphs" textLength="124" x="57" y="311.062">«new» Update() : void</text><!--MD5=[9e086ae7cb173547c374b8a4e58c7dec]
class Projectile--><rect fill="#FEFECE" filter="url(#f166ts5mk1elgy)" height="48" id="Projectile" style="stroke: #A80036; stroke-width: 1.5;" width="90" x="102.5" y="8"/><ellipse cx="117.5" cy="24" fill="#ADD1B2" rx="11" ry="11" style="stroke: #A80036; stroke-width: 1.0;"/><path d="M120.4688,29.6406 Q119.8906,29.9375 119.25,30.0781 Q118.6094,30.2344 117.9063,30.2344 Q115.4063,30.2344 114.0781,28.5938 Q112.7656,26.9375 112.7656,23.8125 Q112.7656,20.6875 114.0781,19.0313 Q115.4063,17.375 117.9063,17.375 Q118.6094,17.375 119.25,17.5313 Q119.9063,17.6875 120.4688,17.9844 L120.4688,20.7031 Q119.8438,20.125 119.25,19.8594 Q118.6563,19.5781 118.0313,19.5781 Q116.6875,19.5781 116,20.6563 Q115.3125,21.7188 115.3125,23.8125 Q115.3125,25.9063 116,26.9844 Q116.6875,28.0469 118.0313,28.0469 Q118.6563,28.0469 119.25,27.7813 Q119.8438,27.5 120.4688,26.9219 L120.4688,29.6406 Z "/><text fill="#000000" font-family="sans-serif" font-size="12" lengthAdjust="spacingAndGlyphs" textLength="58" x="131.5" y="28.1543">Projectile</text><line style="stroke: #A80036; stroke-width: 1.5;" x1="103.5" x2="191.5" y1="40" y2="40"/><line style="stroke: #A80036; stroke-width: 1.5;" x1="103.5" x2="191.5" y1="48" y2="48"/><!--MD5=[603e68f46679cfeecfddb9c4457107a4]
class CircleCollider2D--><rect fill="#FEFECE" filter="url(#f166ts5mk1elgy)" height="48" id="CircleCollider2D" style="stroke: #A80036; stroke-width: 1.5;" width="129" x="6" y="378"/><ellipse cx="21" cy="394" fill="#ADD1B2" rx="11" ry="11" style="stroke: #A80036; stroke-width: 1.0;"/><path d="M23.9688,399.6406 Q23.3906,399.9375 22.75,400.0781 Q22.1094,400.2344 21.4063,400.2344 Q18.9063,400.2344 17.5781,398.5938 Q16.2656,396.9375 16.2656,393.8125 Q16.2656,390.6875 17.5781,389.0313 Q18.9063,387.375 21.4063,387.375 Q22.1094,387.375 22.75,387.5313 Q23.4063,387.6875 23.9688,387.9844 L23.9688,390.7031 Q23.3438,390.125 22.75,389.8594 Q22.1563,389.5781 21.5313,389.5781 Q20.1875,389.5781 19.5,390.6563 Q18.8125,391.7188 18.8125,393.8125 Q18.8125,395.9063 19.5,396.9844 Q20.1875,398.0469 21.5313,398.0469 Q22.1563,398.0469 22.75,397.7813 Q23.3438,397.5 23.9688,396.9219 L23.9688,399.6406 Z "/><text fill="#000000" font-family="sans-serif" font-size="12" lengthAdjust="spacingAndGlyphs" textLength="97" x="35" y="398.1543">CircleCollider2D</text><line style="stroke: #A80036; stroke-width: 1.5;" x1="7" x2="134" y1="410" y2="410"/><line style="stroke: #A80036; stroke-width: 1.5;" x1="7" x2="134" y1="418" y2="418"/><!--MD5=[064f7a74fee85463ec1a30143664ee17]
class GameObject--><rect fill="#FEFECE" filter="url(#f166ts5mk1elgy)" height="48" id="GameObject" style="stroke: #A80036; stroke-width: 1.5;" width="108" x="170.5" y="378"/><ellipse cx="185.5" cy="394" fill="#ADD1B2" rx="11" ry="11" style="stroke: #A80036; stroke-width: 1.0;"/><path d="M188.4688,399.6406 Q187.8906,399.9375 187.25,400.0781 Q186.6094,400.2344 185.9063,400.2344 Q183.4063,400.2344 182.0781,398.5938 Q180.7656,396.9375 180.7656,393.8125 Q180.7656,390.6875 182.0781,389.0313 Q183.4063,387.375 185.9063,387.375 Q186.6094,387.375 187.25,387.5313 Q187.9063,387.6875 188.4688,387.9844 L188.4688,390.7031 Q187.8438,390.125 187.25,389.8594 Q186.6563,389.5781 186.0313,389.5781 Q184.6875,389.5781 184,390.6563 Q183.3125,391.7188 183.3125,393.8125 Q183.3125,395.9063 184,396.9844 Q184.6875,398.0469 186.0313,398.0469 Q186.6563,398.0469 187.25,397.7813 Q187.8438,397.5 188.4688,396.9219 L188.4688,399.6406 Z "/><text fill="#000000" font-family="sans-serif" font-size="12" lengthAdjust="spacingAndGlyphs" textLength="76" x="199.5" y="398.1543">GameObject</text><line style="stroke: #A80036; stroke-width: 1.5;" x1="171.5" x2="277.5" y1="410" y2="410"/><line style="stroke: #A80036; stroke-width: 1.5;" x1="171.5" x2="277.5" y1="418" y2="418"/><!--MD5=[8be7eff86219e0dad2e559383a88915e]
reverse link Projectile to Player3_BasicAttack_Projectile--><path d="M147.5,76.46 C147.5,88.49 147.5,102.06 147.5,115.9 " fill="none" id="Projectile&lt;-Player3_BasicAttack_Projectile" style="stroke: #A80036; stroke-width: 1.0;"/><polygon fill="none" points="140.5,76.18,147.5,56.18,154.5,76.18,140.5,76.18" style="stroke: #A80036; stroke-width: 1.0;"/><!--MD5=[6da077064f41a94e5cb33c2468ee7e27]
link Player3_BasicAttack_Projectile to CircleCollider2D--><path d="M105.4,318.07 C96.94,338.16 88.72,357.69 82.39,372.75 " fill="none" id="Player3_BasicAttack_Projectile-&gt;CircleCollider2D" style="stroke: #A80036; stroke-width: 1.0;"/><polygon fill="#A80036" points="80.31,377.68,87.4787,370.9265,82.2432,373.0689,80.1009,367.8334,80.31,377.68" style="stroke: #A80036; stroke-width: 1.0;"/><text fill="#000000" font-family="sans-serif" font-size="13" lengthAdjust="spacingAndGlyphs" textLength="45" x="32.2168" y="367.007">collider</text><!--MD5=[87f7e0d1eec625da4eaa0bf6806dbb6c]
link Player3_BasicAttack_Projectile to GameObject--><path d="M189.6,318.07 C198.06,338.16 206.28,357.69 212.61,372.75 " fill="none" id="Player3_BasicAttack_Projectile-&gt;GameObject" style="stroke: #A80036; stroke-width: 1.0;"/><polygon fill="#A80036" points="214.69,377.68,214.8991,367.8334,212.7568,373.0689,207.5213,370.9265,214.69,377.68" style="stroke: #A80036; stroke-width: 1.0;"/><text fill="#000000" font-family="sans-serif" font-size="13" lengthAdjust="spacingAndGlyphs" textLength="39" x="168.5457" y="367.007">target</text><!--MD5=[90ccbbc229d13cc2cc244efff92a86e8]
@startuml
class Player3_BasicAttack_Projectile {
    colliderOriginalRadius : float
    doFind : bool = true
    found : bool = false
    movingToTarget : bool = false
    maxSearchTime : float = 0.5f
    currSearchTime : float = 0
    timeTillNextSearch : float = 0
    Start() : void
    + Found(other:Collider2D) : void
    FindNearestEnemy() : void
    <<new>> Move() : void
    <<new>> Update() : void
}
Projectile <|- - Player3_BasicAttack_Projectile
Player3_BasicAttack_Projectile - -> "collider" CircleCollider2D
Player3_BasicAttack_Projectile - -> "target" GameObject
@enduml

PlantUML version 1.2020.02(Sun Mar 01 10:22:07 GMT 2020)
(GPL source distribution)
Java Runtime: OpenJDK Runtime Environment
JVM: OpenJDK 64-Bit Server VM
Java Version: 11.0.9+11-Ubuntu-0ubuntu1
Operating System: Linux
Default Encoding: ANSI_X3.4-1968
Language: en
Country: US
--></g></svg>