<?xml version="1.0" encoding="UTF-8" standalone="no"?><svg xmlns="http://www.w3.org/2000/svg" xmlns:xlink="http://www.w3.org/1999/xlink" contentScriptType="application/ecmascript" contentStyleType="text/css" height="226px" preserveAspectRatio="none" style="width:355px;height:226px;" version="1.1" viewBox="0 0 355 226" width="355px" zoomAndPan="magnify"><defs><filter height="300%" id="f1xn9w4r8aox9n" width="300%" x="-1" y="-1"><feGaussianBlur result="blurOut" stdDeviation="2.0"/><feColorMatrix in="blurOut" result="blurOut2" type="matrix" values="0 0 0 0 0 0 0 0 0 0 0 0 0 0 0 0 0 0 .4 0"/><feOffset dx="4.0" dy="4.0" in="blurOut2" result="blurOut3"/><feBlend in="SourceGraphic" in2="blurOut3" mode="normal"/></filter></defs><g><!--MD5=[651b6c7430d7ddbe94ba48ff461ae10b]
class Player1_BasicAttack_Projectile--><rect fill="#FEFECE" filter="url(#f1xn9w4r8aox9n)" height="99.2188" id="Player1_BasicAttack_Projectile" style="stroke: #A80036; stroke-width: 1.5;" width="338" x="6" y="116"/><ellipse cx="76.25" cy="132" fill="#ADD1B2" rx="11" ry="11" style="stroke: #A80036; stroke-width: 1.0;"/><path d="M79.2188,137.6406 Q78.6406,137.9375 78,138.0781 Q77.3594,138.2344 76.6563,138.2344 Q74.1563,138.2344 72.8281,136.5938 Q71.5156,134.9375 71.5156,131.8125 Q71.5156,128.6875 72.8281,127.0313 Q74.1563,125.375 76.6563,125.375 Q77.3594,125.375 78,125.5313 Q78.6563,125.6875 79.2188,125.9844 L79.2188,128.7031 Q78.5938,128.125 78,127.8594 Q77.4063,127.5781 76.7813,127.5781 Q75.4375,127.5781 74.75,128.6563 Q74.0625,129.7188 74.0625,131.8125 Q74.0625,133.9063 74.75,134.9844 Q75.4375,136.0469 76.7813,136.0469 Q77.4063,136.0469 78,135.7813 Q78.5938,135.5 79.2188,134.9219 L79.2188,137.6406 Z "/><text fill="#000000" font-family="sans-serif" font-size="12" lengthAdjust="spacingAndGlyphs" textLength="189" x="96.75" y="136.1543">Player1_BasicAttack_Projectile</text><line style="stroke: #A80036; stroke-width: 1.5;" x1="7" x2="343" y1="148" y2="148"/><text fill="#000000" font-family="sans-serif" font-size="11" lengthAdjust="spacingAndGlyphs" textLength="94" x="12" y="162.2104">offset : float = 0</text><line style="stroke: #A80036; stroke-width: 1.5;" x1="7" x2="343" y1="168.8047" y2="168.8047"/><text fill="#000000" font-family="sans-serif" font-size="11" lengthAdjust="spacingAndGlyphs" textLength="71" x="12" y="183.0151">Start() : void</text><text fill="#000000" font-family="sans-serif" font-size="11" lengthAdjust="spacingAndGlyphs" textLength="326" x="12" y="195.8198">«new» Move(deltaTime:float, horizontalVector:float) : void</text><text fill="#000000" font-family="sans-serif" font-size="11" lengthAdjust="spacingAndGlyphs" textLength="124" x="12" y="208.6245">«new» Update() : void</text><!--MD5=[9e086ae7cb173547c374b8a4e58c7dec]
class Projectile--><rect fill="#FEFECE" filter="url(#f1xn9w4r8aox9n)" height="48" id="Projectile" style="stroke: #A80036; stroke-width: 1.5;" width="90" x="130" y="8"/><ellipse cx="145" cy="24" fill="#ADD1B2" rx="11" ry="11" style="stroke: #A80036; stroke-width: 1.0;"/><path d="M147.9688,29.6406 Q147.3906,29.9375 146.75,30.0781 Q146.1094,30.2344 145.4063,30.2344 Q142.9063,30.2344 141.5781,28.5938 Q140.2656,26.9375 140.2656,23.8125 Q140.2656,20.6875 141.5781,19.0313 Q142.9063,17.375 145.4063,17.375 Q146.1094,17.375 146.75,17.5313 Q147.4063,17.6875 147.9688,17.9844 L147.9688,20.7031 Q147.3438,20.125 146.75,19.8594 Q146.1563,19.5781 145.5313,19.5781 Q144.1875,19.5781 143.5,20.6563 Q142.8125,21.7188 142.8125,23.8125 Q142.8125,25.9063 143.5,26.9844 Q144.1875,28.0469 145.5313,28.0469 Q146.1563,28.0469 146.75,27.7813 Q147.3438,27.5 147.9688,26.9219 L147.9688,29.6406 Z "/><text fill="#000000" font-family="sans-serif" font-size="12" lengthAdjust="spacingAndGlyphs" textLength="58" x="159" y="28.1543">Projectile</text><line style="stroke: #A80036; stroke-width: 1.5;" x1="131" x2="219" y1="40" y2="40"/><line style="stroke: #A80036; stroke-width: 1.5;" x1="131" x2="219" y1="48" y2="48"/><!--MD5=[5f00edfcb6df939b5dbd4f04385dcb71]
reverse link Projectile to Player1_BasicAttack_Projectile--><path d="M175,76.51 C175,89.14 175,103.01 175,115.93 " fill="none" id="Projectile&lt;-Player1_BasicAttack_Projectile" style="stroke: #A80036; stroke-width: 1.0;"/><polygon fill="none" points="168,76.21,175,56.21,182,76.21,168,76.21" style="stroke: #A80036; stroke-width: 1.0;"/><!--MD5=[53d2ab9f642625ce258e4183a041515e]
@startuml
class Player1_BasicAttack_Projectile {
    offset : float = 0
    Start() : void
    <<new>> Move(deltaTime:float, horizontalVector:float) : void
    <<new>> Update() : void
}
Projectile <|- - Player1_BasicAttack_Projectile
@enduml

PlantUML version 1.2020.02(Sun Mar 01 10:22:07 GMT 2020)
(GPL source distribution)
Java Runtime: OpenJDK Runtime Environment
JVM: OpenJDK 64-Bit Server VM
Java Version: 11.0.9+11-Ubuntu-0ubuntu1
Operating System: Linux
Default Encoding: ANSI_X3.4-1968
Language: en
Country: US
--></g></svg>