<?xml version="1.0" encoding="UTF-8" standalone="no"?><svg xmlns="http://www.w3.org/2000/svg" xmlns:xlink="http://www.w3.org/1999/xlink" contentScriptType="application/ecmascript" contentStyleType="text/css" height="373px" preserveAspectRatio="none" style="width:562px;height:373px;" version="1.1" viewBox="0 0 562 373" width="562px" zoomAndPan="magnify"><defs><filter height="300%" id="f3t8thjt04w4a" width="300%" x="-1" y="-1"><feGaussianBlur result="blurOut" stdDeviation="2.0"/><feColorMatrix in="blurOut" result="blurOut2" type="matrix" values="0 0 0 0 0 0 0 0 0 0 0 0 0 0 0 0 0 0 .4 0"/><feOffset dx="4.0" dy="4.0" in="blurOut2" result="blurOut3"/><feBlend in="SourceGraphic" in2="blurOut3" mode="normal"/></filter></defs><g><!--MD5=[bc1b0647da7d86fdf41b2041a923db1a]
class Player2_BasicAttack_Projectile--><rect fill="#FEFECE" filter="url(#f3t8thjt04w4a)" height="137.6328" id="Player2_BasicAttack_Projectile" style="stroke: #A80036; stroke-width: 1.5;" width="290" x="6" y="116"/><ellipse cx="52.25" cy="132" fill="#ADD1B2" rx="11" ry="11" style="stroke: #A80036; stroke-width: 1.0;"/><path d="M55.2188,137.6406 Q54.6406,137.9375 54,138.0781 Q53.3594,138.2344 52.6563,138.2344 Q50.1563,138.2344 48.8281,136.5938 Q47.5156,134.9375 47.5156,131.8125 Q47.5156,128.6875 48.8281,127.0313 Q50.1563,125.375 52.6563,125.375 Q53.3594,125.375 54,125.5313 Q54.6563,125.6875 55.2188,125.9844 L55.2188,128.7031 Q54.5938,128.125 54,127.8594 Q53.4063,127.5781 52.7813,127.5781 Q51.4375,127.5781 50.75,128.6563 Q50.0625,129.7188 50.0625,131.8125 Q50.0625,133.9063 50.75,134.9844 Q51.4375,136.0469 52.7813,136.0469 Q53.4063,136.0469 54,135.7813 Q54.5938,135.5 55.2188,134.9219 L55.2188,137.6406 Z "/><text fill="#000000" font-family="sans-serif" font-size="12" lengthAdjust="spacingAndGlyphs" textLength="189" x="72.75" y="136.1543">Player2_BasicAttack_Projectile</text><line style="stroke: #A80036; stroke-width: 1.5;" x1="7" x2="295" y1="148" y2="148"/><text fill="#000000" font-family="sans-serif" font-size="11" lengthAdjust="spacingAndGlyphs" textLength="118" x="12" y="162.2104">hitTime : float = 0.3f</text><text fill="#000000" font-family="sans-serif" font-size="11" lengthAdjust="spacingAndGlyphs" textLength="127" x="12" y="175.0151">currHitTime : float = 0</text><line style="stroke: #A80036; stroke-width: 1.5;" x1="7" x2="295" y1="181.6094" y2="181.6094"/><text fill="#000000" font-family="sans-serif" font-size="11" lengthAdjust="spacingAndGlyphs" textLength="71" x="12" y="195.8198">Start() : void</text><text fill="#000000" font-family="sans-serif" font-size="11" lengthAdjust="spacingAndGlyphs" textLength="278" x="12" y="208.6245">«new» OnTriggerEnter2D(other:Collider2D) : void</text><text fill="#000000" font-family="sans-serif" font-size="11" lengthAdjust="spacingAndGlyphs" textLength="227" x="12" y="221.4292">OnTriggerExit2D(other:Collider2D) : void</text><text fill="#000000" font-family="sans-serif" font-size="11" lengthAdjust="spacingAndGlyphs" textLength="77" x="12" y="234.2339">Attack() : void</text><text fill="#000000" font-family="sans-serif" font-size="11" lengthAdjust="spacingAndGlyphs" textLength="124" x="12" y="247.0386">«new» Update() : void</text><!--MD5=[e644022de7dea015dd09463c37421447]
class List`1--><rect fill="#FEFECE" filter="url(#f3t8thjt04w4a)" height="48" id="List`1" style="stroke: #A80036; stroke-width: 1.5;" width="78" x="331" y="161"/><ellipse cx="346" cy="177" fill="#ADD1B2" rx="11" ry="11" style="stroke: #A80036; stroke-width: 1.0;"/><path d="M348.9688,182.6406 Q348.3906,182.9375 347.75,183.0781 Q347.1094,183.2344 346.4063,183.2344 Q343.9063,183.2344 342.5781,181.5938 Q341.2656,179.9375 341.2656,176.8125 Q341.2656,173.6875 342.5781,172.0313 Q343.9063,170.375 346.4063,170.375 Q347.1094,170.375 347.75,170.5313 Q348.4063,170.6875 348.9688,170.9844 L348.9688,173.7031 Q348.3438,173.125 347.75,172.8594 Q347.1563,172.5781 346.5313,172.5781 Q345.1875,172.5781 344.5,173.6563 Q343.8125,174.7188 343.8125,176.8125 Q343.8125,178.9063 344.5,179.9844 Q345.1875,181.0469 346.5313,181.0469 Q347.1563,181.0469 347.75,180.7813 Q348.3438,180.5 348.9688,179.9219 L348.9688,182.6406 Z "/><text fill="#000000" font-family="sans-serif" font-size="12" lengthAdjust="spacingAndGlyphs" textLength="35" x="360" y="181.1543">List`1</text><rect fill="#FFFFFF" height="15.9688" style="stroke: #000000; stroke-width: 1.0; stroke-dasharray: 2.0,2.0;" width="9" x="403" y="158"/><text fill="#000000" font-family="sans-serif" font-size="12" font-style="italic" lengthAdjust="spacingAndGlyphs" textLength="7" x="404" y="170.1387">T</text><line style="stroke: #A80036; stroke-width: 1.5;" x1="332" x2="408" y1="193" y2="193"/><line style="stroke: #A80036; stroke-width: 1.5;" x1="332" x2="408" y1="201" y2="201"/><!--MD5=[9e086ae7cb173547c374b8a4e58c7dec]
class Projectile--><rect fill="#FEFECE" filter="url(#f3t8thjt04w4a)" height="48" id="Projectile" style="stroke: #A80036; stroke-width: 1.5;" width="90" x="106" y="8"/><ellipse cx="121" cy="24" fill="#ADD1B2" rx="11" ry="11" style="stroke: #A80036; stroke-width: 1.0;"/><path d="M123.9688,29.6406 Q123.3906,29.9375 122.75,30.0781 Q122.1094,30.2344 121.4063,30.2344 Q118.9063,30.2344 117.5781,28.5938 Q116.2656,26.9375 116.2656,23.8125 Q116.2656,20.6875 117.5781,19.0313 Q118.9063,17.375 121.4063,17.375 Q122.1094,17.375 122.75,17.5313 Q123.4063,17.6875 123.9688,17.9844 L123.9688,20.7031 Q123.3438,20.125 122.75,19.8594 Q122.1563,19.5781 121.5313,19.5781 Q120.1875,19.5781 119.5,20.6563 Q118.8125,21.7188 118.8125,23.8125 Q118.8125,25.9063 119.5,26.9844 Q120.1875,28.0469 121.5313,28.0469 Q122.1563,28.0469 122.75,27.7813 Q123.3438,27.5 123.9688,26.9219 L123.9688,29.6406 Z "/><text fill="#000000" font-family="sans-serif" font-size="12" lengthAdjust="spacingAndGlyphs" textLength="58" x="135" y="28.1543">Projectile</text><line style="stroke: #A80036; stroke-width: 1.5;" x1="107" x2="195" y1="40" y2="40"/><line style="stroke: #A80036; stroke-width: 1.5;" x1="107" x2="195" y1="48" y2="48"/><!--MD5=[064f7a74fee85463ec1a30143664ee17]
class GameObject--><rect fill="#FEFECE" filter="url(#f3t8thjt04w4a)" height="48" id="GameObject" style="stroke: #A80036; stroke-width: 1.5;" width="108" x="31" y="314"/><ellipse cx="46" cy="330" fill="#ADD1B2" rx="11" ry="11" style="stroke: #A80036; stroke-width: 1.0;"/><path d="M48.9688,335.6406 Q48.3906,335.9375 47.75,336.0781 Q47.1094,336.2344 46.4063,336.2344 Q43.9063,336.2344 42.5781,334.5938 Q41.2656,332.9375 41.2656,329.8125 Q41.2656,326.6875 42.5781,325.0313 Q43.9063,323.375 46.4063,323.375 Q47.1094,323.375 47.75,323.5313 Q48.4063,323.6875 48.9688,323.9844 L48.9688,326.7031 Q48.3438,326.125 47.75,325.8594 Q47.1563,325.5781 46.5313,325.5781 Q45.1875,325.5781 44.5,326.6563 Q43.8125,327.7188 43.8125,329.8125 Q43.8125,331.9063 44.5,332.9844 Q45.1875,334.0469 46.5313,334.0469 Q47.1563,334.0469 47.75,333.7813 Q48.3438,333.5 48.9688,332.9219 L48.9688,335.6406 Z "/><text fill="#000000" font-family="sans-serif" font-size="12" lengthAdjust="spacingAndGlyphs" textLength="76" x="60" y="334.1543">GameObject</text><line style="stroke: #A80036; stroke-width: 1.5;" x1="32" x2="138" y1="346" y2="346"/><line style="stroke: #A80036; stroke-width: 1.5;" x1="32" x2="138" y1="354" y2="354"/><!--MD5=[8b805049d0499e23d33da8a1efc9f54d]
class Animator--><rect fill="#FEFECE" filter="url(#f3t8thjt04w4a)" height="48" id="Animator" style="stroke: #A80036; stroke-width: 1.5;" width="88" x="174" y="314"/><ellipse cx="189" cy="330" fill="#ADD1B2" rx="11" ry="11" style="stroke: #A80036; stroke-width: 1.0;"/><path d="M191.9688,335.6406 Q191.3906,335.9375 190.75,336.0781 Q190.1094,336.2344 189.4063,336.2344 Q186.9063,336.2344 185.5781,334.5938 Q184.2656,332.9375 184.2656,329.8125 Q184.2656,326.6875 185.5781,325.0313 Q186.9063,323.375 189.4063,323.375 Q190.1094,323.375 190.75,323.5313 Q191.4063,323.6875 191.9688,323.9844 L191.9688,326.7031 Q191.3438,326.125 190.75,325.8594 Q190.1563,325.5781 189.5313,325.5781 Q188.1875,325.5781 187.5,326.6563 Q186.8125,327.7188 186.8125,329.8125 Q186.8125,331.9063 187.5,332.9844 Q188.1875,334.0469 189.5313,334.0469 Q190.1563,334.0469 190.75,333.7813 Q191.3438,333.5 191.9688,332.9219 L191.9688,335.6406 Z "/><text fill="#000000" font-family="sans-serif" font-size="12" lengthAdjust="spacingAndGlyphs" textLength="56" x="203" y="334.1543">Animator</text><line style="stroke: #A80036; stroke-width: 1.5;" x1="175" x2="261" y1="346" y2="346"/><line style="stroke: #A80036; stroke-width: 1.5;" x1="175" x2="261" y1="354" y2="354"/><!--MD5=[911d4b03e226bc1440fe1a84b96492a7]
reverse link Projectile to Player2_BasicAttack_Projectile--><path d="M151,76.56 C151,88.87 151,102.57 151,115.96 " fill="none" id="Projectile&lt;-Player2_BasicAttack_Projectile" style="stroke: #A80036; stroke-width: 1.0;"/><polygon fill="none" points="144,76.26,151,56.26,158,76.26,144,76.26" style="stroke: #A80036; stroke-width: 1.0;"/><!--MD5=[17fc49952a032cd72cdc14f4d517bb39]
link Player2_BasicAttack_Projectile to GameObject--><path d="M121.09,254.43 C112.62,273.81 103.88,293.81 97.12,309.27 " fill="none" id="Player2_BasicAttack_Projectile-&gt;GameObject" style="stroke: #A80036; stroke-width: 1.0;"/><polygon fill="#A80036" points="95.09,313.92,102.362,307.2779,97.0941,309.3392,95.0327,304.0713,95.09,313.92" style="stroke: #A80036; stroke-width: 1.0;"/><text fill="#000000" font-family="sans-serif" font-size="13" lengthAdjust="spacingAndGlyphs" textLength="39" x="53.6787" y="302.9115">player</text><!--MD5=[77a354771e70347d93f0984ec24acee3]
link Player2_BasicAttack_Projectile to Animator--><path d="M181.36,254.43 C189.96,273.81 198.84,293.81 205.7,309.27 " fill="none" id="Player2_BasicAttack_Projectile-&gt;Animator" style="stroke: #A80036; stroke-width: 1.0;"/><polygon fill="#A80036" points="207.76,313.92,207.7657,304.0711,205.732,309.3498,200.4533,307.316,207.76,313.92" style="stroke: #A80036; stroke-width: 1.0;"/><text fill="#000000" font-family="sans-serif" font-size="13" lengthAdjust="spacingAndGlyphs" textLength="58" x="139.7048" y="302.9115">animator</text><!--MD5=[ba652322c8ec381857f615221ed12412]
link Player2_BasicAttack_Projectile to List`1--><path d="M308,185 C308,185 314.81,185 317.66,185 " fill="none" id="Player2_BasicAttack_Projectile-List`1" style="stroke: #A80036; stroke-width: 1.0;"/><polygon fill="#A80036" points="330.98,185,321.98,181,325.98,185,321.98,189,330.98,185" style="stroke: #A80036; stroke-width: 1.0;"/><line style="stroke: #A80036; stroke-width: 1.0;" x1="325.98" x2="317.98" y1="185" y2="185"/><polygon fill="#FFFFFF" points="296,185,302,189,308,185,302,181,296,185" style="stroke: #A80036; stroke-width: 1.0;"/><text fill="#000000" font-family="sans-serif" font-size="13" lengthAdjust="spacingAndGlyphs" textLength="133" x="417.542" y="158.6511">toHit&lt;GameObject&gt;</text><!--MD5=[938f80b9578333edb5aeeb2ed08fe9b6]
@startuml
class Player2_BasicAttack_Projectile {
    hitTime : float = 0.3f
    currHitTime : float = 0
    Start() : void
    <<new>> OnTriggerEnter2D(other:Collider2D) : void
    OnTriggerExit2D(other:Collider2D) : void
    Attack() : void
    <<new>> Update() : void
}
class "List`1"<T> {
}
Projectile <|- - Player2_BasicAttack_Projectile
Player2_BasicAttack_Projectile - -> "player" GameObject
Player2_BasicAttack_Projectile - -> "animator" Animator
Player2_BasicAttack_Projectile o-> "toHit<GameObject>" "List`1"
@enduml

PlantUML version 1.2020.02(Sun Mar 01 10:22:07 GMT 2020)
(GPL source distribution)
Java Runtime: OpenJDK Runtime Environment
JVM: OpenJDK 64-Bit Server VM
Java Version: 11.0.9+11-Ubuntu-0ubuntu1
Operating System: Linux
Default Encoding: ANSI_X3.4-1968
Language: en
Country: US
--></g></svg>