<?xml version="1.0" encoding="UTF-8" standalone="no"?><svg xmlns="http://www.w3.org/2000/svg" xmlns:xlink="http://www.w3.org/1999/xlink" contentScriptType="application/ecmascript" contentStyleType="text/css" height="200px" preserveAspectRatio="none" style="width:174px;height:200px;" version="1.1" viewBox="0 0 174 200" width="174px" zoomAndPan="magnify"><defs><filter height="300%" id="f2kuoek0vfu8n" width="300%" x="-1" y="-1"><feGaussianBlur result="blurOut" stdDeviation="2.0"/><feColorMatrix in="blurOut" result="blurOut2" type="matrix" values="0 0 0 0 0 0 0 0 0 0 0 0 0 0 0 0 0 0 .4 0"/><feOffset dx="4.0" dy="4.0" in="blurOut2" result="blurOut3"/><feBlend in="SourceGraphic" in2="blurOut3" mode="normal"/></filter></defs><g><!--MD5=[48d40c2117c5c2bd851be9b299ae75b6]
class Player1_BasicAttack--><rect fill="#FEFECE" filter="url(#f2kuoek0vfu8n)" height="73.6094" id="Player1_BasicAttack" style="stroke: #A80036; stroke-width: 1.5;" width="157" x="6" y="116"/><ellipse cx="21" cy="132" fill="#ADD1B2" rx="11" ry="11" style="stroke: #A80036; stroke-width: 1.0;"/><path d="M23.9688,137.6406 Q23.3906,137.9375 22.75,138.0781 Q22.1094,138.2344 21.4063,138.2344 Q18.9063,138.2344 17.5781,136.5938 Q16.2656,134.9375 16.2656,131.8125 Q16.2656,128.6875 17.5781,127.0313 Q18.9063,125.375 21.4063,125.375 Q22.1094,125.375 22.75,125.5313 Q23.4063,125.6875 23.9688,125.9844 L23.9688,128.7031 Q23.3438,128.125 22.75,127.8594 Q22.1563,127.5781 21.5313,127.5781 Q20.1875,127.5781 19.5,128.6563 Q18.8125,129.7188 18.8125,131.8125 Q18.8125,133.9063 19.5,134.9844 Q20.1875,136.0469 21.5313,136.0469 Q22.1563,136.0469 22.75,135.7813 Q23.3438,135.5 23.9688,134.9219 L23.9688,137.6406 Z "/><text fill="#000000" font-family="sans-serif" font-size="12" lengthAdjust="spacingAndGlyphs" textLength="125" x="35" y="136.1543">Player1_BasicAttack</text><line style="stroke: #A80036; stroke-width: 1.5;" x1="7" x2="162" y1="148" y2="148"/><line style="stroke: #A80036; stroke-width: 1.5;" x1="7" x2="162" y1="156" y2="156"/><ellipse cx="17" cy="167" fill="#84BE84" rx="3" ry="3" style="stroke: #038048; stroke-width: 1.0;"/><text fill="#000000" font-family="sans-serif" font-size="11" lengthAdjust="spacingAndGlyphs" textLength="129" x="26" y="170.2104">«override» Fire() : void</text><text fill="#000000" font-family="sans-serif" font-size="11" lengthAdjust="spacingAndGlyphs" textLength="124" x="26" y="183.0151">«new» Update() : void</text><!--MD5=[a3f6aaa3f93db2c29fed664e0312b4de]
class Weapon--><rect fill="#FEFECE" filter="url(#f2kuoek0vfu8n)" height="48" id="Weapon" style="stroke: #A80036; stroke-width: 1.5;" width="83" x="43" y="8"/><ellipse cx="58" cy="24" fill="#ADD1B2" rx="11" ry="11" style="stroke: #A80036; stroke-width: 1.0;"/><path d="M60.9688,29.6406 Q60.3906,29.9375 59.75,30.0781 Q59.1094,30.2344 58.4063,30.2344 Q55.9063,30.2344 54.5781,28.5938 Q53.2656,26.9375 53.2656,23.8125 Q53.2656,20.6875 54.5781,19.0313 Q55.9063,17.375 58.4063,17.375 Q59.1094,17.375 59.75,17.5313 Q60.4063,17.6875 60.9688,17.9844 L60.9688,20.7031 Q60.3438,20.125 59.75,19.8594 Q59.1563,19.5781 58.5313,19.5781 Q57.1875,19.5781 56.5,20.6563 Q55.8125,21.7188 55.8125,23.8125 Q55.8125,25.9063 56.5,26.9844 Q57.1875,28.0469 58.5313,28.0469 Q59.1563,28.0469 59.75,27.7813 Q60.3438,27.5 60.9688,26.9219 L60.9688,29.6406 Z "/><text fill="#000000" font-family="sans-serif" font-size="12" lengthAdjust="spacingAndGlyphs" textLength="51" x="72" y="28.1543">Weapon</text><line style="stroke: #A80036; stroke-width: 1.5;" x1="44" x2="125" y1="40" y2="40"/><line style="stroke: #A80036; stroke-width: 1.5;" x1="44" x2="125" y1="48" y2="48"/><!--MD5=[2875b86b5058b69e9a39e39c233645ae]
reverse link Weapon to Player1_BasicAttack--><path d="M84.5,76.43 C84.5,89.33 84.5,103.32 84.5,115.71 " fill="none" id="Weapon&lt;-Player1_BasicAttack" style="stroke: #A80036; stroke-width: 1.0;"/><polygon fill="none" points="77.5,76.23,84.5,56.23,91.5,76.23,77.5,76.23" style="stroke: #A80036; stroke-width: 1.0;"/><!--MD5=[53cc07950afb68c78daf3d39660cdc90]
@startuml
class Player1_BasicAttack {
    + <<override>> Fire() : void
    <<new>> Update() : void
}
Weapon <|- - Player1_BasicAttack
@enduml

PlantUML version 1.2020.02(Sun Mar 01 10:22:07 GMT 2020)
(GPL source distribution)
Java Runtime: OpenJDK Runtime Environment
JVM: OpenJDK 64-Bit Server VM
Java Version: 11.0.9+11-Ubuntu-0ubuntu1
Operating System: Linux
Default Encoding: ANSI_X3.4-1968
Language: en
Country: US
--></g></svg>