<?xml version="1.0" encoding="UTF-8" standalone="no"?><svg xmlns="http://www.w3.org/2000/svg" xmlns:xlink="http://www.w3.org/1999/xlink" contentScriptType="application/ecmascript" contentStyleType="text/css" height="309px" preserveAspectRatio="none" style="width:233px;height:309px;" version="1.1" viewBox="0 0 233 309" width="233px" zoomAndPan="magnify"><defs><filter height="300%" id="fui7sjg2chwa" width="300%" x="-1" y="-1"><feGaussianBlur result="blurOut" stdDeviation="2.0"/><feColorMatrix in="blurOut" result="blurOut2" type="matrix" values="0 0 0 0 0 0 0 0 0 0 0 0 0 0 0 0 0 0 .4 0"/><feOffset dx="4.0" dy="4.0" in="blurOut2" result="blurOut3"/><feBlend in="SourceGraphic" in2="blurOut3" mode="normal"/></filter></defs><g><!--MD5=[9e086ae7cb173547c374b8a4e58c7dec]
class Projectile--><rect fill="#FEFECE" filter="url(#fui7sjg2chwa)" height="73.6094" id="Projectile" style="stroke: #A80036; stroke-width: 1.5;" width="216" x="6" y="116"/><ellipse cx="80.75" cy="132" fill="#ADD1B2" rx="11" ry="11" style="stroke: #A80036; stroke-width: 1.0;"/><path d="M83.7188,137.6406 Q83.1406,137.9375 82.5,138.0781 Q81.8594,138.2344 81.1563,138.2344 Q78.6563,138.2344 77.3281,136.5938 Q76.0156,134.9375 76.0156,131.8125 Q76.0156,128.6875 77.3281,127.0313 Q78.6563,125.375 81.1563,125.375 Q81.8594,125.375 82.5,125.5313 Q83.1563,125.6875 83.7188,125.9844 L83.7188,128.7031 Q83.0938,128.125 82.5,127.8594 Q81.9063,127.5781 81.2813,127.5781 Q79.9375,127.5781 79.25,128.6563 Q78.5625,129.7188 78.5625,131.8125 Q78.5625,133.9063 79.25,134.9844 Q79.9375,136.0469 81.2813,136.0469 Q81.9063,136.0469 82.5,135.7813 Q83.0938,135.5 83.7188,134.9219 L83.7188,137.6406 Z "/><text fill="#000000" font-family="sans-serif" font-size="12" lengthAdjust="spacingAndGlyphs" textLength="58" x="101.25" y="136.1543">Projectile</text><line style="stroke: #A80036; stroke-width: 1.5;" x1="7" x2="221" y1="148" y2="148"/><ellipse cx="17" cy="159" fill="none" rx="3" ry="3" style="stroke: #038048; stroke-width: 1.0;"/><text fill="#000000" font-family="sans-serif" font-size="11" lengthAdjust="spacingAndGlyphs" textLength="82" x="26" y="162.2104">lifeTime : float</text><line style="stroke: #A80036; stroke-width: 1.5;" x1="7" x2="221" y1="168.8047" y2="168.8047"/><ellipse cx="17" cy="179.8047" fill="#84BE84" rx="3" ry="3" style="stroke: #038048; stroke-width: 1.0;"/><text fill="#000000" font-family="sans-serif" font-size="11" lengthAdjust="spacingAndGlyphs" textLength="190" x="26" y="183.0151">SetStats(projDamage:float) : void</text><!--MD5=[83b3cf3d23d77c6f1e1b5291a241bc2a]
class MonoBehaviour--><rect fill="#FEFECE" filter="url(#fui7sjg2chwa)" height="48" id="MonoBehaviour" style="stroke: #A80036; stroke-width: 1.5;" width="128" x="50" y="8"/><ellipse cx="65" cy="24" fill="#ADD1B2" rx="11" ry="11" style="stroke: #A80036; stroke-width: 1.0;"/><path d="M67.9688,29.6406 Q67.3906,29.9375 66.75,30.0781 Q66.1094,30.2344 65.4063,30.2344 Q62.9063,30.2344 61.5781,28.5938 Q60.2656,26.9375 60.2656,23.8125 Q60.2656,20.6875 61.5781,19.0313 Q62.9063,17.375 65.4063,17.375 Q66.1094,17.375 66.75,17.5313 Q67.4063,17.6875 67.9688,17.9844 L67.9688,20.7031 Q67.3438,20.125 66.75,19.8594 Q66.1563,19.5781 65.5313,19.5781 Q64.1875,19.5781 63.5,20.6563 Q62.8125,21.7188 62.8125,23.8125 Q62.8125,25.9063 63.5,26.9844 Q64.1875,28.0469 65.5313,28.0469 Q66.1563,28.0469 66.75,27.7813 Q67.3438,27.5 67.9688,26.9219 L67.9688,29.6406 Z "/><text fill="#000000" font-family="sans-serif" font-size="12" lengthAdjust="spacingAndGlyphs" textLength="96" x="79" y="28.1543">MonoBehaviour</text><line style="stroke: #A80036; stroke-width: 1.5;" x1="51" x2="177" y1="40" y2="40"/><line style="stroke: #A80036; stroke-width: 1.5;" x1="51" x2="177" y1="48" y2="48"/><!--MD5=[a3f6aaa3f93db2c29fed664e0312b4de]
class Weapon--><rect fill="#FEFECE" filter="url(#fui7sjg2chwa)" height="48" id="Weapon" style="stroke: #A80036; stroke-width: 1.5;" width="83" x="72.5" y="250"/><ellipse cx="87.5" cy="266" fill="#ADD1B2" rx="11" ry="11" style="stroke: #A80036; stroke-width: 1.0;"/><path d="M90.4688,271.6406 Q89.8906,271.9375 89.25,272.0781 Q88.6094,272.2344 87.9063,272.2344 Q85.4063,272.2344 84.0781,270.5938 Q82.7656,268.9375 82.7656,265.8125 Q82.7656,262.6875 84.0781,261.0313 Q85.4063,259.375 87.9063,259.375 Q88.6094,259.375 89.25,259.5313 Q89.9063,259.6875 90.4688,259.9844 L90.4688,262.7031 Q89.8438,262.125 89.25,261.8594 Q88.6563,261.5781 88.0313,261.5781 Q86.6875,261.5781 86,262.6563 Q85.3125,263.7188 85.3125,265.8125 Q85.3125,267.9063 86,268.9844 Q86.6875,270.0469 88.0313,270.0469 Q88.6563,270.0469 89.25,269.7813 Q89.8438,269.5 90.4688,268.9219 L90.4688,271.6406 Z "/><text fill="#000000" font-family="sans-serif" font-size="12" lengthAdjust="spacingAndGlyphs" textLength="51" x="101.5" y="270.1543">Weapon</text><line style="stroke: #A80036; stroke-width: 1.5;" x1="73.5" x2="154.5" y1="282" y2="282"/><line style="stroke: #A80036; stroke-width: 1.5;" x1="73.5" x2="154.5" y1="290" y2="290"/><!--MD5=[5c67b0b4a5a0a047629d26b7321d5a29]
reverse link MonoBehaviour to Projectile--><path d="M114,76.43 C114,89.33 114,103.32 114,115.71 " fill="none" id="MonoBehaviour&lt;-Projectile" style="stroke: #A80036; stroke-width: 1.0;"/><polygon fill="none" points="107,76.23,114,56.23,121,76.23,107,76.23" style="stroke: #A80036; stroke-width: 1.0;"/><!--MD5=[217588043a8fce0378dd69bf32620bd1]
link Projectile to Weapon--><path d="M114,190.03 C114,207.48 114,228.15 114,244.49 " fill="none" id="Projectile-&gt;Weapon" style="stroke: #A80036; stroke-width: 1.0;"/><polygon fill="#A80036" points="114,249.85,118,240.85,114,244.85,110,240.85,114,249.85" style="stroke: #A80036; stroke-width: 1.0;"/><text fill="#000000" font-family="sans-serif" font-size="13" lengthAdjust="spacingAndGlyphs" textLength="49" x="58.7219" y="238.8236">weapon</text><!--MD5=[37ecc7a54e1a4e2029d7f07c46737f4b]
@startuml
class Projectile {
    + lifeTime : float
    + SetStats(projDamage:float) : void
}
MonoBehaviour <|- - Projectile
Projectile - -> "weapon" Weapon
@enduml

PlantUML version 1.2020.02(Sun Mar 01 10:22:07 GMT 2020)
(GPL source distribution)
Java Runtime: OpenJDK Runtime Environment
JVM: OpenJDK 64-Bit Server VM
Java Version: 11.0.9+11-Ubuntu-0ubuntu1
Operating System: Linux
Default Encoding: ANSI_X3.4-1968
Language: en
Country: US
--></g></svg>