<?xml version="1.0" encoding="UTF-8" standalone="no"?><svg xmlns="http://www.w3.org/2000/svg" xmlns:xlink="http://www.w3.org/1999/xlink" contentScriptType="application/ecmascript" contentStyleType="text/css" height="200px" preserveAspectRatio="none" style="width:153px;height:200px;" version="1.1" viewBox="0 0 153 200" width="153px" zoomAndPan="magnify"><defs><filter height="300%" id="f14kt5vg9ph149" width="300%" x="-1" y="-1"><feGaussianBlur result="blurOut" stdDeviation="2.0"/><feColorMatrix in="blurOut" result="blurOut2" type="matrix" values="0 0 0 0 0 0 0 0 0 0 0 0 0 0 0 0 0 0 .4 0"/><feOffset dx="4.0" dy="4.0" in="blurOut2" result="blurOut3"/><feBlend in="SourceGraphic" in2="blurOut3" mode="normal"/></filter></defs><g><!--MD5=[74ca9936386eede6fff4187b47dede4d]
class Projectile1--><rect fill="#FEFECE" filter="url(#f14kt5vg9ph149)" height="73.6094" id="Projectile1" style="stroke: #A80036; stroke-width: 1.5;" width="136" x="6" y="116"/><ellipse cx="38.1" cy="132" fill="#ADD1B2" rx="11" ry="11" style="stroke: #A80036; stroke-width: 1.0;"/><path d="M41.0688,137.6406 Q40.4906,137.9375 39.85,138.0781 Q39.2094,138.2344 38.5063,138.2344 Q36.0063,138.2344 34.6781,136.5938 Q33.3656,134.9375 33.3656,131.8125 Q33.3656,128.6875 34.6781,127.0313 Q36.0063,125.375 38.5063,125.375 Q39.2094,125.375 39.85,125.5313 Q40.5063,125.6875 41.0688,125.9844 L41.0688,128.7031 Q40.4438,128.125 39.85,127.8594 Q39.2563,127.5781 38.6313,127.5781 Q37.2875,127.5781 36.6,128.6563 Q35.9125,129.7188 35.9125,131.8125 Q35.9125,133.9063 36.6,134.9844 Q37.2875,136.0469 38.6313,136.0469 Q39.2563,136.0469 39.85,135.7813 Q40.4438,135.5 41.0688,134.9219 L41.0688,137.6406 Z "/><text fill="#000000" font-family="sans-serif" font-size="12" lengthAdjust="spacingAndGlyphs" textLength="66" x="55.9" y="136.1543">Projectile1</text><line style="stroke: #A80036; stroke-width: 1.5;" x1="7" x2="141" y1="148" y2="148"/><line style="stroke: #A80036; stroke-width: 1.5;" x1="7" x2="141" y1="156" y2="156"/><text fill="#000000" font-family="sans-serif" font-size="11" lengthAdjust="spacingAndGlyphs" textLength="71" x="12" y="170.2104">Start() : void</text><text fill="#000000" font-family="sans-serif" font-size="11" lengthAdjust="spacingAndGlyphs" textLength="124" x="12" y="183.0151">«new» Update() : void</text><!--MD5=[9e086ae7cb173547c374b8a4e58c7dec]
class Projectile--><rect fill="#FEFECE" filter="url(#f14kt5vg9ph149)" height="48" id="Projectile" style="stroke: #A80036; stroke-width: 1.5;" width="90" x="29" y="8"/><ellipse cx="44" cy="24" fill="#ADD1B2" rx="11" ry="11" style="stroke: #A80036; stroke-width: 1.0;"/><path d="M46.9688,29.6406 Q46.3906,29.9375 45.75,30.0781 Q45.1094,30.2344 44.4063,30.2344 Q41.9063,30.2344 40.5781,28.5938 Q39.2656,26.9375 39.2656,23.8125 Q39.2656,20.6875 40.5781,19.0313 Q41.9063,17.375 44.4063,17.375 Q45.1094,17.375 45.75,17.5313 Q46.4063,17.6875 46.9688,17.9844 L46.9688,20.7031 Q46.3438,20.125 45.75,19.8594 Q45.1563,19.5781 44.5313,19.5781 Q43.1875,19.5781 42.5,20.6563 Q41.8125,21.7188 41.8125,23.8125 Q41.8125,25.9063 42.5,26.9844 Q43.1875,28.0469 44.5313,28.0469 Q45.1563,28.0469 45.75,27.7813 Q46.3438,27.5 46.9688,26.9219 L46.9688,29.6406 Z "/><text fill="#000000" font-family="sans-serif" font-size="12" lengthAdjust="spacingAndGlyphs" textLength="58" x="58" y="28.1543">Projectile</text><line style="stroke: #A80036; stroke-width: 1.5;" x1="30" x2="118" y1="40" y2="40"/><line style="stroke: #A80036; stroke-width: 1.5;" x1="30" x2="118" y1="48" y2="48"/><!--MD5=[b496a0c08f646bd1d0762cc9d0be468e]
reverse link Projectile to Projectile1--><path d="M74,76.43 C74,89.33 74,103.32 74,115.71 " fill="none" id="Projectile&lt;-Projectile1" style="stroke: #A80036; stroke-width: 1.0;"/><polygon fill="none" points="67,76.23,74,56.23,81,76.23,67,76.23" style="stroke: #A80036; stroke-width: 1.0;"/><!--MD5=[9a3ebf53f749b033a5c70da3b2e9a4c6]
@startuml
class Projectile1 {
    Start() : void
    <<new>> Update() : void
}
Projectile <|- - Projectile1
@enduml

PlantUML version 1.2020.02(Sun Mar 01 10:22:07 GMT 2020)
(GPL source distribution)
Java Runtime: OpenJDK Runtime Environment
JVM: OpenJDK 64-Bit Server VM
Java Version: 11.0.9+11-Ubuntu-0ubuntu1
Operating System: Linux
Default Encoding: ANSI_X3.4-1968
Language: en
Country: US
--></g></svg>