<?xml version="1.0" encoding="UTF-8" standalone="no"?><svg xmlns="http://www.w3.org/2000/svg" xmlns:xlink="http://www.w3.org/1999/xlink" contentScriptType="application/ecmascript" contentStyleType="text/css" height="200px" preserveAspectRatio="none" style="width:172px;height:200px;" version="1.1" viewBox="0 0 172 200" width="172px" zoomAndPan="magnify"><defs><filter height="300%" id="ff1rnwnnd53hl" width="300%" x="-1" y="-1"><feGaussianBlur result="blurOut" stdDeviation="2.0"/><feColorMatrix in="blurOut" result="blurOut2" type="matrix" values="0 0 0 0 0 0 0 0 0 0 0 0 0 0 0 0 0 0 .4 0"/><feOffset dx="4.0" dy="4.0" in="blurOut2" result="blurOut3"/><feBlend in="SourceGraphic" in2="blurOut3" mode="normal"/></filter></defs><g><!--MD5=[ea8bcb698fca76e7e7307bc1087fbd72]
class Weapon1--><rect fill="#FEFECE" filter="url(#ff1rnwnnd53hl)" height="73.6094" id="Weapon1" style="stroke: #A80036; stroke-width: 1.5;" width="155" x="6" y="116"/><ellipse cx="49.8" cy="132" fill="#ADD1B2" rx="11" ry="11" style="stroke: #A80036; stroke-width: 1.0;"/><path d="M52.7688,137.6406 Q52.1906,137.9375 51.55,138.0781 Q50.9094,138.2344 50.2063,138.2344 Q47.7063,138.2344 46.3781,136.5938 Q45.0656,134.9375 45.0656,131.8125 Q45.0656,128.6875 46.3781,127.0313 Q47.7063,125.375 50.2063,125.375 Q50.9094,125.375 51.55,125.5313 Q52.2063,125.6875 52.7688,125.9844 L52.7688,128.7031 Q52.1438,128.125 51.55,127.8594 Q50.9563,127.5781 50.3313,127.5781 Q48.9875,127.5781 48.3,128.6563 Q47.6125,129.7188 47.6125,131.8125 Q47.6125,133.9063 48.3,134.9844 Q48.9875,136.0469 50.3313,136.0469 Q50.9563,136.0469 51.55,135.7813 Q52.1438,135.5 52.7688,134.9219 L52.7688,137.6406 Z "/><text fill="#000000" font-family="sans-serif" font-size="12" lengthAdjust="spacingAndGlyphs" textLength="59" x="70.2" y="136.1543">Weapon1</text><line style="stroke: #A80036; stroke-width: 1.5;" x1="7" x2="160" y1="148" y2="148"/><line style="stroke: #A80036; stroke-width: 1.5;" x1="7" x2="160" y1="156" y2="156"/><ellipse cx="17" cy="167" fill="#84BE84" rx="3" ry="3" style="stroke: #038048; stroke-width: 1.0;"/><text fill="#000000" font-family="sans-serif" font-size="11" lengthAdjust="spacingAndGlyphs" textLength="129" x="26" y="170.2104">«override» Fire() : void</text><text fill="#000000" font-family="sans-serif" font-size="11" lengthAdjust="spacingAndGlyphs" textLength="124" x="26" y="183.0151">«new» Update() : void</text><!--MD5=[a3f6aaa3f93db2c29fed664e0312b4de]
class Weapon--><rect fill="#FEFECE" filter="url(#ff1rnwnnd53hl)" height="48" id="Weapon" style="stroke: #A80036; stroke-width: 1.5;" width="83" x="42" y="8"/><ellipse cx="57" cy="24" fill="#ADD1B2" rx="11" ry="11" style="stroke: #A80036; stroke-width: 1.0;"/><path d="M59.9688,29.6406 Q59.3906,29.9375 58.75,30.0781 Q58.1094,30.2344 57.4063,30.2344 Q54.9063,30.2344 53.5781,28.5938 Q52.2656,26.9375 52.2656,23.8125 Q52.2656,20.6875 53.5781,19.0313 Q54.9063,17.375 57.4063,17.375 Q58.1094,17.375 58.75,17.5313 Q59.4063,17.6875 59.9688,17.9844 L59.9688,20.7031 Q59.3438,20.125 58.75,19.8594 Q58.1563,19.5781 57.5313,19.5781 Q56.1875,19.5781 55.5,20.6563 Q54.8125,21.7188 54.8125,23.8125 Q54.8125,25.9063 55.5,26.9844 Q56.1875,28.0469 57.5313,28.0469 Q58.1563,28.0469 58.75,27.7813 Q59.3438,27.5 59.9688,26.9219 L59.9688,29.6406 Z "/><text fill="#000000" font-family="sans-serif" font-size="12" lengthAdjust="spacingAndGlyphs" textLength="51" x="71" y="28.1543">Weapon</text><line style="stroke: #A80036; stroke-width: 1.5;" x1="43" x2="124" y1="40" y2="40"/><line style="stroke: #A80036; stroke-width: 1.5;" x1="43" x2="124" y1="48" y2="48"/><!--MD5=[38457d8f58056b8eaa4828e9601a8482]
reverse link Weapon to Weapon1--><path d="M83.5,76.43 C83.5,89.33 83.5,103.32 83.5,115.71 " fill="none" id="Weapon&lt;-Weapon1" style="stroke: #A80036; stroke-width: 1.0;"/><polygon fill="none" points="76.5,76.23,83.5,56.23,90.5,76.23,76.5,76.23" style="stroke: #A80036; stroke-width: 1.0;"/><!--MD5=[ac735abbb4ecce149385dfb3a96f9c11]
@startuml
class Weapon1 {
    + <<override>> Fire() : void
    <<new>> Update() : void
}
Weapon <|- - Weapon1
@enduml

PlantUML version 1.2020.02(Sun Mar 01 10:22:07 GMT 2020)
(GPL source distribution)
Java Runtime: OpenJDK Runtime Environment
JVM: OpenJDK 64-Bit Server VM
Java Version: 11.0.9+11-Ubuntu-0ubuntu1
Operating System: Linux
Default Encoding: ANSI_X3.4-1968
Language: en
Country: US
--></g></svg>