<?xml version="1.0" encoding="UTF-8" standalone="no"?><svg xmlns="http://www.w3.org/2000/svg" xmlns:xlink="http://www.w3.org/1999/xlink" contentScriptType="application/ecmascript" contentStyleType="text/css" height="309px" preserveAspectRatio="none" style="width:250px;height:309px;" version="1.1" viewBox="0 0 250 309" width="250px" zoomAndPan="magnify"><defs><filter height="300%" id="f1o7ql4at2gnuu" width="300%" x="-1" y="-1"><feGaussianBlur result="blurOut" stdDeviation="2.0"/><feColorMatrix in="blurOut" result="blurOut2" type="matrix" values="0 0 0 0 0 0 0 0 0 0 0 0 0 0 0 0 0 0 .4 0"/><feOffset dx="4.0" dy="4.0" in="blurOut2" result="blurOut3"/><feBlend in="SourceGraphic" in2="blurOut3" mode="normal"/></filter></defs><g><!--MD5=[a3f6aaa3f93db2c29fed664e0312b4de]
class Weapon--><rect fill="#FEFECE" filter="url(#f1o7ql4at2gnuu)" height="73.6094" id="Weapon" style="stroke: #A80036; stroke-width: 1.5;" width="209" x="22.5" y="116"/><ellipse cx="97.25" cy="132" fill="#ADD1B2" rx="11" ry="11" style="stroke: #A80036; stroke-width: 1.0;"/><path d="M100.2188,137.6406 Q99.6406,137.9375 99,138.0781 Q98.3594,138.2344 97.6563,138.2344 Q95.1563,138.2344 93.8281,136.5938 Q92.5156,134.9375 92.5156,131.8125 Q92.5156,128.6875 93.8281,127.0313 Q95.1563,125.375 97.6563,125.375 Q98.3594,125.375 99,125.5313 Q99.6563,125.6875 100.2188,125.9844 L100.2188,128.7031 Q99.5938,128.125 99,127.8594 Q98.4063,127.5781 97.7813,127.5781 Q96.4375,127.5781 95.75,128.6563 Q95.0625,129.7188 95.0625,131.8125 Q95.0625,133.9063 95.75,134.9844 Q96.4375,136.0469 97.7813,136.0469 Q98.4063,136.0469 99,135.7813 Q99.5938,135.5 100.2188,134.9219 L100.2188,137.6406 Z "/><text fill="#000000" font-family="sans-serif" font-size="12" lengthAdjust="spacingAndGlyphs" textLength="51" x="117.75" y="136.1543">Weapon</text><line style="stroke: #A80036; stroke-width: 1.5;" x1="23.5" x2="230.5" y1="148" y2="148"/><line style="stroke: #A80036; stroke-width: 1.5;" x1="23.5" x2="230.5" y1="156" y2="156"/><ellipse cx="33.5" cy="167" fill="#84BE84" rx="3" ry="3" style="stroke: #038048; stroke-width: 1.0;"/><text fill="#000000" font-family="sans-serif" font-size="11" lengthAdjust="spacingAndGlyphs" textLength="117" x="42.5" y="170.2104">«virtual» Fire() : void</text><ellipse cx="33.5" cy="179.8047" fill="#84BE84" rx="3" ry="3" style="stroke: #038048; stroke-width: 1.0;"/><text fill="#000000" font-family="sans-serif" font-size="11" lengthAdjust="spacingAndGlyphs" textLength="183" x="42.5" y="183.0151">AddDamage(amount:float) : void</text><!--MD5=[83b3cf3d23d77c6f1e1b5291a241bc2a]
class MonoBehaviour--><rect fill="#FEFECE" filter="url(#f1o7ql4at2gnuu)" height="48" id="MonoBehaviour" style="stroke: #A80036; stroke-width: 1.5;" width="128" x="63" y="8"/><ellipse cx="78" cy="24" fill="#ADD1B2" rx="11" ry="11" style="stroke: #A80036; stroke-width: 1.0;"/><path d="M80.9688,29.6406 Q80.3906,29.9375 79.75,30.0781 Q79.1094,30.2344 78.4063,30.2344 Q75.9063,30.2344 74.5781,28.5938 Q73.2656,26.9375 73.2656,23.8125 Q73.2656,20.6875 74.5781,19.0313 Q75.9063,17.375 78.4063,17.375 Q79.1094,17.375 79.75,17.5313 Q80.4063,17.6875 80.9688,17.9844 L80.9688,20.7031 Q80.3438,20.125 79.75,19.8594 Q79.1563,19.5781 78.5313,19.5781 Q77.1875,19.5781 76.5,20.6563 Q75.8125,21.7188 75.8125,23.8125 Q75.8125,25.9063 76.5,26.9844 Q77.1875,28.0469 78.5313,28.0469 Q79.1563,28.0469 79.75,27.7813 Q80.3438,27.5 80.9688,26.9219 L80.9688,29.6406 Z "/><text fill="#000000" font-family="sans-serif" font-size="12" lengthAdjust="spacingAndGlyphs" textLength="96" x="92" y="28.1543">MonoBehaviour</text><line style="stroke: #A80036; stroke-width: 1.5;" x1="64" x2="190" y1="40" y2="40"/><line style="stroke: #A80036; stroke-width: 1.5;" x1="64" x2="190" y1="48" y2="48"/><!--MD5=[064f7a74fee85463ec1a30143664ee17]
class GameObject--><rect fill="#FEFECE" filter="url(#f1o7ql4at2gnuu)" height="48" id="GameObject" style="stroke: #A80036; stroke-width: 1.5;" width="108" x="6" y="250"/><ellipse cx="21" cy="266" fill="#ADD1B2" rx="11" ry="11" style="stroke: #A80036; stroke-width: 1.0;"/><path d="M23.9688,271.6406 Q23.3906,271.9375 22.75,272.0781 Q22.1094,272.2344 21.4063,272.2344 Q18.9063,272.2344 17.5781,270.5938 Q16.2656,268.9375 16.2656,265.8125 Q16.2656,262.6875 17.5781,261.0313 Q18.9063,259.375 21.4063,259.375 Q22.1094,259.375 22.75,259.5313 Q23.4063,259.6875 23.9688,259.9844 L23.9688,262.7031 Q23.3438,262.125 22.75,261.8594 Q22.1563,261.5781 21.5313,261.5781 Q20.1875,261.5781 19.5,262.6563 Q18.8125,263.7188 18.8125,265.8125 Q18.8125,267.9063 19.5,268.9844 Q20.1875,270.0469 21.5313,270.0469 Q22.1563,270.0469 22.75,269.7813 Q23.3438,269.5 23.9688,268.9219 L23.9688,271.6406 Z "/><text fill="#000000" font-family="sans-serif" font-size="12" lengthAdjust="spacingAndGlyphs" textLength="76" x="35" y="270.1543">GameObject</text><line style="stroke: #A80036; stroke-width: 1.5;" x1="7" x2="113" y1="282" y2="282"/><line style="stroke: #A80036; stroke-width: 1.5;" x1="7" x2="113" y1="290" y2="290"/><!--MD5=[9e086ae7cb173547c374b8a4e58c7dec]
class Projectile--><rect fill="#FEFECE" filter="url(#f1o7ql4at2gnuu)" height="48" id="Projectile" style="stroke: #A80036; stroke-width: 1.5;" width="90" x="149" y="250"/><ellipse cx="164" cy="266" fill="#ADD1B2" rx="11" ry="11" style="stroke: #A80036; stroke-width: 1.0;"/><path d="M166.9688,271.6406 Q166.3906,271.9375 165.75,272.0781 Q165.1094,272.2344 164.4063,272.2344 Q161.9063,272.2344 160.5781,270.5938 Q159.2656,268.9375 159.2656,265.8125 Q159.2656,262.6875 160.5781,261.0313 Q161.9063,259.375 164.4063,259.375 Q165.1094,259.375 165.75,259.5313 Q166.4063,259.6875 166.9688,259.9844 L166.9688,262.7031 Q166.3438,262.125 165.75,261.8594 Q165.1563,261.5781 164.5313,261.5781 Q163.1875,261.5781 162.5,262.6563 Q161.8125,263.7188 161.8125,265.8125 Q161.8125,267.9063 162.5,268.9844 Q163.1875,270.0469 164.5313,270.0469 Q165.1563,270.0469 165.75,269.7813 Q166.3438,269.5 166.9688,268.9219 L166.9688,271.6406 Z "/><text fill="#000000" font-family="sans-serif" font-size="12" lengthAdjust="spacingAndGlyphs" textLength="58" x="178" y="270.1543">Projectile</text><line style="stroke: #A80036; stroke-width: 1.5;" x1="150" x2="238" y1="282" y2="282"/><line style="stroke: #A80036; stroke-width: 1.5;" x1="150" x2="238" y1="290" y2="290"/><!--MD5=[20e121fdcad764aa05c213cabc954f96]
reverse link MonoBehaviour to Weapon--><path d="M127,76.43 C127,89.33 127,103.32 127,115.71 " fill="none" id="MonoBehaviour&lt;-Weapon" style="stroke: #A80036; stroke-width: 1.0;"/><polygon fill="none" points="120,76.23,127,56.23,134,76.23,120,76.23" style="stroke: #A80036; stroke-width: 1.0;"/><!--MD5=[11e0129742135ad08f8caa938736fdab]
link Weapon to GameObject--><path d="M106.72,190.03 C96.72,207.79 84.85,228.87 75.58,245.33 " fill="none" id="Weapon-&gt;GameObject" style="stroke: #A80036; stroke-width: 1.0;"/><polygon fill="#A80036" points="73.03,249.85,80.9351,243.9755,75.4861,245.4948,73.9667,240.0458,73.03,249.85" style="stroke: #A80036; stroke-width: 1.0;"/><text fill="#000000" font-family="sans-serif" font-size="13" lengthAdjust="spacingAndGlyphs" textLength="39" x="32.3721" y="238.8236">player</text><!--MD5=[a51e9fb875305b51bc3990a7a2bf3738]
link Weapon to Projectile--><path d="M147.28,190.03 C157.28,207.79 169.15,228.87 178.42,245.33 " fill="none" id="Weapon-&gt;Projectile" style="stroke: #A80036; stroke-width: 1.0;"/><polygon fill="#A80036" points="180.97,249.85,180.0333,240.0458,178.5139,245.4948,173.0649,243.9755,180.97,249.85" style="stroke: #A80036; stroke-width: 1.0;"/><text fill="#000000" font-family="sans-serif" font-size="13" lengthAdjust="spacingAndGlyphs" textLength="58" x="112.1998" y="238.8236">projectile</text><!--MD5=[1e79b0933daade0ab0d5daf65d841bf4]
@startuml
class Weapon {
    + <<virtual>> Fire() : void
    + AddDamage(amount:float) : void
}
MonoBehaviour <|- - Weapon
Weapon - -> "player" GameObject
Weapon - -> "projectile" Projectile
@enduml

PlantUML version 1.2020.02(Sun Mar 01 10:22:07 GMT 2020)
(GPL source distribution)
Java Runtime: OpenJDK Runtime Environment
JVM: OpenJDK 64-Bit Server VM
Java Version: 11.0.9+11-Ubuntu-0ubuntu1
Operating System: Linux
Default Encoding: ANSI_X3.4-1968
Language: en
Country: US
--></g></svg>